<mxfile host="app.diagrams.net" modified="2023-07-04T16:42:48.377Z" agent="Mozilla/5.0 (Windows NT 10.0; Win64; x64) AppleWebKit/537.36 (KHTML, like Gecko) Chrome/114.0.0.0 Safari/537.36 Edg/114.0.1823.67" etag="likVTG_taXm_znIpnCjD" version="21.5.0" type="device">
  <diagram name="Page-1" id="M6SurGzVJkM8nTWdiOBB">
    <mxGraphModel dx="3183" dy="1291" grid="1" gridSize="10" guides="1" tooltips="1" connect="1" arrows="1" fold="1" page="1" pageScale="1" pageWidth="850" pageHeight="1100" math="0" shadow="0">
      <root>
        <mxCell id="0" />
        <mxCell id="1" parent="0" />
        <mxCell id="pq6OM98FaBrcGSdIZZ3g-24" style="edgeStyle=orthogonalEdgeStyle;rounded=0;orthogonalLoop=1;jettySize=auto;html=1;entryX=0;entryY=0.5;entryDx=0;entryDy=0;fontSize=16;" parent="1" source="pq6OM98FaBrcGSdIZZ3g-13" target="pq6OM98FaBrcGSdIZZ3g-21" edge="1">
          <mxGeometry relative="1" as="geometry" />
        </mxCell>
        <mxCell id="pq6OM98FaBrcGSdIZZ3g-13" value="" style="dashed=0;outlineConnect=0;html=1;align=center;labelPosition=center;verticalLabelPosition=bottom;verticalAlign=top;shape=mxgraph.weblogos.github;fontSize=16;" parent="1" vertex="1">
          <mxGeometry x="130" y="120" width="80" height="80" as="geometry" />
        </mxCell>
        <mxCell id="pq6OM98FaBrcGSdIZZ3g-48" style="edgeStyle=orthogonalEdgeStyle;rounded=0;orthogonalLoop=1;jettySize=auto;html=1;exitX=1;exitY=0.5;exitDx=0;exitDy=0;entryX=0;entryY=0.5;entryDx=0;entryDy=0;entryPerimeter=0;fontSize=16;startArrow=none;startFill=0;" parent="1" source="pq6OM98FaBrcGSdIZZ3g-21" target="pq6OM98FaBrcGSdIZZ3g-46" edge="1">
          <mxGeometry relative="1" as="geometry" />
        </mxCell>
        <mxCell id="pq6OM98FaBrcGSdIZZ3g-21" value="" style="shape=image;verticalLabelPosition=bottom;labelBackgroundColor=default;verticalAlign=top;aspect=fixed;imageAspect=0;image=data:image/png,iVBORw0KGgoAAAANSUhEUgAAAcwAAAHMCAYAAABY25iGAAAACXBIWXMAAA7EAAAOxAGVKw4bAAAgAElEQVR42uy9e5Rl+XXX99n7d86pW9XVNTU1rZ5WT6s9Gkbj0UQaC1k4ii2IEcaLGBJWEkJYBoJiHCxDEhsbY2Qe5pHg5djgRzAQ2yR2CCybFVb+IfzhGBbJAmE7xDbG6GHJI2k07hm1unv6WXXvPee3d/74/c6559aj+1Z3dXc9zpZq7u1bt87jd36//d3f/dsPYZBBHqL8xZ++BbAWgurpU1XVNLA1do3mmLlaE9XNmTZR3dG6aQocLII7Gs3V3cCdaaSKLsW4oTKXwnEFcHfc3aaNj5cr1k4tycW1Fd04NdK31NHNzHHQfEntK+ZOdFfH565Z8mv7qfuet9cdC8d2PcjsQIqk78g9xkzufs7576aD2T2+pix8TN9xLO9dl4gQUESkuxFpX9F0fyLdXxWBBqS+ciP+2rRmemPLDYEyCAXeLCvjUr0p1U0UExGCaiMiaFBDIBRiImJaqKmoFaFoQiEWglhZeKOKnTqlm5rG98qHf2c1LLxBHorIMATHGKz+j+sgoteuXdc7d7aK8RSdNI5SoVIQURzBGgUXdS8pC9fRko+mMeq0qYtJ3WgTI7gqDi5iCMQoCqCttkzqNP14T4uLsLIy2hAVXRoVlbuoxaTEBcHdVRzcPQEl6bVV7u4o7pD+X+GoOZUjhacPFRJgRmdcqq+NCj+3vCRPLFeyEc3NvYNE3Q4gMUOC7wWYDn4vsJyhiu0BmNr73OQuB+0A84AX8KLHc/cdx+wAMz/rgCBsB0wxyR+ISDeiKjQgzfU7/pkm0kyaNEZBBcWbEp8GwVQwEQwBUWnycUwE0PZztTTG0ohiIOZihmDivmnudvmLdy7PrtrzNXq+xvbxWL5OS8/X0rWKCkVQK4LyxHLVjMpg4ymbTYRb48YQZ6l0wBBqoAEaqiWlLMXOPLnWnD61bCDTv/ifbAwK6BhKMQzBcTaHRIFVd1aB8wKVIiPpNIdoUnKiiIAzAtYE+TJgDZEzICugK1kxqkuHg0VPW9ocYGZVntWn3tzylxwv4lYcJaCR/HvRTu17uo6sunrsTjuN3f3VNqXcoqsqbDbOlTE0N5w6evfd7ZDh3U+4J9QsyvYWlgM/4AFc0l2uzbeBs3r/ScsOuivSN3jSm1ElqAhVIbQGjLjTGg8Jc/sHboF7BnpIa9pYd1UuDmCF2xh8GkQ+u+1Z6x63bD3TRHtoOkakAS4J3Ab5f4FNSeg4j7Z5zgLTjJ6vgmzi/gqz7w8yMMxBHrf8mR+7pYCOx7dX3G10O9iGCaM7VGooTa3gVB79fLRmxZrpuWhSRKMQymy2hwRSron6eFgK4itVES+6xxXzZi1GG5l7JZklOWKegEw71uFJS3rHMPugJ9ogFxwpokiVNWMLe312qlkDtn+ela7Qp4fSvkpPlXt7JjCDJkI0J5r3mNBuQCBz5G8vJHEOGOCOGGDuoNa+C1huY6Hu82NeFoIIlNrOixlQurdU1eemRM9smgNM78yd2bMJ7lPwJrhdTteRWbzMH0PmMC//zhJ2SmK30yDaFKG4HjSMtxr5dHQZu5khTtBo6TjR8EahIQSaEGiWqqUvhBDGU5NPgDdaRAJup6RuSvPx6cZuqpa3y6VT42ndTD93+XoTfIzg/IPvee+g1AaGOcjDs3REgRFwIf3IVwHngaq1mM1ZnTa8P0YdTZtqw1wwV/AAhBYwO7AzD5g7zcRQjEINEclu1wRy1mo01Q4YWxBsVVIyvKXTVVOPiReYzzOROe0oc+C4ff9QgJD5YKBBkzacO177kRaCAiWLuD11ITflweKlH+aJdW+x3WwQ33V0t0vT+46L5nk4g7LusfoMErsfz3Ap3psnLehRAVUp+mx6qtkD0bsMaQ0rSS7adsYSupmLJTxka0uJLojKB0VgVOa/b5rskjXwAohojKg4S5GxqjWjpfCLIkxBDLwBNjP7/DfApwVeVZErzO8926DVBoY5yD7ku//+Jypg5eq1OJrWVHUzKtyDRi+eN5fqxh1WDSVSmWhY0VCum8Wn3f2MS3wWYS2KKohGcwMqh4vuFIasJLWgGdxm7KpVVhEFHDNHcYJYgkmZOURnDFC2TR/pqbYEojPjPm5jL+n8fZbibfSKb5uefYUn6bpEYu9s9zel9wWYB+6R9cUWph9SjeB7XV/PiFno4hVx7eaW962juWO20Gm9I/vceWYsdbsx5jtuTduJKT5zBeOIO5avYWKCueSwshSklL4T26vNoOnZjHSC0AhYEHkNMAmYuFuw2Ah+vXB/Q4K+ISFcq6fNFy3GaSFTBLcnVuW2wLgI9qpQN6qbzcqyjjfWwxi4/pf/0Mubg4YcGOYg8zIC1gXOCKwCI4QCl98LrCByoQ0ucWQtupybNGGtNlbrusAtu5VE8BzOkvBT0FBmf2a2vKWvcrKTKwNjCJJdn5oVQvtd6f43U1Dzaknm7P50nCp/J+zh5hSEmBVV9PnjiGuPbTpIvlrZCzD3gzKLhdccvFW5wDn9MVmz+x2+BziAuBOyuaZ9tjhnUMzQ2d13nLh9F/OZm+0RW73vdf4Ml52X7mketuZTGdJmfSPtrmk6giK4JwbbMllSlDaTOkV4q/lzyQhU3BwzIwSjLCNlwbhCpu5cQ2TcxgAIXAKuA/8kE/FN4Bpw3d2n+d+DDAzzZMnv++5PMyrWdCmsPDttfHRt0y6WS1Ktni7Wx9PJxWnTvDNGXzFn1LgUjqiHcAGkmJquOELtARepTHSESwVShCYp2eAzsGlXYvJTyowk4tlt6tluz2AljjgUBNQhuPbsedkGiR3CMvdWZpyg+0jq/CWbs/69ey9dGIdltandSWQOfJOS8jnm8WDTXx/8ofp+r8QX+oqcEAXUGnDie42Pb2OV2z73BGV5NzMDouyq6HaZxXM+Es/jXqth4jQau3k6WzIp+q07SxtClyex+sxrkiKxHdOIFRERN1U3cR8LbgWGiFtJ3ASmYs0b6mbBm6YIOi0LnVbl6Bercvk3bl2fXmlqa546LZdEmN6cXP20hobl5Qm4T//uR947HTTswDCPpHz7j30OgDfvOJPauT1J7Mkb05wTeIbEIl8CVoBnzPTFGPV9jTEyp2iy+3NKAQhRC8yhESUC0YWgiqpSkMCyiPNOMZE2RMJ30fJtVGILSckFq3nRB5+BiW2zr7brNr8LHFhmCNadZ6dYxxR8m0e2x1a9tfCTwupp2IcLmIucxh+Ymh0O9iiP8nIMl96+pOwCZHPza+csa7fRc3g1wdLzVNcdtyUL3LJ4y3jbDYxkXHZeXHouX5/9tZD2+kUkeWa6FZWmmEmkDg3upu6uAVZVwLJbuG7qdcEozJ9VFwpPbmZ3JQRdB17NP+PsidoUeK1bPiL2B773lempJVgdpWv6oQ+/fVDEA2AeFctZNoBnVXwdZB34d4HzNxgV1+qoTe0vOFLEcrTmEeVNKvcwclgRFUSFNkswWpvTFhCBkBVE4Y64oZaUThSw0IMBkbnEwBl0tmH9OcFEiswhQ/Z+5V0amWXj++6QOzuibGOa+YzioDG7s0T30N4zV5jLdnft7Pszd69kEH5wlS0LxFq4yN2xxLv0Bg5s4/EhMMx7RvsKyAJn9V4O5oPit7UzyJlz/e9+9bvB3jzERonZSIt9WzB7Otq90nkQld3OlcFQrNi2Uy/ZoyB5e8B6nps0erGLUUrrwiUFwqkLZunv24SuFnMtr4DIEipKDMrEwGt4c+Ivu/NioctjFezWeDpGbOq68lqwyGhcWanyysqS/Nvsxr0J/Fx+P8gAmEdmbNeAjcwmXwCeAwpE1JznHFETKcwhxnYRJgtVpNst7PYj+3lu7d6izAHJbPWbSHZmyp4Mw51eeof0jiXbAGMPGPDe/ueu6rh1te3P7Snb9hbnea1sc/geGr/i0feN7gvqHnz8fZfwHVnoAmUX7jiXlzmbfjI/j/vn62aS90w88d53dzMfdpZwYj7Au29G5tgA7ea17Hrt/bFQEMWlxEhBSDHGVTdDK+mlW9EobORjmCd9c5MUJT/Kr4M8zmUyyE75hu/9LCArEqk0yvsnDeu3JvJVtZTP1VL9timqtYs2QQtX0VqyTR2SSRmkmPktc0UbkQyYeU9EMgnSHGrQlRvIgRCOE7WZoyXu/QICgrrO8hqzQhDbkQuZATmd2MU69ug7nLJzAf9Z0WzbE8rBFaMmpV+2bjKfCzeirwQ6xsEebttksfsBuGP3v0wWCyA9mOs6yKAf7xk3d73DBRnmgeU/5P3AuXoFdxl/3w1S85yyPGdjqDvvxu7H6fHYWbDsNj+G5PAe2ZPt0p/z7Q24da7mvgkgKO6CeEj3O3d1viO2WJgFt7WBbv3jTjW2hrOJQ2GKmlkRvSnFKDFb1uajpfqV1bL+lyp+eyL1z4mwef6tK5dExL7vGy8MhRUGhvlo5E//1PUCKF57bXPldvRic9NXFUanRM81znqNnI2EDSOsWhd03vuRmfm7PTy/zdboxeTsEbBAxz87NSB305i7W0qyH3NK7q5s2YUZit+NEe601u8GTbLNhh/k6JvGff/G3Z+8z+ft7sJ3fT/3ei9nxWJ1d+9+Ltl2n9v2QVu4vKux0MuW2ZlxlTZucoqYOp68VQgNvg5uW2ZvFeHWVvTzomxeumZWVmH8HX//zU1g+n1f/+QQKDQA5kOXZ4ELDv+Zw7OTqM9F19F1Wb5grjRhSdMkLtJmogLUIE7pTSqQaiHt71HMRcCL9Mpfe1tArpej1qt9GXv5ke1ei++lM9pjbUvyn9cc84kmYv3lvXsJORG5p1KJbXam2DZd1Ctvtw+FLi4ZiA8jAMghvKaDxUw56EIOci9m7nv/exsoBS8eyJqS/nTcxWvisgdz9XaN+GxH3ncBaOltsfTZ6jYPxXxilswFNo2w2R4pAhJwVaIW1Abmwi3ie8WhqMdfI5gV8fa4CL65FPmsGp8gpa/8IvCrgzofAPNgmOTf+SQC+oXXl4oYZX2zkdHEWPn1z269pIU+O5nIRTM5G6VYM6QygrqIei/Bfy5jzHvp+t6PtNtLF7Rlxh5QQfkDf+EB/lRgj6SAQQY5rOK7xDX5wmHGvvDH9wfqfWosu5eLEFGXXIsZ1KSoDGertvXaOP8bb0z+nXoam6/7M68Uy8FuLwWfnl6fXls51TTA+Ae+6cuGSTAA5n2JgmyAfAC4CLz7zevNVzQuL0UtcQlouYKjNJbTsDW025EdOGreE+nqmrh3VXHu5fncEzB951/dk+/tM/1BHvgbdHmeO9nvAKGDHDCbPiDPQ5edfF+Hkz1AeLH8213XVVcjvl+jPoFlzHukKd5AcRVMC0Sg8bQhRAhV9FhN70xeEG9e0OuTr6nUPr2kvIrwywhfAP4xqXjCJYZSfft4sidcvuVHLqnAxTtTW339evMe82Kj8erdOBsO56PzrDnnGkKaoMUIRDELOVR+VnKu3Z/Q1AaQkHc022R3lwXC+P1oA0t7/T5Muoc2toMcNMO0xzJZF3meatsBs2WaqQ+a504+IhAsIuIEj+CG2CS3XTBU7IqKX0Piq2C3q3Lrl4LazWeeGH20ULn9xEr5idWlwr7rvzg/TIiBYd7VilDgPcB5d/n2xlndtOJsam6bugEGEcxS7VPLvFFVMXc8zvrr9YlqAk6ZVTfZIxljsM4GGcBykL1XUJvHkhlnlwM646VmKcK9UJlrbydSdrncjcczNXZmGqcvGJE1ka8tVDaBHxXh88CvsViD8kGHnTT5Ez946Tyw/voVeW802Ziy/NtNZH0qvDdCMUFXVIRCNMfxCE0ullNr2+IxuWKtqw0nXSBd8OSODb3arI5jEgfFPlz/7ovzHt6HATBPGMPsqhkFunQVZulWkLPTgOipum7IjYBSQxZHzVBJXX8MI+LUUhMxliU2AZpl+BV1v642/r/LgsvnngyfQHjtne986lXAvvXrTg8McxDOkNpj/QfA+a1p+EoTrZpqlCaWxpz4lPLGvN147/Ie6beC3FaBVXpfkMFUGWSQQR6I58hcWcdePmj3lVkt6a6RAo6LYFkvGZqqeWkq2FCbFo1TNOPxVwRsvFZxAXgFqHIS6KvDyJ9Q+dD3f6YCWZvI6L2Gvv+LN6rfPK71YkM458hIQ1gH0SChKx7gvW7weKoDiaSi5bQlsLqyWjnAvKvLmuqfti7ZNjF5EYa5UDuoh7AXKidgf/WoM8zH4dKXE6A2DjfDLPIzCLkOmCV9IqlgvAPmlp1cuXCJhGS0R6Ot+9H+rgXbTp95xHHDmk2FcSl+eaWyV59ciZ9Wb/6vkvEnxHn1733XO8YDwzw5khswywVBvjy6vKc2vTiVAhelDIIKBGu7gGgqVcV8DdVuUeUKNG39yB1WicvAKgc5HmCya2z3II/7mfQrnfR1U9e6r1fIfhZPoanHrIOFZCTEAtxda9NVdVs1i2eWzNsSn58U5BJyMrHjxM36P/wXPn8G5EO3m+ptN5ulr9zS4sxYirN1IZUpRevlCHn+LceErJWDiRLbTiGAa0JTI7UIibmfvEregndBLSWUtK8zmrp40M/AMB8vcxz2Ek+eN8B3q5t3SCRE7QwWEyeK5XKRltrjiXeN2NuG2ELa91TXlCPuQoFSuFBkF+3EEyEYl+m1CbMiFUVjTdm4jWJ9fcma8VPLk/9nuYhX3vKU/9D6ut8Erv2lDz03MMzjIN/6Y7eLaR311ddvjLacjRKeMTgPet5dVw1dmTHFvO/YS4Xw3u+SK7Vfv65n4bV/0RVHF0R8PtG4Vwtv0LPHxOoUGUBzkMcw8fp7l9u65eyoZDDPONs3ySvGrt1D+9UuzbWI5rjLhouaOecbl+rmpDkzvm5FdWpt87/98cv2w9949liX2jv2DPNbf+w2wFdO67jx6hs3vrkx2diaLL1XpNRQniqiK40HohqmYFJn67JNXLZZWbkU55rLUWnPQRtn38099PBcTM7TlntbskBysWmQhfP2B4Z5uBnmwDIHhvlocXLWJCFHQmRmOWvGbR1+tm+0V+IyW/pzpS8l7dv2u7u45h60SsjN6QM1KkaMNxq8tlNL41cL5dpzb9v4EVW5BPzsD3/j2YFhHkX5o9/zytrNK5erN+Xp583DmYlXZ81lzUQrlVl/yJCBTz27WvGu6XHr//cdHRX6vTrmiONduvnlDExh74oeg5xYJT3IIAvNtzk26XsyId+TGeXUtuwZme9v6p0zTXMKXHBH3TPUWq6CJIVLoPZytXGxSzf0HYqPlm5dPv+HvvtXN7/0whM3we3P/1cXB8A8QvIVwMXPXZW/0ng4V1RPqQDLoxpzR6wmkDYuPXckrtVwgWkwDJhmQyxKinhNeZQJXLe3EFK061O5w/3BfKNlGQDzyIDYAIiDHKq5LV0W9xwkdl1fvNfUwH1ez0j7b6cRwVVoaBtcp2pkS5b0W2WOulB6itUQdWpSzqaVFSZwJa6d88i5L3zBv2tJm1dfWpa3C/w88I+y3jtWRQ+OFWB++G99vAJfvXR5dG5ay9lL4+r9IG+zICvuqSi6iIPnEOtsKzViPassTzXPlXmsdVdIBslZLdjt9lsbDXu3Osu+rX+s2wG5kB6CUj/MQDGA2OLjMFOWw3gdL4a5bedxrvitzAHmbiwz9wZD8xG17U2ayYDn3r3WP1xucJ22lwBJXYxco5ro6pV6+SUBrn1m0iyP7LVv+hsfu+xw7Uf/65eORQrKcWOYayDPivC7ROTfv1UXLzeEs1bk+ore2mBFbtJqGDWRBhGj7S2HCOoljlB4qqaRivnkzpYti8zNYLs9hV3b1vaav8qsELl0k3WQASyHcRhkH9KBV9v5SHKDh1l30dYy7+ZI243eZ4FC2umfDJiWG0R4zPqxwcVpsASUBKBK5fVcU555m/upDY3LmWvNyn9USf2B0zr5Peb8I+BfAL8AjI/R0B9t+RN/41dWgGc/f6N66dY0/M6xnX6+9tGzSHEOkRXr9u/ThFiSssMyx1IDSomzCFmg3RwX09z0WXCJ2eoycCd4qiuLSa/Musx2N2WWH2U59NulnZw59dgGs/+hAYUf0Oz3w7mSFg5aOkEM8yQE/VjbV7bb1tG85yidS7Z96t4DSJ8V0sPFZu0D6THGTCS8rdbSucU0p6YUiAQsxUJSS9M7Xt739DgONDcrufNrS+HOa08uN//nUyvNqyLyC3/7W3/zkQbO48IwV4CXoslvn9T6jZuUuiWrLBVKUGGpuY1gOXJMcS1wl1QaCs0GWQQxJNf+TwULnMKSDaaiRHEaTXublpmmdgyzrbwx23CPnbadRbC1+w6yqCIe5H79Vot9Z7BXBjmybEdmgNl+kpurz8DQmJXmbA1279yu0lYjA2KuOlZrivqP2SvnFOCKUuRzCe5NphXptVAwApOwTBNt1MQ4WrHJ2aaBJ0ZMReSTpGbV46M95kdUvvN/f0Vf/axVdc0HJ3VxYWu69EdqL89OqZ6fUtFIhWoCv4pJ9tPnpF2KzC61a6/VpogktyvdfmWwQGtfRQzryk85mhnrbGNS53SxZwvV+1ahpJQT7fW0G1x+jxE05aCO4z3n1kGpw4NKZ/EZURgMpf0xzENo1XY7mF2iZLv3uFvK2owp+1yNMu+1HkwwaHnPstG8d9kCZvakSa92rVjSZyErMhHHXKhjmbWoUvmYkinLOv5sQXNzaWnrJ4sQr3zJbyp+tqpk7O7Xvv/3vzAwzEeI9AXwvLm+Y9oU7zeplHCKQG5pk60q7dVTdCCazxdHl37V9G2JIzLrXdkpsm3MxGXnau2/a8O0kVkO1bB3eYTMQXmE59qn4l8oR/Ru+U6DHGFmuRvQ54AddgJm9y9vt45mhtR8b975NmLd+QTc29zz7CkTRTIpEAe1tN+pKqiMEJaoG3u2cbGqGn+5w2Xg52aAPzDMhyrf+uO/VGzWVXFruvyRpgnn3rj65NeZ6Sja0hlUkKAgNSJ1iojFca92gOF2ZbLdUJcdA+VzKSJ0NtpOLSe7DLMfwYEfgkr2s5J6DPMgHq7PgskeHHttG2sa5F7GivcLrx66uSbsCji9azXvegzu0De76aJZZP9uRr/sfLd9eDRtYQWLyYtngsgSQkm0mNPtblwXjeMLb731r1T9laeWb/33Kr75I9/0vtsDw3xI8sUvrFSuOrKRPmeu58zCeXNVp+i89skhkF2sAtH704JdY1kXtNHvG/IG435gtYMcoWd4mG0L993pmeyCngvch+9xENnjW9IrdDBvUzuaG1B05UUFnCIz22JdTcxMnsNpNu+EVcH58P/wK5uC2N/60+8eAPOg5Dt+8NMK8MlLxZ915F237amvdtGRliNVUvNxk4hJg1NjkooSzLih9zbCd5sgvm8tKIO2HGSQo0cg7Rgwbfedtail7/CQA7bpZFeA7XA7g6SHnL+pOdhIImpLCAGxNcRdv/h68YJSX7wj8R+q+j//krfEH3D8GnB9AMwHlD/6V/81gF55c3XdkRX3eM5dzrrryNHKe1V0+pvZzHUGkc7NMkDaIA9Nh7X/GSbZICdv5vfe9retcpqKCyFXFHILheOVSXVG8LO37zQXVOE7/ubHNh2a7//jLx3a6kCHHjAFKmBkLl8P+jtis/GBOhYbOkJdoBEwjKnXyRUrMRULZinvZrcFC7Zvhg8yyMGrDJ+PELv/ee+Dx2KQ+8ete3z40E7vFkiuWSXiGNPckFoodAVxJegp3Kgmk9ULZRh/7Z3NKy8Uhf802D+QFBR0aPc0Dy1gfsf/8moBrLzy6+Pz47E9t1yGd6qW56JI5Yq21fmtrdXfVbJoI7s0AaUPSmeQQQYZ5OGDteSSot5VUiPr5hRX2yAoJgERUFUMLSaxXJ96/aWf+nz9gdOny1/+yN/93Bvg177nDz/bDIC5uKyQUkZ+bzS+4dY0rKOrq3UQPEAdHBNnohkypUZdUQ+IFwRKYkvstX701tYhjTAVGQyIQQY59vj1qNWPC+KKepUYpoIwAakxrbGuqbUCyzmHPRCtXK3r06tBrn99qP33j5b5YeBfgvwz4OYAmPeQ7/yJKwqy/trl6bObk/ifjn355UZl1aWs0NYF69QSE7NMXHMWA2spHN+391QdcGKQXQ1jP1TH2e8xD7zwxbBnMcgDAbX0Gqrnuamk8qA0gNBIQFGKokLMkKhErwpjhRtb8r5PfKY588Tp6tK3/8+X3wC/9Ne+4elDs6dZHL4BpxDhbN3Iy1sT/WORahTDaNWkAhUaSb0qp94kN2zIpewAianZKSbDwh/ksYDcQeLWYOMN8uAiBzgjFxFNYOmpdRgi2f0Kjdep/qylUqNFoag5EgPejJQo1eZ0/MFJbOzUMj8v8GmHNzhELcIO3Zr8HX/y9TMIHzEtn43F6OtcpDAJhUmqRFHnqhJR6qTw1HL/EUVNCbEkWHLNtmWgGo24PNoI2SHp/4gA5kGXUpMDO+BChQsWKp8nixcuOBYpF8eexe0HxB4RYOb5GrzsWlBErYnS0GiDSdbDgOSuKAUV6lAaiDlqhqRK3VbF8T9Vj5fPPxm/86nTdhv8+g9925cODHO7TKasiPBBC7oew/Iol+EnSsQl0mTARLPPtd+JpK3tKttyK+X4p5MsVCJtAPH7M5oHGeTI6YOHBdJ3O2lqOeHt+cWzXtLMXVIhGULKIY3e5NaJShAFLYmN4C5qk/H7xfy2mW9khnkocjQPBY58ww/+0mo9KUdbt0798alVz1yfPvX1UaSoy3LkEvEQibk3W2sAJwYpGSShyNFZqRawzSK1gJgLGDxaK9Af8QIZAPNxPqPHxTAXmxw+MMwTOCcfvfXpqSRp1rbuCiiNh1R/TXNmpjRZZ7W9hVMjC0VRK1Lw0HRq4tZsjK7946B26YmN29+nwW//xLd9+ZUTzzCntVRmrDjybkHOosVKruqbUym9e53VZFLEBSXkVjVtsfWcXiLWK1SgA6MYZJBBBnkonKtVrKmv8Nz+ewZCR9tKeVmPzxogzuA2F0xngB4AACAASURBVI8XAS0U98KQd+Gy3hhrCvad/9OvAfC93/R4upwcCsC8fL34S448v9mc/konVE2BujhRG8DSQLt0vdgEUCsA6Rowp08Tl0Qb0KbbKU7JtA8eUXiYrb/HdW2LnHdIZRnkmPPCE858PXsxHKfOnzjiqbpMsACeImNBcNWk12XS/W1ipYZ4BIwmKI7oF+Las0p9/s61O39XhV+4sMZ34oyBzRMHmP/xR359Bahue33OkfNRdMXRwlrXUWeSzCwW7UOfz4PgXNV93/lMvVdPdpBBToQeFx+cK0cGlI6DsZA1cG87odut6LyD0lLN1nfbY6SJn7YtxyJaGAHzcA44e/WKbwDX//pPvrKJO9/2od90cgBT4BsR/r2pv/WDDWF9Mio1RVFZivWJ+YGozLqKW9uhLT2FsEtLLfGCfsfJxvqPclAdg5wEq5+Zn0t7umyQQw10i3mK9mjvtQuQHdSlLXYcSYULPE85L1JXDDFyrE++R8uYGsA9M89+dxVnWhhRhC2tEC+LsHXu7BL1B65evfl3RPiHXOBHgSb/HG/A/C//2ufWgbUvflGfscg5C6FyCdrvcyt7PDHZ0dltj0c5FzAxaIqHY1sOxscggzw0sraQB+Ew3UAqRSqt/vX5Iuwy2yRj797BM42t+avigktBdK/GsdwIhT/z8Tfi88Al4NpJYJjvA37HnXjq92xNi5dYGSW/dpyiQCn9wgPSjW9/cLXt+L1bw1MP2wbfHs+Elsex5vzRXZMf0DUNMsgjnZTyEBb7Amc94EPKw7nM+xuxXMNbqXZslXmuKTs71vam1n2K1HoOBQWKHBfkxQp106xemcq71sK0mjabF8H/DvCzxxYw/+APvL4CbFy64y80xsubRVhvJBDEwJ0ln+9YaXeZu779O3vMHT+RisIfDYDLUd136Y2HH8zY7y+ZfDHl6oucdz+azk9CcMoCYysHc5z9TrWHsPweJd4/sOHii3w38yPNin3FMyWSGgtGHAVuhWLtta3yubKQF//z73v1DeCVn/6Oi48kCOhRM8x14D3XpsVvvVPr11EVEEqWJw3B4XQscWBKTNXtwt6j3H4cH+XMOMyeXemNzKO8Tj3iSljuve73FYF8UGmYd9tuWPTaZf/XJrpAPu+Qq3lfYKmPQcn4IVxrdzPzWi9uGZPReBrFcK4XY2JQJssVmzXn3hzbuTPL9toT2Aruf59HFDX7SADzI3/zNQVW/vXrk5emDX/EdfklQoHhuDeYW+oE002pXMrLbY7CDzLIIIM8OAsdAP+omBqt2WiW2jhGrxExpFCm0+m7Ll+Zbjy5zK98+w/9euH4a3/9W55/qEFAj4phKrDS1P7ctPHfR+lQhVSQgNizOBI0iujc3uQggwwyyCAnjJfnsnqO4e64O9ENFShCwCb+wriJL3il/5DUCuzSsWCYn/pcPAvyzeLVu0wKEKWQKeJg7hRhmaDKpG5L2fmQM3k/fpVhuAZ50Kk2uFvvY3n6Ymt3GNp7qzBvyzgmR/Y4GoYTihLXSCU14oaagwQ8nGI8jr/3s7/hv2VjXV/9nr936Rqw+ZE/eP7oAeYf+qufwIGt66wA7xH0gkuJiKFiuQ1MqgQjEnKhpIV2bwYZZJBBBjm2yJkAs/FUFlVUUbGcd5+7mkhIoGn2fIOfMWclmj/UptMPm2GuCHyYZf+SazfXvzoGLawICFM0TlEBVPDGaYiYpj1M3d5tZLBgD5CGDjLII5izC+4TziJWH2HzgMeUeeKHcPxnz+FwuaeatnFGSFV/ohu4EZoaRQiiBCqcipt1cUHdzrH5xe++/qnmEvBngenDuC59WDf8TT/yMXWhaEzeZs55Q1cdHSGpnmDyTku+gFmKiLeTdXAvDjLIIIOcYKJAVyKv/bfMwUPqhmKEInqoGpPzjcn51bWy+lM/8amHQgYfJsN8tlY5+7kr1YegXGHpVOogIoZSUrjgljqKTAHDsJBqCpYeU8uugTcNMsggB66IF2gYMFjsj00EaDAcYaqpbJ5iKFB5mWiWK+YFDQEvChz08zerD6jotYsXw+8B3gD+2aEHzO//qRSo9K8+d/v8ZKrnjGLkEiqRfimk1MeyK7ors5EaIr4fzLUyXNujV66DHL+55u5Dl53HzS57XVDa6kGSe2wK2jVvtAQlRAkFwujGLbtQBvirP/lqgWPf9aGLdlDXdeCAKaAgeut28d9E1wuTar1yBC+mBBdKF9QU8YBiiEBROCYwxvbuNjIogMUV+yEbu6MeeblQMr/7oRz7xefcIgW99zFmCzU0bw3kwxnm9zgMwoXa5c0G+dgZv63+d7G0d0lqMF2JoC4UtpTnjYAKps5UU6Eb/Akgrl76wrU/qeK//Jue5GcQpsDtQwuY/+aTmxcFVpvm1LmInnE01+GNGILn7ts59CmxzNx1W8S7di/bpsYggwzySBT2MAaDHA6OOduz9F7LzVzg3aX7VpvLL5L6d0zrpZVC/MxnL43fQ3LNfuzQAmY0PiDwjmn9xMsNuu5LimnEdAwecFp2WWSgBLVJKolUpLZeMuwgDDLIIIOcYLhMoiRMCAbqiljZCxmtQSOmNVGMIqyAFbq5tb6+FJrnJ9Or3wz8k0MJmN/84782Eig+96nwpe68bK4VEgiAokRSzQb3SGKd3usPnYfA4zawHGBzkMPAunzxFX7kVdQggxwGoPSeuz590lbkbT8xDPcGwQmkDieCIFpiwujK7fCiBn/tW378UxfBr//QN77wwDmaBwaYAhWweqfRl8zkfWiokIJSLNNlyVUcIk7oiux6L0g4pErXCGGAykEGLDlRAzus+EH6s8Hn3LHaUakUNZvww3CPhFzcILggaAJMWLmxpe+qKn8N7DmQV0jl8w4HYL7yRvhq4Ku2tHyp8bC+HEQRCE0qcyT5RkUMkUikTh25kdSVGyhik0oIZu/1oKcGObms9gTZBI84yu9hBLgMEbUHK22BALEcjGYBccFwTCIuEZFIoRBcIQoSE2qEEtyVTVtmyvTFX/3cnW8Oyk//hZ/4+GVg+pc/9M77jpo9MMA043ngg42E8zXFykhTEJdaTjh1BbG8i5sqzyOem6pqtijkEHYRH2SQQQYZ5HEApkIO9FFm3Us8A6YTBMTy77IdFAqhMWXqJU5zblL7bwvKz4MUQMN8G+VHC5jf9tf+v7PAc79wdfRlm03xoofRKBSB6FMUoaACFywWmDRYSNaBi3UAqaYp8knTjqYNgDnIwDEfy+kWzTsdluggD1tSQGgKAk15FIldIg0udZq05qiFFEiqqdJs7VtEcShLaqe6MZGNjaXJl12/+ubvQvgoD9DV5IEBs7EwAs6Y6XpjYTUUAQkBYt67bG/eWx+0tB/kOOHtC1Dy0AwyyCCHVZEN8vjsn5PkhJOu1E2OdxHDZVbQQGizKiTFyZCqBEEq2O5RNVpRQb0eTc8Bowe5ngcGzM9ePf8ywrcLS8+HUBI0XbiLpeoLoUmGAJ5qzMeQwRLcY2aUmmGyNxPEH4Q5Hwmt44usjAX3dzxvjh/KWxW55wo/Con/j1zHLpLEfpe9sy6+0Nspt0AbKlkAEo9wsubD2y5dYI36Qd/HYXwOejB354ktxvYTtVzQwHEUvATz/B3JgJryMc3Td0tXjIKoBU1dvP8zl0fPg38MeOWRA+aHf/A3FBh9/vWwZsaGi47axdtvQOCz3JHeeMgcu+wcQTLnGxqkNRwWbVZyWM3OgZIcIdYoC021o3yfj+X6B322r6fUeid9zwGUXSiDd77JXrVVFMFMR1PT9bL0tW/5kdfWgNs/9Ccu7JuR3T/DdNlA+MCEpd96Y3P0LhmZVksJ3bHcqwxoxGYT1b3rTzIz9awNku0cuDMsHWZZz5w4uovykALmSavTK34wvMCGJTkA4kMfiOQPMW3/ZfPqxEOnV9ytq/jT97qoe2oVGYTJuFzbmpRrF89NfjfEi+D/G3DtkQHmrc16FeElaM7n4rBD6+d9KcQFJpgfl3v1QeEccv00DP8gR3sm+Y73c+xUHAI0zfTCmzfG0yL4yp/5sY/fdPfme//YS48CMKcXROTbRbdGYWkJD/dDLuQoEJFHgZrDGhpkeESDDLInQvg9Z6/s+TsjlFAUMJ5ufu3la1t2+pT8vbMbYROR6+zDabJvwPzQ975agFy8essujGuqmlAQHJT5oJ1BBhlsh0cAdH6wIHhAD2JRl/JBJ/z7MJEe4ho92LFdrKON33N2LxISKZKqAdUecC85Bc9eftMbd37xoQImqQTeyy7lC7frsOpFgVTz62zAzEEGOZzW+gAng5wsQyS7Z9UQcSZ1oVMT1pm+u25s3d1/eT9H2zdgXrujFfBbxrF4rtZlREDcGHqMDHIQE3tQBIMMMsg+F/Ee2kN6usVxMUwqEPT21F6sY1yvCi++/x/82vRP/f4XHg5gThspgBcb03NRR4g0qDepOK4MFuwgg9U8yCCDHC5Tuw1IjVLiqtQ2voj7Sgimue7eQm7ZfQHmd/2Pn3vxtZuc/+TV6v1Ri5W6VFSUkC9JHyFPOArK7iQUZF7kMQx1qQcj4iDONxQ4P/zP3BeGsMWUx4PVfPPuGAa4C40qRuD6JDwf4Nw7z8X337jm14BfPHDANJMzChuN6VkTKUxT0VsdOosMcqxFFl6cgxx+I3XwLDycsT1s1YdkDnBz4XZRXJTGdM3wQrBzZounIe8LMF+/vPxHJq5nZemUukAjNQWOSAFu2xp+HiI+fhj164lyiMgxURgLjMKgiwc5pp6CxY65eC6+P4L7aKsDGBBF8eCghhcVmFdvvL75R4P4K8DPHBhg/vkf/6wCvPJpORuRM4hmHWgzhehDDN6RBvlBBhlkkGOvcjOEioK4NpEzBjf/3I9+qgDsv/tj77AHAsw/9+OfAdgAiqu3w1eY6Fq5VihiCFNwwXNtOxEZ3B2L0o0TNEzDnBhksDMHeRzSdjFJPZghWoMbFFISVPTq7fKlID6C+l3AdeCzDwSYm1OoG18DVhqXypP/FXFHJRfIdcNFhuTzHUBxeJSLHLsx9Uc+msP8PsEL6hEZjgdeyGEhUDneBot3badBcjOQ1CHMiYiCVzfHdoYFImXvCZhX7wDw24DzW4WsOFJpjAQxRgEMI+Koa6K5gwxyrMBykEGOP3OXBb5ztO8xxcoGUveS4IYajFUJgdWrm/67gX8D/MoDAeadOqDiG8Bbo7qCpZPhqLdWU26s4j6Efj8my/RuE3zR3eX7WTS+wN8/Osva73JN8nAVwUGznwMYj+PXaPjgOmGcJCvTD2jtLbaO/VBNF5eETiKgCsEEMRBLbRMt8bxiqw7nED7/t3/mhgL24a994v4Ac6sJAO8AXqrLqKBUbrg7lUAtENXyXmaiuSJDmsnjcTvsrlP6pYnlPnXGw2rJuRfg3q1q1N1yvXwf1+QHuzYPXNHJAYHmICebPS5k7Mkxaxru85pRFcpCCBNQA7GU1dFU4MLoTl28LHCFWac72zdgfuR/fX0NqH7uk3LRnGeR5HM1E1zA2vxLsVwsIaunBx3bgaTex5DJPYZuZ91/3w494nsvNZ+HXLkrsMn2E+15RbLtA+8lG+/4TOYt3e6erb2msO0ak/dD+hchNneHPtdq9pA9Uz+IeXGcwPOwPSM/8HH1Azua7+Opy4Ln9aM1VbyP94ZZJFAgKCoFItBguIve3tSzReDca5fvXPQU/HPtfhjmKrA2qcOFaFykaJWUJhesgEtsd1CZabUhxeRAn/0CekJc9gCiFi7mF0WXLSVgPXBKjzD/tgdMO2Fle7Nv2cFoZa6WI70UYnZAlW0DxdbAa10q3ba9tJclqLf32hqFARw015xKv0tmnUvcxVyQ3lUcPyZ3tOzOw3K1fuIeSFoJcs/vHF3F6Skw1SJCgYhSaJG/UuNGsTXWM0sl58z9QlY++wfMq5vxBeAF89FqE5UQFERwAo7RYMTW4s8/qfu1POB9DhTzfjmmzsNZD55moNnCVyZmWGf8WJpckqKgpXcc2X4e19z5XHZVObtBZPu36dgyi1jruZNdPV9b7qLuGTBze54+GDs653KV/BvN1yX5t7IrbfPMmg9mp+/heKz8wI5wuE3YR7veF+pnLrb46PrB6bXHk4LlB3he2cdzeDT32vE5F1JRHyHm61QPuCtmgqiduXJn8tXAP2eP9JK7AmZjnAHeDmHkrllNpV3S5JLd357RIA9vEkqP08kcTMwgwbp3s9cWhBzHWmYp3vvLvm6YXYfmzxZz+Unvr7wDTW3pokh3rhZE55lgBszuyqVjwtLGiCOIS+/efdvryZygh9/X8zhc4v6Qvns0vVPHOV1qu9+tJQ7WGdfaxc+KsNJEfzvwsb2Od1fA/MIXb7wEfFBlda0syuzAckzqTOMtX0aR94/kgKz1o/wEH0/Onu1gFL6L4kzTRfP70n0OKKPRY4+SIsp6AJQsMumA0tMHvSvwuS1s615nPFX2iC/QzFTVBAQKQq79mO/L+i7UXFmqZQES8zKYkEo2WnZRt3xTun9D1aPA28H5UDryjrn4YxhBfywP9NHqNX/Mz/NwzK126xAU8exlk94WjQAqhDIQbXzmtd+48tWCf/wPfO/PFg7209/5NXZPwPzun/oc7vDzH795ClgXKJI7YZty7FiNwAGB5aCl7n8o+tzR5uyq/rf6MbMJgvA0qTS7LxRBXQh5kvWffMvitk3J3r+YB7ru05ZNpq4BMkf25v+bJjY9F2z6hyPbQDOxYc+vSAvalnmlZMNOaT0k845mf0wKe5BBTri+eizLbW9/mKgAXtR1XBNhtLI02hfDVBGKxkbqjjYiGJZ3jByVmGx3VwxFTJHFa+4OQPgQQdNaLMmQ2UKEdkE8Pvc5DqFFKANxRbxEKMDL3lRrjSTrQNLFiRiO4WJ5H9TznqgTWwDNABkyIDuagVdQk+6995igdPWJtfMtJY+GAU1mlTHdkibQbAHW0sZoaw6k69b0m4ilf0raQy2GyfYYleb+xn6IbTj8wHT4nINtcGLoUTtHpM76T8EhuhBdmHpJVeqpi0+fOQPcBDbvCZiXL29VyXdVjhwp+o63eabSU2q+3VqXQ7XYjrt7YpY84Tlhd545+V6UlBkdFJ9xUtvlyPPHa8FwBkxzPz47RvsdFc9MMX2mGdxmCUntf71jhy597pz54TbrzD0BqntrBnjvymd7F513JNc8bt3U90rIGeSEWp9z3pMHB/LHURrvpBpenRYQyfow6Yc2kqMlFL4tZBCCClLduDFe3Q6WewLmnTvNeeBFkdWX3MOzLtqz8B10mkBSBLxlIjE7Am14go+RJm9f4N7xwpn7PE2wvBcpkjwEmd0ZQhQlitPotLsPtXngbDMe3fOmuQnmOarVveOifSuvySAeZVYUWbI7QxMpJGraWzCJ2S07AzvNcbGVGcFniG+U+bKKzgDwLngpu22lyZcy7QbGXcBC574dZJD7Wb9DhbPD+/S8LcrgChQ4E4SI0+q2UQJNAZGyKsJ6FWTy4uuvv/k1wD/NLPPugOmuCmiMQmO75aq1Knh72sAgj9ct4T0u1j4ZmfcJJB/mtuemCTx8Fv1sJJeq9Jil4mAJ0KJ5d7Oe6aluK9uzowB86/rdhubuLYimUlWO4KrZxavzHfY6RitdPmaUfozwTi6Mz1iqzCXcDPN2kEGON2z2sgWcmRHdJ3Y5HMJcaKISUHVXdXY2lt4VMM0rEHQ8LZjGgFSZULZ5axKhc6SR3w/K53GCpfSqLAkQO8TULoDGvA2BCajofMQpEChwN6I0NGLUWudsx8Tj3IE4Ts3C62mXe6sCRVCCCoWmV5XMIEUwb90flicmRDOiG00TiebENkqoCqCKa5XuSosE4CK4B4IHoqWo7JbB1u0slNBdr7eul4zRIeeNhjZ4TdvFNDQMGGSQ4wiW0n+Xtw5TrINlDJspbFdoTLBpCaUV0auR43cHzJ/86OsIoj/7L6Zn3HlRtFiLMaA7Sp3N5+sdPOgczv3JQ71v6i3v6tfR2baHJy2AJOdmSxKlK2Bg4AYxIjFS1AbeIG4EMQLOqSp5+ZefUII6o8ooCmFUKWWhlEWgDAkwi5AbjXsCL/MEmNGgjkYdjfEE6toYT4RosFkHogu3pzVmwnQaEVFEQg4IynnAhNaCw8msV5qU9oR1TQEkt6BrU2UkhnTPueG5u2+L9B3k0VqF+xh5P5hmVYuccb/z4W66YT/eWj8BLcz2RQTu29WdDWPZnXeS657jvVBGExpTliWsF+Xy20Ng7ac+eqkAmj/wled3ZZgKFKEozkfjNxOKjViXaf9S5h1ZsuPiHi3DPPC+cQf4oGWBCufufQvkwUW7yjwzZkfmW4mhaa8wSYLWlvmJtM2/DcyQaIRoaG14rHGvKctIqc5b1kZUpfL0mYKyNDaedJZK5fSpgqWlwGgpUBZKUKUqEnC2gBnNMruESR0ZT42bt2E8iVy/KTSN8MbVgrqGS1/com4gbgougSBl5+bwKuCh6PJgkvPYcG0S4Oe99hSZq11EtyJIk6Z8KBTHiFJnU6GNKh48JY/WZbb4OvADPy+HTmcNzdYPalx913THWXrcLEtASNkFBjRWgNpGKJdeLAs2MkZ2wTlzgPlvP3FzBJy7eWfphWmt74vuZzxoV2WlO62nrmImkqskWFbL/sgmwzCxdre+RdtKOtKBlJPa2YQcXKMZSoM0aQ/SatydGKcEnNWi4dSy88QSrK2WrCwv8eQTsFQJb31qhaoUzj4JRXDWRk5QWCqUEAQNQsiArTq/q2jevoKZE6MzbYwmOnemCUiv3FTqxrl0tWIyda5ed7bGDbfuNNy803B7DLcmU+qmIDYpiraoJNfEzduiNgvjUU/VPLoaB9rWKpgxy5Z9D2D5aOHGD/XVDXIcGGuKtDdmMfmtkgh0/b/aKH9RKKA2P3P9Vl2cGsUXfulXb7zm8GlyxOwcYMboFbBRN/7MpPbnDSAoLrFjTW1GXYos6oXx+/7cIoM8BEur/elF/sw6e7S/E0QsB+A0IEa0TdyNuhlTBmc5RNZHwvknlHNnCzbWK55+i7K8LLz1qWWqQjnzhFAorOrMNfEg6m2cTbhrt6GOzutXlfHUeONK5OatCV+8MuWNaw1XbkTGtVE3BWYRFyjLtN+pBAyIeRNBu7jgGbtW2T3laQDLQQY57mZev8uR9oIBpbWYkaCY++p4aqtLZXwmRj/n8OqugHnnpoCI3p6IjmthUghNkb7UL8ItVuA5VNd7pfKOsnF3kIT1cZBfD4IJxGgdUKbcxwQehTjiDRIjHrfAa6y+Ax7ZWDeqUnn7s0+wdirw4jMjNk4pzzxZsroUWC4LqjL1lKtKRQTKkMsi+i7ete69zKOpb8vTlQzuAks5qvbssmAOTy0tYQb1W506LjOp17h8J/LmlvPJ1ya8eSfy65+5znjS8IXL1zAX6rhCESq0WgMpECmINsvTBJAi+UTqZtrtXcx3PDk6DO1hGV0Da3lYumVgv48LLE1SoxCxXDDTihwcmPRjKpcnmMI0wu0pFEGKWzeLUf+5bWOYqghEExpPCtg1bQv1PcGSS6Z1n4gPLtLHrulat6TNTZT8cXbDGuoNZlPcaiRuIURGQVmuAuc2CtZPFzx7fsTGauCZ9ZKRCpXK7irf74IEO6rO+ewVuoLprbRBqyGkN8vFLPK63UBY2TLWJ86dxli5CW9eMe6EyDXGRFNiLBEChc8iYN09BTe1Ezh3Q3GJXVrK4BEZZJCjZ4js20zt6nwmr9Mswax33Zoy56JBNNEYRfsOtDnAPFVtrAIvhtCcmdbOBGcqU0aSAyYsnSZ4kdiBWXLpaUMgpykcWdz0R3xM38ZE+/Vm5qvzzKr2zHfdmHXjgDpv0tWaXkdS5gLqQIzEpoF6C5otnjzdsDIyXnxundOnlN/y7idZGQXe8dZlggqnirzXqdIreZiB2Ntw7CZFqHZlevqujV6akff6cOY+O7NKPbmQXY6knT9O2YFemrHCW0bKmSV420urRIfL7z7NuDZ++WPXuXUn8ssf3+TGbee1N64TpcJkhC4tUxRlroDl3K4nqcpH7nRS5rUgcxmnvivr2l5D97452WFWLHcJTOkqSfvB72IeVAzfSYgyPcwBj4dVTCKNNqin+IrQFKgLJoqJE/NPrbnAiRWURTi/XJYvAr+wO8NsUGBVREazcme+h+NmaOx1EO4vPyC1s6OUr5D7kzq4IRYJYmjhrIyU06eEJ9cKnlgNPHm6ZHlJWV1O4FQtfMb+ueTeNyn3UpzO3Qokh+wDVk1zc42CUXSeWqsoQ8P66QJ3Z6k0anembrhHzLSL9pklkMw2+2VHb5dBBhnkWLDePfXR7p6lWdMHwV2qGP3Ungzz6puT88B/qLb0XFVVTNRoPObOFW1hbHBCynVri7HbrAZoa60/iCXT/b0cX6tIvO0N2W+xNY8tbSFytdl3u4hTZoXOEWhauAlFLhbguEWmt65TEFmWKc88PeK586d577tWedtbR7zznHCqylGtGMKdlKdpqYyUaIWZ93IaU1V/ye1yZpWFMquUgOS2XPPMbLeJua3ixraGve47mYdbShsRTeX03lIVgHL+PRs05nzgfW/htTem/Mt/fYtXLm3x679xizfevM6tTWd0+ilCUUG5nFlSmrFRE2sWbzrXtaI5zWbeXLS5VdfG4e5srDbIIIMcHvbbVSLDujaURorF8Oz10lzqxImoFpRVQazHL3/x6vgC8NPAazsAc+KuwMicAlOCQIERPPWpthxAkjpheucWVhHU59szPRiY+F3pV1fh6MjaPP3+jG0BiNgBYBvbGTwl62vXlzK5Q9vOICae9pm7cZ89B4tTxI1RFVkpnTOnC555uuBtTxc8tRZYWxZKzWDZPjtp9wwzkHlK1GhbfyGyoyErXaF0mQOWNr0DUo4okubJTpfSXg2Epbdges3A2mLKLnN/qQhLwVlbFp55qmDaVEzNMZlQfwy2VwAAIABJREFUlJGp12kv3qpejqpQY6gkY6RoDUDPLcaygdh2XTHtj3UOHvD+M9zDqt3DXLiX9+GhW9v38SXf39EWPuFJCIF4lEb+4yIU+znvw66/24+1Uk/EQ3JLI5NcCSzrXM0YV1he0y5Ep5i6F3sG/VwjpZVMrViROGKFmhU3JAf91xpIoSMxK8KAeqCkyC1T7tXjSxa/VT+AxX+IQTNQgqc94UhN1CmNNtShQa1AKFiNKxReUNWa8iZ9mnzx1YSJGtPSqEVoRFiqC4IrZZNyLu/cuU5VRi6em3LhXMVXffkTPP/0iBffusISmvbu2nr5MT+bqsQxGqkzZE4JqgQJeZN8b6DrR5k2+ZBbTWJyS1ajIqyUee9bZJfyF2HbYsqRvtbuewK54k9sHDcILWgKFAJnSjjzdMk7n17n9TuRS7eNj/7bq3z2jU1+7pducPO2U1KCFGi5RINzBwhqVCEisaFwo6oheMBZwoFNScbMVD0Vp0cpTClcKZlmTm0ZXHWBp+8LLfaDS3VZvELOYt05/NAq7EHuk6TcA7we1/M8iGIPApQWKNHkGRVnq6iz1kmYVdFQWmCJJcQC4gWbtlXVHlcdK+YA869/9LICo3/8M/XKZMq6wcgsVWnR3KGariPmrNNiyKX21DUHUfDAlvPJWmY793275sueQqHNrVfwjtyailnzSxVEtK0GgNRTFOPpdWNlJLz8jtOc2yh5+8aIM8sFBZ4YX58rtArQNbtk08Z4obNcxlbq7KK9sxWJ0bgzbojRmDRG3RhNY4wboTEY14KZU5DcnUuloioUIRAClEGoSqUohOWqJARldSUQVBiV2lswM/dt2w3F2v6dgIQw6x+dJ9lKITy1rLz41mU2VgLXrzlXb0Zeu3ybGAOuaU9TNTeWdumAvK15+/+z92ZPlmXXed9vrb3PuUPeHGvsqp7QQGMiQHCCKVESpZCCGoJ6sMJ+sv8J/xX+C/xsvzrCD4yQHKGwZEqkKYICOEIgAAIg2HPXnJXzHc7Ze/lh7zPczOzurO7sQlX33YhEVWdm3XvuGfZa61vf+j5rzb80h5K6hc+TaIf2LpiDS5bYe7pyfasAt1qf4YSgUyfpoWidibzLRoMSBYtCjEJQKUVkuDb2w//tT+4NwWZN5FRgww31al3Zi4Gk3O5N8ZZfXIxakklUFEumv5bgK2eNGtAFstML/PwiglnPe6dITinpS294NlnSWEbVk0qFkVir1hBsMrSgJNUlDQEJBtURTgJfeiGys1Xwr//RdbaHype2y6y5GugcPJqbqIHFPGYBzKEChXRdvRa2j0Ydjfce1czmNe89OOBkXrF3POXwuOLopObkRKlqYb5ILihRqlQFenCqDEvPqBTWRsr2esHayHF9e53hwPPq7TEDLwwKzSILfdgutACpAXUOkIUbYAiusTxxxmYpbA6U2xubqeKNkTu7c37v/31EXSvoENThZJSg7sbQWhvPvM7lRKRRx6oTHO5Csh2LSko+Xe5J09mHrdZqrdYztN8mecyYUdCoaR+RrMHdWFGoKVX+qtGhiepo3W0AW8B9D/DOOw8V2LAwHsfoiWbaBMBocckqynqasm1FlDeYi+SoqzyWFtZu9FuNRKzypljweVZDCHmDxgUEqHN3MIpDzFEGSW4fFonTEyzUfPklZTJy/Iu/v8b62PHiumfoBKtzXtRKyKX+nmG4PAbiJLmYeOmGLR4fLjiaBu48mHMyD7y3O2deG2/dr1nUkYcHNYs6MF0E5gujqgWrHUQlxgJDOHaD1HNVUCIFkVIjA1cxGVaMCtgaH1E64fZVYeDh5atDhgPPzavrTMYlO1sjCucoVHGuRjVSZY/LSnPCoUXqqccu81JRCoFfeWXCa9dHPHwcODiJ/NVPd6msIJxEnBe8T22FmuSMIq4lGlPnDkGyLwtgs0QdEAHWEPNdUiHPJ/lnNVz/PF0rey5e81nD8uyUV7P0ftiOREozrxkB8wZKnN786c/2HoI99ADHxzMFNmIsx2Y+7QvaZzJ2Ly/t/3rvJquH7EmCZQe4NWybmOdbFaJkBqwkE2UJ4LIbRyaaND3F0hxUcwg19XxKDHNevLHBzpbnt39tm4FXNpo9viaL6DtMIlGMikWWPSzbQV5BUOla2wcnNfcfT/lvPz9kd7/ix+8cMV0Yb+xGqiAczDzRkjVOQ9ceiMOLQ7Mv3G7pCcBcDIk1rpqhMeCtZqQ1pUYmborXyI31OYMCXr81ZmMy4JtffoFrO2uMJmNUlNIlaT8was28trY69DlgSuuo4wBE+drtMXWE9w8rHu1X/Pjn7yNVyXxe4GPJQEeYJe53zExgyfB3qKWFYYSAsOhkBhkj2f1ltVZrtZ7hPbeHVnW+uLbkkNvIl0kKnGkjtOrq9GR+07C/9gB37hwosFEtxkMRzXNu0gpUn51ZOW0d1dkkrTLUC2Y82Y+tU893eFMcaYA2YlQaiBjz3Ph2oUAFxuKQOiDzirKeUYY5X/zCkK2NEf/qt7bY2nCsqybFmxBbZYuGmyJqqBo+mzR7hhjK3OB4WvHW+8c82Jvy7v1j3rpzxP3dGfd2ldlC2FusEXCcyJjoFDcZ4EUYSiImqUFhKXyoeBAh+qTxWlmCQBwBsYAScLFO9bZNMQL3ZsfoLPL47yoKB3/55j02N0bcvHHCi9cKbmwXfOXlEVvrBdvDtdxnzUM1cZaEEkI34gICQXAuPSK/9do6R7PAfFrxYLfmT/9yj0U9ZHYUwBfgShYuEQNCUaUkw6Xj9iG5tztzvcnNSJSamFGB88ZhVmu1VlXtL7KqtaWv8/UFZOmYRNJ4mYrj6Gg2eW++twWoB5jPawUpY4xFO2MmH4bQyHMJOz17MEEf7G56kpKVaBp9Q6O2pKpvkg2QG6m6ENBQo7Hm+uaIG9eSrN3mxDGQXkJ1qim83DlVBI/koZVZHXmwN+fteyf8+K093n7/mPu7Mw6nI+rgqQoPWsBoDdShxTB7XzrUDIfhYkDN0hiJCMMcMF20Vtc2OQdECNmSKziiRaaVQQwcnSRBPH00ZTIx7h05juYDTqqS69cGDEbCjhWJaiMxW4iFTkDBNFNtu/zRCbywWTIdBb704oiRn/Hjcp/j4JjVNSIFqEvOLQJ1PnlF7ns0oyTNPDLSn41dJYqrtVrPAzR7kXq0Q5CUug6DWahKyCzZteFGCXxjfiKvniwCKhGn8cxLtIScvpRo0+h5ypvGszTv83FW7AkQKIKYT0HGAK2JBAwhYASXZOKcDrAQWUynuMUJfnrAV14d88WXJvyr35rw6q2SyVhQtVa+TBuIwerOAswpog6VNaIZf3PnhP3jBf/uD37G46PAj96qOKk8h4sSX1zD+wHl9hoD9cSQpfjV5X5olYJGzAFQLFVc0s3pbkwHCEJJkcKkpiSgTt3bxL6WCSjUo3FKJHxCLBYWOKwr3ro/5wd3jylsl9//7ntsj+Gfffs22+sl//TXr1E4oWAAGsCqrtprOgZ1PmwP40L5J1/eZu9WzctX1vn+D4/5z9/ZZ2bKYuHR8RC8Y8oBRsS7GomCrws0DvA2zPT0QK1G0FkrK0GQj3w0L3o/PjtmvJ/dKucyztWzOPN4EU/eX/TxP837wlqmTdOqlCbn7URiLJncRwQTZV6l356sDXVrtOXBUsB06hQYikgZc0R0/RN/iuizFEdXifWTPYhNZSnLg7Vyyu60UztqLD2yvBtJwQcCXgNroyRxt7Ph2Fl37QUJTVIjcqYKkuwBVtcJsT04rtg/XHDn0ZS948iD/cjClJk51lyByhBxA5zzS2ze9FqNNHrzlfznGgYakIUvlCInCiETUFsHVRFi8zmbVqDrbvMQYB5q5nOQOnLfV8ynkYd7C6IJs7kRveC9JtabSBYd6J1NW94MJwNHjHBtu2RzfcaohDp7c4p0oyStw6x01aWaA0J216taRnNa/kIP+LM697YKlqv1md58l9BRax2XTouvNPtztBQfvSu0DZg761e8wAvHlW7N9oTSg/ehVXo5/Z7abEY5uEa5WLF7YWm8z4G4cFuRNArm/VOd5yBdzPBgrup8NKSusdkBL9xQfvVLW/z9b27wa1+ZsDkIafO2RiS9TKMXkpQJRCscHocnmBAj/MEfP+Dh7px/+/+9y+E88MZMEL/G4Op1hjJgS9eQaEhM8ocWa8pG7cdCMqi2lLkFsVRtCcyzJkLqGwrDkNR+nCUvlWBdBSzaQB9JfL3MZuWhzkGXSOmVza0JRqo+D4722Ttc8H/9+30GYvzNnx5ydafk3/zL26yNHTevjlL4NmtnKr0llQ+tcgD0sD5UfvWVIRsD5er1IX/8F8f88G93WdSb1HXJYOgTohvmSBQkKi56XChToqCGuT2CzAl5CLTQSeoZf4Ss49MW2b7oez7LQfCyzseFKpInOLaP/l05VfU9e+fks7+aDTYbQ5icQk+tnQIRDCSwCIGqDqyNJtevbEwWND1MazVim0qGLrNua9izNwCsJNc/MYZuXeLRb0Y3sEHfiIYQUAsMB7C+ply7UrCxpgyKbIxs8YzGmOU6KOnLpozp4KhiOo/cezTn0e6C47ljViUVHdESkQIRl3uQnepOAyV3t1hzezSKuPno2znSdK+E/BGr/BtBGoGh5EFnctb7o4FKlE6CLkqa941aok6oqyTCsHtoiAbuPJiytVmwvpGEEZzLYzvZfk6k8atLz48IOBXGA2Vnw7O1oWxsCIeHdfbWdvnz65LSkfQxAFkGX4Rn84FotHFX6zNUMK2C5SUWn6e9iKzd6cwoY6RsA+bxiYvAyaLyM+8HqPqk/tL2JjXruy5vaybNxmYrZPZjRM507hpv0UTwCW0uJHjzKEIRHRaN+f4eo5HxS6+V/PrXx/wPv7PNhMCa1BAWKWDG3O90aXSktgUOx4AxByFwUEf+4395h5/8bJc//bOag0Motl9FvGdrZyMdg6vT5hqttdwKLl3lacZ6Cxmkj5GdQ0yUKhp1MHCGU0ACgrFfJLEEsWrp5uzbk7ms2tP8Ocj0p4KkYiQ1LESoBAZrNxDn4XBBqAPf++l7FG7BT979G17/4jq/+69u8eLOiFeujQlyTGSBiU+JYb2WCFQLBQcyhBd3Cl68UlAUkWu3HP/29x9zeHeBs5uIOgajUX50kkhE7g4vQenajghpB7uv1mqt1jNYrpxtL6p1HNqUzEcQRV1BVYWrRyeJbuL/1//j3fLH9xjPa25hsoPIEvn2zMufa+O0cmp48oym+dPOVJ7NWVdLQvQxVGDGxiCwPVFevT3gxrZnADgCZnW3iZ/SfHU4YhQOqop3d6e8/XDKm3cX3HksVMU6jD2UQ3AuB4GY4m4CSdt2ZchHWksPWcgssny0uAajiJZHkhJMuXCdkl9zlO191RN+F8uwlXVAySlhwHRjB8uVI+AEm4wIUrEXp7x/WPODnz1ienuCSmRr3RgNigyzgOUnozFFb1lsYmxNHC9eL7l1zVPXgf1ZRYwRQtL9zXLN1JKq1m7cM7u1fICv9vMIf35mt8zVefhcB8xlRbqe3loTMPuuUcmeiRjjTlXFuLMmY4/IWI2daiG/JVHG4lzSKyXBe2LW6YlaQ1bphj6RxtlCzoVsV+v8pUvn8DTHOIULH/OsZnWCErm5XXH7Rsnv/NYm18bKlkC0msiMYEPAZzhV8oC9MNJhCpaHM77z1/f5wz+7y5vvl+weeIYbL+M2R2lMRECybm2sA7UkBR1cCkq1JSmpKh+lzzY5haW/laYUidyKixE1o7LUh5wNE3l05nI1aR3ByWUB+pj7trEJoKFjr4mBywmEAnWVmLjBp8pWbl+lqhe8vTfn7rvH/PS9d/n2N67w8FvX+K2vXGfr+jomx0Ak+rik/SqBLA0U+MKtkhdujXj/zjE3tuF7f3nCbCEEHSdGsCcxfDXjANnxQKJv685uQ7bV5r4Kdqv1rNw7jYJPUw5aQ+qTrE/dPLUx6USLIupRPKEOr82NW8MtrvtHu0eTejGYVFW5EUxKyQPondzdsnNIGgm0FukV+mSCVaB8gqc//yXr8+a2s/W0lMQCYhEXjii98Uuvjbl5peDWurJWJDn8rP0DKLGXtJSags/BouK9B0d856/v8uM3Ztx96KjYpJisEXxJVG3nCQuriNYo2ApBHBZrjJoQ5phFtJHeD9MczBqVoAIvSiGKxthC+IYxjL4bM+nfJbLUDWyFzcWg1nx/58oz5CRDkbZXW1nI8IkSFRhPiFFZVAveuR/w37/HmnqOZ4HXbgwZDQqiaH6vkEi5WbwBM8p8bF9+acL2xoC33nrM4XHk3vFJckrxI6I0lXLsaFumPTvP1aa+WucjcJcd71cJxJPAsOeNPUpDtzjzU2sIQgJ1zXAR0JPj2Y6fzauNUPuNumYnCXy7PMIez0KtZssCfHTmwqtg+aSQbJ8ukyqlmCWAm4pes7GxD0eMPHzr9R2ubha8tOHahCaBoh4zxUwJDczplGiRvXnNm/eO+MM/eZt7eyPuPB4z2NphsL7DSUiBWiRVhD5WLZU6iBLEEWOF1TWxnmKWZOwE0CqkQBGGCA7VAd4VDHyRBdwNl8loY/NZ1q933+SfxYaw1iZhGWptMr6e8EBhSoFASMGqygF+QQEO/GQDWxRU0Xjr3kPuvPOA9fGA4zpyc/tFRoNBO/ISJSRSk7r2qEqEgQhf/8KEk8r43p8/pixq7uyfYOpRGRDEqCS2KY63lLA0AXO1ha3Waj2rgdM+JKQuz0gmeVhFTKlrGVdQVvNqxwdzGsxpiC5VFCZLmnvn/s1OBc3eW67WxfKdltrTGpnSVkuuKeqrBRoXvHajZHOifPNLY8aDJMPejD+m6tLjMFQCXlMFdbCI7B0u+Ld/+A7v3V/w/v1NFrLJeH0b8SMwQ22exQZST27uKpL/icfqini0wOsUp3OubNUMy2RE7VQYuSExwuzYmM5r9g/mnMyFxycC5RBxnuiLJCUXk0vkON+UkWTPZZJlAKVjl0qMHdPUwKE9haKKIBA02WwVkrqmPpRtGiLm8IMCoSQw5q9+Gnjzvftsj9d54eqIr7+8hlchSGo1pIFVQfB5xgW2CmHNwS9/bY3dg5ofvfuYIAVzGxEQKlVUkiVQY0rbV/9ZwZ6fDoPzWT621TX/lAqLyxytohtno9cW0qUyJqFc1puTtyiYKTFq9IZL/2HawoKNNJ6dESbIlaTJcuEpK/31J6kt6ZltS7ZMa0YrIj2Z+xgg1GxvJmGC29dKvFq2owKJuRcnikqVXk/TNZoHY39a84O/eczjQ2X/aIQfTxhMtggiRDPUqizDVyfJ1XwHFHisCrhFRennFH7OtRGsj+H2FaF0jrXRkFBHDg4W7B3W1PM503lkWkUoBFEhOg8qrM2TtmyZb9rQMy7L7pMd2ceWfVWddS0Bk5iF42tMsgk3CjEFzuRp6XC+SMSlqLz/4B537x7x1r0pUZWvv7SWAqWk90p9+t44lcLICUMn3L45YLTmUDcnWCRYSJV3rkpFLI+99pWwVg9CswmvAtNqPatFS3NnKv1JTKOvd9I6ZkbNeukObyLRVCKNnZHk3kwue6yH75rGvDGFjpCRfcbOxITV+vCgadp6sUm2kyJDlNViQawDLw5r1lzkn/3mNbbXHUNNl7WK6fw7VSQmlQApHKhSi7CoIv/nv3+bh/s1P3jHE3UEO9cxVxJUINa4YAxzJnVAmtET79C6gsPHbBTC1W3lq6+PePn2Bl/9QsnmumNjoDgVvChmRhUC+yeR9/Zqfv7+CW/cnfKT9yseHS7YPR5TR4cMykSxcZLdRJKSVGGS+oFZtzXS5WLaVpXpftSYCDcxgokjZCEEwXBxnn5TUh83mCJuDTceUwVHiMf8wfcesrX2gNdeKNgYF9zeHLbiRIYRY0RcnvrMT9Q3XklC7V//Qsn+VPn+3UOsGGLFMFXoEbw5CpOc6nDKQGgVNFfr6eBVF//J+ZXX5e1scinvK5d0Hk7/mjNyMzkZNkSpEYHaikzgy5idCamciNQucTdqRT3tcHpPBmzpg0s7wtnSblv0qSOo2OcuSsql3Fj9c9ioBESLhBgoBsawEK5ulWytJzZqA4JLYzbdr29ECBEWtfH+gxm7h4HjuaKlx48HIK6VyhOLqKaA2YyMaFa5kLhg4BxbI8+NLcdL10teuj5kc90x9qCSbiozI+BYm0Vk4Dipao6rmvf3ZhzPkiMJMSnuND6cXUbX/Z2smattwFm23hFLc45mGaJpyEDt68Tc+6W1ghVRRBXTIVEjj/cPqeYVh9MK55qKcpnRar0RFjFYHyX4eXPN5ccr5CCQehtiEc0s31VoWK1naguy52BbtKd7TNKTyGzHJsUykZVurtrSHicdettUn+pnYV4GKGN2xxAJaEx2U5IZGUFqEKOWkDf1kDb66NPvoa2zxmWciWc7M/2kTi3NZ/N5ZtGnYFJDpRAsUtfHhOqEr/3ymBd3hnz91ZLJ0CGSuJkVRa68IoUaPmvDAvw/f3KPR3sV/+m7Uyo8fuc2tSqHRaS0SBkrRhLwZiyiIyDMB+M0b7j7kKvDyLdfG/Gt1yf809/YZmdD2Rg7vEswsrRDS9lvUowrQ9gaCK9f2aD+5iY/uVvx8DDw+9+Zsrsf+O5buywiTEUptWC7XE/h0PphMwm3L1hkeDpkBTtBHcQomHkIyWszGThPgYjplNb9UgqEMYZjEQU33qQYTXh0dMDjaeR//70fcWVrwP/yP/06pRO2SkeIgVpqUMFEGFQeicraQCgHjv/+n7zE2w8W/OT+fU7Cgscncwp1lDqgIOJJYvJJI/jpJY6fhozaZcGoMcYLHtPlwlIXOf7nXmy8LWzsQ07bEzBzL/OW1QtugY1Z80dfrE9++AZqaZDPR3K1uEgjb1olk4tY4E0Z1GlEzAdLiKpGFrIgUnMSF2XmiFjW3bT2BpZWE+204HqzWfZry5UK++XAtLmnRvKrHI+EyZqj8Ip3XWWV5mQ76BCyPmuAvcOK3YMF8zqxXEt1WdzcmsvW3mRm1ujeAYa3yMDB9oZna92zOXGMB0lbuHk4W3KLLd+wKoIvBMOxtZaITNe2HE5g44GwqI2jRUBRotWJWWquneu1nAx0G0FvuNhSIGsF1S3NbIrJ8udp/F/bU5nvYXGYOKJ59g5nOKcczQLjQmHgWoMBy/e39TZzBTbGnvVxZFgK1QKYxyyEf/mjAqu1Wp96zv6LrjDtPH7M0zg0OaVk2cyUCJ3MgPSQJmt5CRFDFPXbG0V5vBA/nQYqF4iDmDYjTcMNKkrHu8iUlHZTy6Mn9ovEAJ5+fncpVTSLpJzjIIoj+gGxqrFZzWYRGY6Mb3x5jddfHFL4fBc2pz8bfCdt1XQ97u0tOFkE/tOf3+X+bkWx9hJeHepKaiIxhnYqSAVUBaJhFijDDJXAC5MFX7o95H/8Fy9wbV24se0IYcEi1K1pircBYtpJ/uR7wTTJ5OHgtasFXCl4+eaQWTC+8l1h/7DiD7/7kOP5nHt7h1CsYeUG6ADUtSIYjtQvkFhl2NQTcQQpEwwrilqNZkcdMQUb5lwi/W6UNMZSZzUgJ0I5uYrYgr9584jJqOY/fm+XF68M+N1v76CqlOqpLRAbw4H88ZwK33hpjY2R55uvrfH2A7j/+IRYltSuTOIMZoiTZ57ksuoprtanfo894038eEZfp9PEVhqNgZ4voMC8SgI+W2uFejOue8fOsoJ7ExC6NEDoWV/2hML7su2rx/FJYZXMFpUsQ0dyBhmXyubIsTFUJgNNnpbWFfiNHU1zsWvg/v6MR4cLDufCSe1APZLNkPvQV5/E1VZncYFT4+qG58q6Y2OkDEtaf0tZuv65yyh6pjpu9N9Fku7cIMO4t3c8GwPhy6+ssXcUCMw5CcZRPSeGxNJ2WQUoVc+aEzVt50I79CMxdZILSSsi2DUbeplFOo5EE08GYx7cmIBw58GCUoT945rCw3DQO6PtUGViw6pA6YQrGwV7RxFPjRCSZ6mcflJW6xcZ7D+KnbtKGj71C3VRW5aPLEsue/LCzpMhtQ8uiU7XpopteEH/8bDQHbOS1DHqVFcsEy20h8aKWLY2plVy6b+sfcYfyCeCAM65cVr4WtJwRSWBKEbQIWaRIgRe3i545brjy9cHvLpTNtaQbeFTNJCkOBbAAvijHz7gR2/t88aeZzYfMBmPU/AJEZEkIiCWrmdy06R1ItHpAaOB8JtfXeeV6wWv32zoNwEnlgb883vHLG7g/CgdU+jIS8TsgekCSGTL1wD8829tUEXh29/Y5u17J/yH797jp+9W/OCNPRYSqGXEYDjEOYeKRwHnHNGgimlUssZQjTgFsTlqAYup/6mxzOfW0QyuiApOJTuiGGpl+hq9zMJq/vN39vjSSyO++vKEm9sFX7g5wKjT5859DWGImOAFNoaeb39lC88x3//r42RnZkadE5PGhOB8reXV+uh9057pZ3m1PtZF/di/JlyuHE4TqVKbJVeV1uHDkr/RCPE05Na0hzsALbT6mp8vwlYdZANVUF0+QvvwQ7bPITf28qJp92c0YxFqPIHCBXbWHbevFgy9JHhyydh0+ZwfTQP788CdvZo7j2sqmRC8B3Hp92KNJmOO9iaMuSqNuXrzDkoPV9aVzbHrXeBOcxWL3Q3WM5BOugLWeqem9+wrRaXkQIFJ4bi56fm1L2+wMakYDRe8uys8Ppozj4FYCbVq1jx2uRqWtobU7I9pubqTxpuzq8+XIBWjtdMhZnhWfYGZcjJV9k4Cb9w5wOsar94c9HLJeOqJFryDaxueKxNlYxQ5JjKNMbuFJQ5AQqf1qRJ/VutzCU91em6r9eTnrm25LKOqfSWyZdxIMjRbj/18Hq/WdZyoyxCeKr2m5Sk5vLObfdfDXG0ST7Q0m0JJJERjVlWsUTMsA7euDHj99pDJQPDNMEY7W5+qxQYk3TuuePvxgjfuzfn5vYqZTmAwAPGA4UL15aIVAAAgAElEQVTa/MseRbrOgSjkbGrgjfEAXrxacGXDdb9oWaRPhBCrTBLqHz9psMkiMdbJbNoAq/N9kwOPVjiEnZFnczTg1vUBr99d8IXbc/7kv+3zs3emvPsoMKugKiaIOvBFjseaKk4MsrauETAN7fE1jZP0aZK4gaklZ5KcJYbcvCiHIywEDg8c9w8j/+3njxgP4Ne+spn6o+IgLnKwbAZhoCyEl6+W3Nl2XFuPxFnkeB4zpE7W/SW7llzOZNtq8P+zhU5dGoM3B8vnXyTDLlBRXPJ7WQ9aowuamqtMsWbaozcEp2kvnM3rHT+fB18F9U0/LPbsgM8KB+kSttzCtvJpfcjn6QJf9GJn+pQ11Z7DohDryGAYuLIWeOGK8tINz6DoZztnMQoD7j2a8uM3D7h/YBzOC/zaEHVl1luNlJL4OZEEbQYsCZCLUodUNZYiqMCoSMFzKdFqH3YHYgQSCezx/gmqwmR9kAKaeMQFsJAFYoGY5cy1CcIhybSLcHNdGbw8YL3c4Fuvj/mLnx7w+Kjm+28dsgjCyUmNU8e4nKAmeEuCBYZQiea2QKrqCs2uLk1vs+1xxhxuO2H72pIikh8NWMiCN+8dcfvmlLtHczYHylrhOweetvFb4RE2i4IbGwVfenmD6k7g4XHAXCSiCbSRZzvpX0GVq/WMoLHPRJHZCshwmruT5zMlEkVbvsh8HkpfV1FDNE06mt1gvGVzwlbQoAWsOnoup362WhcNpdaaRBuaRnpiClaba5Erm8L1bU9ZVJznlIloC4bvHS54+84R+8fGtC5Y1xJ1AyRUKEahSeYwSB4dMoiZBR1CLy0SGBRQ+N6R9sdQNM0x1UCIkf3jBd4rw/USL0IhnexAFzCLBrPNrxNbU+gra44ra56dTcdxbVRhxr3Hxk/eOyQGY75QClcipeSAmYBSM2EuLonM57tV1XoqtZkEbgGyEpCi1A3YasnM2g9KagncfTznwcGCx9OKoRswKXyqjEV7mspJqH2tKNieeF68scZ7+1MkzhLTOE06t+Okq7Vaq/VJC4tPL1h2dg59qVfpmI3SBEzpOXMJdR29ny1suMDKxjDYqDGLiV6fDAAzlGBdtdmbxWuK16edWPwismW7cJVpy+ep/5P8rTo2oyEeCTVFNWNrYLx6w3N9XdkowYvLGgGN/mwHIxxMa+7tV/zsnTk/e6Mi1uusD0tKBI0BRxq9IOaRkJihTW2YtcbCkrxdKY6a7H3ZMrxi/go5MUrBzyxJ7/3BH71BHYwKxws31/nlb9xiZ03ZWSsRZ4gzLOTqrrlJshW16pyk5xdYLzxjr/zOt7aYVXDz6oiDk8Afff+Ek2nNnfsPMQpqBogvEV/gGCWRDU0BsgpZR9fRurc4c6hZCym7fEliUqxHCiXUyu6x570HgR//7SHDLwhXRkWGs+nu7JjhGQcba56vvDrmvUeRv3unYk5SVwp6no/7qiJcVdqfu7N7OQHzUq9RTyFNpNdlPCUc2zOTjy3WKjh1iClVsNJHS7681jJc879sh+hPv3j/gxpLwXq1LnDzNAytBlDUhKHHyMAJ62NlWAilQmaUdPCBdtX8ok7i6gcnkYMjw6yk8MMeOcZardpGHzUxa7u5o6bKbb04RZbvYbE2cAq+/UjRjHsPjpjNI3tTqKLy0hdqhkXB1ig5ebRKAo0mXv7MkqHZVKvWFAKF89zaGRHN8eCkYv848LM3Z+xr5F6c5xaBQ6zI0lU+t1BDtvlKbFxtUZD0PmrLSSN9VESTm/oiKMczY++gYr6IbQXfQMhtPz+fl9ILW+uetYFj6JQqCsFkKUldrdX62Fv7Rfqcq8324xe07bPc/492aI7zuouSzUii4X1SQHE9TmPaSkViB8fm3UCsCara/a41OghdgJDVtvGB4bLJbqP6XMhJUthhzo1JyWsvDNgY5w07nHoR7Xbk3b0Ff/XjXd56v2bvcIQMRwzcMIU/C4hU2dw7Jn3VvKk3huDp9zxmQqBItlUusVS7O8ZhVMAiX2FFZIiIEtxV9mcL/sv3dvnLnzzmj390xFe+NObLXxzzG1+/ya1rEzY0D3o04gahmd9VRDwqgtUkJq+LqAi/9uKEOsLXbq3zcL/iP//VAe8+mPHDN3bZP3QcPFbKchvvB7hhAXl0pDmXmmO8muCi4LLAgeWTKdkaLJmIDRB/hUcHNd//yT4vXR1y68aQSeEoVHOSK4j49glaGymv3hBevlJwa3PIG/s1x7MFVnhEhMHqtl+t1foUqtFP9j4mPScS66A+bVn41hUaOf6lFqURRLNOdYE/HWH7H8POHeE8XUqvsp2PdZvkCsyy6LgXo3AwLBWnH45gGFCFyNG0ZrEwYjOPKArUp7GC/HfpwRynx4U6Uox9IFzSGwQVQBwRx3SuxBND9yq29xZsPlYeH1WsT2qGhaMQSapC1hfz13x3KQ2u38j8DX3uz7pEFLq+5TmZOyZrMJtHptOIUqNZx5gomZsj2XqbJSedzhYg0jmRNHdxUhKqQ+BkFplXRhUM8+elpOnfOIGBl/ylOSnpev4rGHK1Prf72nN3i3X9SzmzIy7vkynGivrU1VJt9DSjGM1kSZJOS3CcIGjU9Pq6vJFItveyC0AGn3eqvPbg0EjA6jkjaq6N4NZGwStXx0yGRXfVpEMIm6JzBjw4qvjJW4c8PBgTZEhBgkJjZoHW1KhApUpAqc0RJOTraSiRwpI+q8YUSGL+6p6AZpbFt0GnDcLjAjf3rN1Yw7xxaJH/+qNH/NEP3uU739/l2nbJv/nt17i2OeLXXlnHa2LLBhwLfEvh9iopQQiSPlyV4s7aAMbbBf/zP77CnZPAT/eu8cOf7PPzN4/5+U922d8LTA9LDGU0uZICuJQ5pmv2GbVuGLl1Nykyj0cTa9c7jhfGOw9PeONuzfWrFV+/5SjHtP4nHRQeGDihdMrNdXj1ivHm4ynVYo7ErSxZeDmw7CrAfRYDil3aPr8KhheuLds/W826rEOd9sEsymKdpnZqUoWMREWwIosdKL6tTo1TdYldpETiF9nAtGf3/vrIFXNlEi0gEhlo6o+Vvqkwc9Vip6zWDBYB5hXMKyG0eUu/C229oCztV4fTp/6mZtZs+m/5kLN3Vu05zTsaUbOerRZEHRDiiKOZwx/Ce/enzKaRlzcKykLZmJSYSFIOyvdOystsaSyqCdbJ81MYemFrqNzYLJhfKzl6WFMqPDgM1DFShwqTmHRpc9We6D2xJ+/Xuag3sLBlmDmaUgdhXhnTeSAsZQ2y9Lg13ymcMSwNdQkDjmJtD3WFvHwOgtZqfaoQ62Wq/HzoEdpZxHQ5DjbC7AIm6o38pdrKtTXD363OismpolV77/Z0efR9tVDrPQAfdnLlqVoufdTNI7lWqYkEQn2MK+GFzTSbeH29ZFjk+jP327w1FZ5nURt3DuHugXBvz3OycIhP1aUSqDNWv9BEGArRE9BsCZYCR2EVPns5WlRELJkg21mep+DzrBJLzfJgC2pgqooUI9xoBxluMOBF3t29zzv3Tnj/nTcZ+ci9f3KDnY0hv/OPvkDpYL0UgiTz6Gg1wSLOpVlQMrxMlX1aC7g6cFwbOr55dYeKHb732mPuPpzzH/74LvtHgbcePCJKgUwGOXi7XKpWGHVWS0qvWzPMozwDIiHPoy44qQY8eBx4+96Ur74wAHwu7a1HLY+tbu3mxHj5RmT8dg2ups66tafB3M9z0Lns524V7J79YHhZhKRlFfOPf180VmhnS0A5A8umgiSrEYh1X6RJkRhVfULhLHacyfMOcbmPI0vh357gdK7W2VOb9FGHA2FQJom6pocZMyzQt1oOEY5O6txzU2qTTLTtyFeWR4SkV132zZubVqRaQ39JhtJnr/nZGVs5LzmTprZNcym+WEPUEYjMLfDzdxfcH0c2Nx+wMfa8+sKItZFnslbSucjV6Q6ULHiuiWgjrd5j6gR4geubBQMnfOMrWxycBOYSmdfK7vQkBUstQWqMmkiVvTVdriZbuY28qScYugowXQSOp9VShdmlhMvBsCyE8Ugpi3S9QqMSv1qr9ZxVc5/fMycf8JOO5NryIDLb1UexaBDTnF/CdJsvyVBfw3KUXGlYlv9qDIUte4qZPbsQ6LN0tdr0Qwysxjthc0PZmEQmw+4ExlyF9gck6zry8PGc3YPI4dQTnCA+mZ3GbIBsrfsJIKmHGUWWgFW1ZKWFKcSIWxphyVmR5p9n38oGW3D0CNhOMRViZr4KymDk8RKpjkuqUPGHf3GfQo0f/u0eL94c8Tv/4CZfuDnha2tl9hoTFlQEIjF/1kJdEnKPtKMd3qWvX3ppDCgvvLjJ4Tyy0Ls8Pqj57vcfgy/Br2NaY1oRmAM1YmmONMZhJysmRnY5Y7aA/aOKh48DiyrS4wa1HPBOagLGQ8eVbc/aSBgUxjQmYYjVdrZan36QW91dT16xntdwlM7p6HSv05JjkkPzeFqqNr2JDbFYaqzwIgyiQy0FzAjUElEJ3YsbufvTOG6ETNlXLmK3/UlRlf6WJBe8eS4LyrmMWrqtbKIili6Id1CMBVdITxSYHICWa/5oxmwWmM8j8yop9qi67BwTsyWV4HJP0lnMknYZyM6C6qnqbPqPqQcnPchx6Vh7iEJ7w0mePbR0vzgCQshZWUjnvByBDZg5YUHk7ekxR/fBfe8Br71wzL17J7z64oSrOyPKssRro4EkWKxoerbSm1dNwq3poLZKY+Tg7/3yOg8fV7z//pSTReTR8QzxoKUjiM8M4YLkbNLJ3ZkYpnX+gI7FQpieKPOQHGDK0/BQLwF1TihLZegcI9XkqgJJv/aZ29TynXtJmexFnie5qEygXTzBvogX0rMbSi5TLP2iYOXTjfeX2Xfsy69+skApvddpaTxoJqpqlF4siwQl7YtRcKaUIriYJw804hGGYENnNYJjGItuxEAsSaoRUmka5ZT9V7/fmc29PkSI/XLB22Wfx6cRMC8p1UkgqynElMV4B+VYcANZGvgXfNJC7X3IGI35LDBfGPOglDi8c+3MULKqUbQJmBnW1WzvleXbMRyhUb+TVJ02ogdnMpzT35JkFm2aLLWSPmzshBKa810OMREWowkh1Ow+Nh6eTHl49xHvvnDM7sNj1N9mvDai9CVeFZhjZlQWeidMewFTsyKBsT1IpKb/7psb3Hs45y++/4iHe8ajRzN0WKJFQaQgigNcSvmsGSlpHpCQWpXiqCthOhWqKNQkbaOWdJ4JUm1h7YVB6Rh5ZewcJ3XqheTn8NlCWeTULnRZu9knDVx2MRunJ5Kqfqb7nPb0Xkae/qHLLyhjuUivvKPudYrpaT9oCoA6x7ssKmOKM8W3ATMgzqIHuSWg2tgTBSEgRM02vWK5HkkC2OnkJfUXs5CcIVoLKjlV/K7WB17AkDIYEaVwUAzB+eWbU3EJ/u6dyxjg6NCYZoUdb9o5zPQM17ShTWf2pmRVnPTy2lpZGobTZqjXzlSScgbb7/08IcrgyDJ0IdtvpfsgWpY7sHQMw8k2GifExYh3DuY8/tGce/t3eeHPH/ErX9lke6Pk139pi7JQvPp8eweCGdEWqDicuLan0GSfW5TIyPP3fvUaf/fWjHfffUwdHfXCMF+A69UmEhFLg8qRSLSQVfs8VW3M5sZsYcwXxrDIbYlMO1fpEkanii8cZeEZFB6pZHXLf+r13qrZ84s69c87ia3bz5pPkVgdao2DbvqN0MIjuYAwcBZQghrxuheRSQL2aP0HrYmycppQ3+f6dOSJlS/mx0zSTXCS5hCdX563TJBsM4gflhLoqkoklWiNnJ0msfFTQESTvpwmcvXHKtJhpIApHwB6y4dtW62eQcYlJGLNXK41CsTZjnkwgpD8KA+nB+weT6nmR9y5Y2yMHdd3BnzrK9sUXpFEmU1JmwWCJbjYJJtUGxnZgJEYoVBevrnG4YFRqmWNWcOcAh5aPSBrVQat78ojjmCBujbqYNTROmi8SWCkR3xTwTnFuVThC6uA+bQK5ecTkl2d/08tGJo9ASN7+Qi7uXjrBICsP6vZQ96MsQ/RajNTTEojCRecDpCdOqedcwovW3L64ifpuU53YuoZOjG8E4alo/D6ARe3+6whwPFxoJoLKkW23ZJeI7sTOFz+l6evny0Tne0TfJgGrszv07ycywFzM6ToKbEiiDAvxqgf4CfbPJgd8uBoyuPvHjPyR7xxf87Gmucf/+ZN1oaOl68NQFzOAWtqKjxlhrRTl9GcUHp47XbB7MTz2iuO9/fg6HGF6RBjQNQFiOF0kVKFmPq3Ig5UkcIRwjHz2Zz5bMZ8Jlg5yubTZ/WUnVPKsmAwcJRDxQ7rrLhUPpeVUHv5nkGmr30WnvnnvWB9xs/9hx5fQ1o9NXHQ3/oaU0vJrcb0KGTxdcnexSZj322dvcBnfCAgfe7gpwgruOTjgQSSxypU5cJZUozZn1lOw+DPXtYtRlbHAItGVEE0VWSinsV8Rm01j44XFATevT9jc+LZP64xM+q6yPZZPTabnUrWsirdqBRGA2E0Eoojek4vDSGtaSX0z0rDBu9EFGI0YneSz/9cWfJPNEv/sRLFXq3V+mzVy2f+jfrQGJNIW/gklTLp6gWXo7fF7DuoHVRrzeCnXbRcWQXW/natajgnFAOHNhVmj/ucYkOdf9thFglRiOZBhGBGVcdOCbbpZWb5JhNbxu/77ief4qdL756yuRjGmRKW+971DFMjasQ21hAmHIQdiMa/+9F9vC34zg//nCvrwj/8WsEXX7rKb37rVdZGntGoaAUr2parJYLOFQ/X15SXbw04mIHeNwKeYCVRAiaCbzq4EjLQ4miM0kMUFnWkqgNVVXfXSBrKQENuU1SFooDCgdc0x9poF3xU3nOZ2frnXWrynJP7lPddeUZPwyp5+6Do0zcHaax7O8fKsxQ000YxzaI/H/g7p4i8QABYPbqf7ErKBSrSM//I7KPryk/52Tkt6X56DKOhhLWjKL1/Jc2mI4op1KaYKSezyKgQTqaB+SISQ5bxa6XvTn8waY2wVaTVkr1Ql71NTuxCKd/yPmm9XvHqCVit1Xrei5izMa1DUH20RMmImmbeYm9WvJMUSrm1+4Do2CrKXmCnWSXE52eC8kFB9ByGjWQ1nGhZxccMlyHdGOT8q/6J+pQfvGLWpI3RWtO35v4KmTF7oqkycy4Hr1yKOYxgkb5m42B9gsaak8M9ihPjwUPjxlagmtaEwmGlTxW3xkQZTjVgW4FjIHVEYrLoiVJTa925iZgjzaNmOlIULAIx9iZoOsV7ac00m69OMVbJozoWUYrslbLKHldrtZ61MHi+J0n/t3Kkk47lryZEk8RxkJT4+2UE8PxeWP/5P4O8rjaGSwmaMdpZGOW8XnI2gW69SrsyjafdrVzqBfbefjk2G1EWCJLHWCIBTZZYJliM6ZfrBWKRNa3wLvLS7XV21oQvf9Fz64V1yqFHnSROSis0X+X3aCYmHRaNugqEkG23iCRJgcbFugl12VgbyaIPjfqStF/LQM7ydTBbLu5tifj0DO8d8pEX9Hl+kFbHtlqf4PGw06BT9/fMGfEmaTDcLElUxyym0szlSW4UmZEIG0gegKcd+oxyTmn0Ga4GLy/n6S5UCIF4Rs9VT21ySSjdeUU0goWOMPQE739RipbIByAC1p0Ly7CCqmSLnPwOJogmUlPUg/Q954lRqUKZPlv02HwGdY1OD5FQ8cK1mvWx41//o1e4vl3w27+xgQoUkmY+60iaLVUDDklm5+sZ/ygIdeTkqKJapAocqRGt8vgNiLnWWiwRdzQzw5OBtVNF81d3vhr/zuXJ1NjPTM2ITRAV+9AN8un1HaW3Wef5mOd6mM6e62O+rP3jQoP6T3CPfR76nXLuDij0bDyWAmXyuNU8spdt+8T1DKStl4B/YDL6ySUJPu/NaOsFIxoIPEBVpT7d+TnPsvi504BKxKzKAcDxpJirXfgH51h7SfdANn/GGBMXVfpm0SmQiMbevu2TRG0IWAgMbEEhgZs3S8aF59tfLZmMlF96ZchkrBSSxA+CSfZhpWWzGjUQKUni5wczY/fIeLAbOJ5qkg2UiEmdHVd63q2WJfgswbNiEc2zld47vHftZ+v3NptPFkKkqiJVZSwqywFZ2kdJnsF7blXkrIL45/0SLdkYnjERaRLfZdZDtGavFrzgMptR4SPVWa3d7fsbeTOn+TTZgc99xpNhVItCjFDXRgh2NkYJvWujiAS8j6jWYDVigjN3ikzz0fShj/7B+T6Y3fErqjlgSu5lKohq1/JrsjcJS8HfG4SqJkxrxmXFWhH4lZeGXN1Ufve3t5mMlFtXPCJJg6M2YUGCocWnnq0ANUmyqhCog/Ho2Lh/ELnzIHIcNAkLaACpUCuybGCBtJzhDINnST+nSlF4isJRFP6c/nH3jRAii0XNogpUdX68VFdditVarWcxWeRU0LQP/v0GPWp23dbLyxRvfU7tuW/0QQxDOVsL9d2oV+sDoYHG3hgiVTAWNcxmSWWmvyIx9+E6Aoo6WFszhsOIczViigXt5TtPAMU0MGPDEn2Cy9bv2UmGMiWTaSz2BNoRopVgEVtUaKgpFnN2BrB1VfjqqyNuXSv51S+XbK8rN7YdhQeTeR5DqQGlwAEezGHRY0ScTgBjxoD9eeS//vUuf/f2jN0TR+VLXDFIQ8eWxllSUueQTJbqbLYDWKDwMBo4hqVjWGoehbEz9tEChLpmNlswm9fM5gHE4dTzLIqur9ZqfbYryI/ww6QjscoSEJd5DpIry8b7tt+6sCY8Joa/74beT3W25NS4gHxAmSQfTMZdrfMCpixlMhjU0ahrlnwYkd5QRM/AWQWGQyhLQzUxQTt658c97/2742JBf2nwn9QLlD5N2nJlLGD4FLSqORICvlqwMXbc2ij4+svrfOmVMd/8YsHGJMOlRIwq/1mnuUexbC7tqNEMsY5AjAUFx4uKv33niPfvB44WDnUe9SWqIRN/end5+wBIlylYxCuUhVIWuqS6dJ5/XohGXddUdaSqE3NZ1a3u/BX0uVrPalrYFnRnJwlOm0v3RWFoWzOCD5Ky7SAp146NhqzQZuDxHKj2TB15gRbayqm9W0FiEiEIgdkC9vaF2TSV/0hzxtNmLzboRL+9sr41ZG0SKQcBrxG1gGVbr6Tx2yjc5M/etBWtH8xsSRzBnvAOtayiI00VGdOYRx0D4nwykA4hKefMDlAi227KtSsFv/H6Jq+/OOKXvzhhe90zGTnGowDU1Fa3UKkgOB1kKDV/iGgUKuCESobM68i/+4v3uf94wR/84D6LekwYX8V8gVGgcYFmlmwiHFeZDZ7GS5SaaDUhVAwGJRsbBSMnDKAz1e5UJtpTUNU1J/OuwowqRGlUc+2Zuh+NixjV2hPFpV+EYMLTPG/PMmnmst/vWdwfpV+UXf6rngPD9qrL5imWxK/3IogkKU1vvbS73WQ/InavQNdLuGbWYeUhkirMcPok92d3pL1/isLhiqaHaKcoQU8bmOsYugmmtRTc8lyvGRBqVCKDMrI+hNvXCl55YcAXXxpROHAKZAJPzELzncGrO/PJGq/FGJU6GO/vTrn/eMHDwwUiA9QXmHqSpVd2N8lVZsxqPZ0Ndr4KFnG5wvQqrf7PB1gPYGaEGAkxjwTp6Z7v6glZrdV6Lvfntq5oxs46Qp83k6Ue5TI8e1rn4Jytwz46gq/WOdFLu0SlqmFvVzjYF46PYDA0ijKChK7KyavwypUrAzY354zGkVgZ1JY9HXPQWrryZ5OgVlruFDpwIYWb/H8qacQlhIBEJUZLRCAHs3lNFSoCNarGP/iaZ2vN8Tu/8SI7656vvTykzILpUBMtJmk5jCL4xEhT3wtsdHKwCnu7M+azwO/90Vs8OFjwf/9gn3n0zEY3QYagI4qglMFRGnhziFYggblETKAijeVYmCc41sHG5pBr1yaURYZWTc6kBs13TqY1u7szDo8XnMwW2ESz4Xd9eRDSaq3WswRp/iIrzQ8vkT/yM1i79+UKsnMboHVFwgjWUyTIBUASLhDMDH/2AO1CZ9FWu8ClZDKieQS/TkzPOhhFT/3nNB9LBEqfgk3hoaqN2gz9COqr9BjNpwTsnujBsnMypqaybBQXRQynMCwF74WrWwXba46rmwWba47x0HV6DEsGKpJvZDnjr2oGVR2pQ2TvcMHJcc3DxxWPDipmM6XCwbAAcadb8cufWZaTiKY/79QonDAo9QPnWjs/USFEmFdGiHnek77YwYr487x/iiezjFqtT+N6f7pq1x8sZdnDzJbjoQg+Nt+ygAKFJIFvQsPOTJJfghDFelttI/CdZtvMnq5bw5Pg7he58S/yek8K9Z/3tk2OU5Aw8ThYJ7DgvcdHvLdf8d5RxQuFYzBwOOpUX7X6BZFhAa/vKA+vOF6/WvB3D4x3jheMpcDjUJKMU2CRDKS1wqGMYvKhxHK2pEq0GrPIWhCGQXBR2sArZq1ABdL0sYUZMAVqMYIYwaWe42wBVDOoZty6NmBz4vmn/+AGO1sF//yXC0oH6yqt7o6F5LrizCf4s1FS13Ti1HXnbBbgsIIf/e0uP39nj+/813vcuTfl/u6EYJ7hta8xUGWGSzNUYY5D8eogNjllmQN6qgBNjdqEmZWs+wWbWvHytvHVG8Jacg2jbs2iq/ZBiigRz4Mj+Nv7sD8vqFUZOlBnSZLvsm+ky0rTL/FtxS71YX4mw/pqDO7J9tEnPV8f9vtPks7bBR6ALmWO2QaiSaAb6NWjlosV0242G5CQuCSmrnVe6lUimVFotpSjL2vH2sf8aKu1tOFYM0grzAPMKuO4itTxg30xBcEJlE6YDB3eBUJWbU16vx0Pt69N0xhWY/SMwdP/1JJqk5zeCBtykHB2tCgzS2MIqEa8KsORMZg4XrpRsLNRcmtb2VpXBt4oNAfhU96qcl6WkQlodTCOZxX7J4H7BxVv3jnmrXtTHk2Vg8tK+HUAACAASURBVFASizGYzwqPOeDn5r1kKbxGicqypx2mvSrTiDGJLQxLYTSA8bDpqfY/a4bFJUn61cCsNo5mRjBFtFEwjM9pU+LJnt9L+4xPNse02jSeg4B6mWpo8ilWmtYbHbHeOF5fNlobVKklSyo+NsLVEnKCb1ijwC4OEU3Sd7ZcIS0/OJ+XoGmXsqUI4DKMqVYQQmR3Idw9irz9eM7VdeU6Hs3XxqQLmAoMgSsjz+s3Rryzf8T8wYxS1hARyiwBXmW3jqiGi1BGJQntK3NLWH3QABYpgzGwdEzag0cxzWE4ZnBCWlTThRqpK8LskIEr2Ryt8dqtkldfmPAPv7nFKzdGvLrlGXoBZq1aj6CUFGfx2NYYlNxjhL1ZxV/+/DFvvHXAn33/AT+/P+ed3Yp6eJ3or3Dj+i28FLg5ECN+Pgc1xAeCGLVCEG3HUEDwmUmcxlSERQ2DNeXWtuOla8or14Vh2cRHa42vk7RfQYVxGI27R8bfPTSmcYgbKCohi89/POThUw04T/BoyqU/C6sK7vlJhT7ZvWGfwrFfJLJcSCqQ07ZePTZsSre7giFrXKokucwYY96t/NkeZioopLdJf9RHunwbjM8HbbrTMEw9sYLZHPaPahZ1PKfCkaVqfzAQdnYKNsbC2BnOAsQK04ZN5OiUTv9/9t7sx7IsO+/7rb3PcIeYMiJyqszKmntuNXtSkypSpEQRhk0BBuEHATYMP/jBrwb8h/jN73ozINiwJUgE0SLFQSbZpMjqudlDjVmVQ2REZAx3PGfvvfyw9zn33MjI6siu6Kqs6jiFRKIyM+49wz57rW+tb32fiWsgaaaqxCZ3EwxjQDTtOBHdoNkg27iSsGqwqsisJneOyyuB7W3Ly58a8uLVgheultzYyFnvGayGWH9tGakN68zHX8a3gQyJKo2zoNRO+em7B+wfVfzd9/d4sF+xdwCV75GXfaToo1lJEI9PJty0PpfpelMTP4gm5m0SW2/6w8FgQsDUFf0cNi/lDIeWIjdJ3q95Rh03FQzOCcfzwHiqTKexrCyykKNYOKf8im/UF8Hwqbj/evFMzxbUz/AXAjHhXg6WTX9THptWXLTCP/hhkkZqHC00eN9jNDHs7FVMZ/2lvIhmFEKL9o+HQ8vNmyVX3rFcKpTKVwQf2aVGohB5Y0fVoMNo1BE1WIME1EQWroawMPGQLsJcoCGbeoxBlVzBjGb0K8eLW8qLL+b809/a5KXtkpe2SrImbFR1nBZJy8xYAQmAA6nBVECWAqoFDKO5Mpo6/uO37rCzO+PPvnWfICUqQ3SwSn9lBV/0UJsRXB2vMJ2bxbaZYEiFai8+ZpMh3kOTWLdWLcE78mrGeq/g2Zt9Njdyhj27UIBU3wmY8TpmTtk7Ug6O4fgYfIhC7SKB1l394rg4LtDqx/oQWcxTdxFs1uzAqo2+5lmKx/qJu33nmz293xD4Ao1EIXWLGoOSM5o67u1OOZgOGQWlH+fzFx8UFs9kUFqe2Sq4td3jxct93rnvOJ45vOkRjOCbIftUZwgtqtQknr6w2PKpFR6kUb+JojohoSwRR8PJsb5HAXzpxU1cgC8XOZe3+7xyucd6P8njNWrFj2g2amtlJmIx0sNhCBhu3xsxnnn+7h8OGU08r/1wwmQO9K9iTI5mPYItCCZPJZOopQsKNgobeC0SmhZ8QtVB4lVHPduYnMSaryfTwHYZuL5ueO56j9WBbZ+bdhFmK6quHI8qfvb2hAf7jnldoCYi0ngXuei1XRwXx1O5Ly8j7sdZeXUB4UI2VLsBU07PIeT9TKD0MUHg4niykqxgjeAl9hanc8fu4ZyjuWcaoLQNiefRUZ9+YbhaGG5cKri12ePBgxHHtSOUyThZTWSbJru2YBYBExHEmKWScINAW7caAW/BaCxwNiVkE0pyhE/f3MDmho1rq/R7hkvrGSHNM7UGzU1waklj8QJC0GSflUVyD8Lt3Sl7RzP+7Ft3GI0DP3tXwZYU69tgLVIUbRwWDakWWsWmg4nfo5rFYBkSF06TNY+QkK0upI5dIJPAeqFcXjE8c7lg2LcnEp2m+794FyZTx+27Yx4eGSqfk/xlOwMwF8fFcXF8EtCxnlJRzRaqWdL6HD4yT/aIr/FZpLZ+uVnFx9XvTTvUrFahUARTWibOcmdPeOtezZXNKZ+/mpH3TAo+3bzHk4lhoIaXrvUIznB3p2Y6CoxD7N3FWQ3F41ABZzqSeZphNENDiajiw4Q6wKg2FE7wxMH+GY5CPEWzBoIAHmsMz728hhghLzOMgIYULiW0gUokoVwbWkJPLIrmHM08B5M53//JPrfvjXjtRwccHDve2+3hQ0a+vkkwhlleRgKPBiyCIfrrWJIPaOrLBhXUeYK2goJR30dSaqKLYWSC4mcT1obK526WfOp6yfPbJYNcqPARXquQmyyxABxOleMa7h54fvj6hHv7BTNXkttIF5DQyAR+8jP6i/nEE9viOUp+nvu43JkT+PMJOvKxe3pyKg491QY46AJhyklJbZEzrAP92N6upwFjQjPhIIi11EEYz4SjSeBg7HA+dQP1EZ2eqIojsD7IuLYVR0xKa5ikkmdrcyqpDGsUDQ0jzCBqYz9Po21NCFB5cL4Ri9Ood9sqAzXV3UgAWtsol15yDY2d8oJo1A7z2/h30thfqaVynqOp5+27Y378xiE/fnPE0chTsYLYguHaGojgbbTxqgjkQC5x7tcksk8MUiHGwY7MukrjlhJ/b4Xh08Wod2QibK1ZNoYZa/0M0njOIkExC7EChXkQxnPl4ZFjMsvwquQtlSmKz/9KcMUvhvqfKJDIOX7WR7XLXtRO2pJs2ke6OtNnohJ1Kr+nSdJcHO97GDJQpfIBJwqFMK9gNjX89K0J4mZ89vJVNob5QvM7RATn1cVRWwlcu2TYXLN86eUBZS5862cVk6rCFGmeUeK2HwOkYMTgQmLNaixBzp1lPA/85J1DJtslX3qhjxAY4DBpFARKVAzpR1CNwdQ3AVmSITNCngKV5LRael5hf+x5sD/ltR/u8tbtCT95c8T9fcvBOEfL58k3ckzZJ4gwMnUs12oMslaKOCuqDVoEfEHjbaJJVCAaOUcSUxCJ6zoIORlGFJnPsKpsrQVevF7yL76xxbXLOSUwV0+NIzcZpmHvqgBDpvPAj96Y8Po7nrsP+lQmJ+/bVhXINLOzF5yfi+Ppym7OClc/nM/5haHFh3yvRNr/78KV7NyyiHNqY/7q0NFP2HwlfowPhuk8cDQOVEl6LTK2aFUFFg6lSp6BsYbVoWV9JcNKFccrQogz+kRxhO5/7dMWbYNcUGEyrZnNLb4xVE7BdiHBE4f+u8NEjcq/tgvOLIhj6VftldorxxPHwahmZ2/Gzv6cB3s1h2PLrLbkvRJjC8iicXPQuvWs7CK47mKTVoSAZXuzrjRe69mZfj44BKVfCsO+sLGaMSjbideFzfWSt6gQgjKeeCazQF0bQiGIkSWkdZEyXhwXx/nu80/POxV3hizK2mm0ZwKMsZ0LOsUkemkX+iXdpHOu9T99YTL2EmN8sYgoJndoMBD6vLNzzP7BjN/80gSXKZ/aGpAZaYlYolmrhmMNWIXf+PIan/3MCj9+93UePKzZn4OYjNKsJgaPSYVWJUiNNwHN06hFbZl55W/+7j4Hz0XhgdXCsjUcpnNuGK9CsJFEM08rInJ9PYhrZTJyetg0vuGD8mc/2GX/aM6//ePXGY/h7nuC2lUkewZWh/SKHjPjCATmchwDsFFELWXoY0OG1R6iPoV3H2+FFsnPxMa1aeIISTB1soERCuKYTeGmmOAZH+7R6wm/87vPcutKzmdfLON90TlGFYuJCDUK/UYXH4TjSc1ffXuPt+7DaAZ5DkVBkhOMPkDazrZ+8Bf9o1rfvwql1vAEfVo5w7t8nvfMPEFf8v2u46NaP+f1vdJJeM/j7nZByZnDY6vws4h72UWu81HlKydQuSYkaQ0uCLMKjieeo7EnbGmyX+tAN+3ivEC/ELwa1oaGWWXYn9VJSSjWZZvyK3gwUdFVxdG4UivCbC6MJ4G9/TlmrWCzXyTBghOuHUlKL7l4nVziOK949RyPauo6cOfBjIPjiqMxTGeCI0ckx5gsCi2YzgRKq8CRcG1Cu6ZjxbX4ppPDo2mpJ6EHIbKELSDegXp6hTJIrN61lVhSXYjHLxBs9wWbVIHJ3HM89szmEpOcEyWZix7PJw8BnYXEdd7qN/IE5/erU4d7eo4sbhbLG95Seeu0s37EauKiGPXEWW5T8hPBEMh9QK2BzDI6tjycCa/9ZMKDhxVfuD6ksLSCwcaYNIdYoyGWJm+uZWAMr35llZ2DOW/927uoFhTlFqgFPyDIjCABk1WEbE4tE4IIRbmK98K9nR5upvzf/+4tvvaFLa7+Vp8sg8xK67JlQyTO9FOspWhUhUxbun13POVo7vnDb77J3v6cv/j+mMoJE7eGzQr6m5dQyVFTUBNw6gjWR1m7xB7Okml0oYpRj9UqabU2ZCSSjqyJSJAQxSA0ENRhxJJlQk8DuQrV9BD1FZ961rB1KeOf/cY6/Wxhsu2DJ0j8rKiWFNGlD/D99+bcvjvnez+bMAsl/WEfmxusCiGAV03P86KF+atYNjzPgPlRfebF8QQB85GgJyezZ116VO3PdKdP9Dzn0D75SyLI8siOCZJEwkO0qLIFe8eezCoHU4cXWMltO0C/0JZYTlaubZUUhWFrQ6hqxVUjjPTIZRj7gGJaofCQXEi8KMYIeT7ABce9/Qlv3pnynZ/uc2W7ZGO9YKXIyKwsevodYBfHIpXjWcV45vnxnREPjmveuBs4OBJqHeKNYIsBYrI4dyqSysMdolkgkW0aFNuwW30LbaPfZ9NrDEtrtEn+WnMwVdRVeK/kpsYax/PPrrK1njPIhNJ2c76FZH3qmOIRqhB45+6Muw8qZs7iMBiJCNuGiE4DC4T8cQ+YF5J2H+1OpWd7SEtr9uI+f3hfmD0yGLIktP7+P91l1Mov3cHsk3V4E1rpOQmQO5MEwwPYAikzXr874t6e582DOZs+8LntPqBdZdRHkp2vfOYS47nnz//+HY5Gnh/9+B5FtsHKYAtvLMEUVIDXgI9Th3gLGEtvsM28HvOdnz3k7sGcn97b5598/Qpf+MwGL26usGrzqGojy5EhBKWaK2/fPeb1e4f8yd/v8+bdGT99Z8isztjY3MZYQ9EvCQp1M90h6VqkiYmClTKJ0zdmAFE0wUhFIryi2Di20vQam96sxt6wSV3NLAT87BhfV2z1pvSLwO++epWN1ZzL/eS9GVgIOaS1bBGsGGbAxCt/8dpDDo4DR1WBtRllKWQYMmdiL9go3nTUmC6Oi+Pi+MQcLemSjnDBqZXVjsflkpSQLCPOpoR7XsnpeSe5T1PW3Oj21ElQwEQnNgpy6kYyPDM4YH8eGFWO7/7wIdtrGZ959Zk4/98wVcUmwoE0kYRhFj/v61+9xt5Bxc7BPqGaMZvsYbICm5VYKbB4MhvVfnxS5HECZBnZ4BJjV/HWzhz7wyNu70958Wqf1X7G+qCPNUIR4siGmwuTWc3B4YS3H4y4vTvi9o7leDwkH2wiIUfyAgRccAkbL+CpoalOJGSZyGexNKsdNK1tF7OZLQ1SLd1ZTc6tlhzxNSE48DWic156cY3NNcvNzZLVgSXKM0gswWKIsggB2zGWfe/BjKOx4417IyZzQygGWLFJgF6wKtHRxGiS4COdw0e5HvV9V98nHf3+IgSc04CBnHBK1ycwAJXHjNid++TdOa6jc7PlOve1Lee2clV1yShxqWr6uDdEdQnJZ+//Lj0aLJf/ruNerxf48uxLQKnw0YtSohZpFJzzEWplirOG3aOAeMe3f7DH5bWMP/gnz5BJHNyICjaxzybRMRoCrOaGQW749a9f5/7+lNd+8oDRwYx7+3uUxTq56WFDQSaCVRvNoZuAacCYnF6+yXg24v59x73REb2fznjhRsHq0HLryiZFZhk4IThhdmg4OJ7w3k5EpTuHc7S8BtkKxcplSluAzFANOD9FxCRZvISuW9/oGOw0aJtYNOtyIYawSMxUItt3MVYioCUiloyC4D2hchhfITrnUy9f5+a1Hs9dLunlQjQQk9T/FJQMkaRsm87r3fsz9o5rfnZnhJccO1xHgiULliwY8mAwBWAUb0IEl962z1g/YHnpg2z93Z/Xj8lb8X5nelb1aulssPpEd/yiFP20rorzCJj6Pk9aT5ZY9RSFuxQ0M31MaNWLJfThhE5Vgga8JucNNa3BsilLCIa37xxyeFDz/TcestrPeOXm6okHpTR12mCia8YzuWW41uOf/+Yt3r1d8ZdHY+rZlPH4mDCwGNNre3CGONoSpGpRXZEPWB/2cDJiWs34yb0KyTyvvXuEALk3iAq5L/EefL2BM4JdN2D6iGQoEwizGEMEJMvbUw4aUpIVNYFC2xsNS8gzpgcmVTvSWI2kCU3xUVg+IVajgvrAfD5FwhSjM156cZUrWxt8+bNrXNvMyWzSuQ11chZJOaMBg8WIUCs4DXz7B3vsHNTMNAeTYTLQph5u4vm4oNS1R/NH36FHQkDTr9bHB0btoJH30w2SU7aQhZupnIqcnj7hvtMtqOQDhHw9xd7+5224Rh/9F82nhKT5vAww5TFPufkZPXUdyMWG+uQRTs758055hHLGvEmV08dK9BfY+C+OJ71lMZNpsFPQqLcqTbmyCTBB2D/wuLnn7t6UarXglZtry9tia3oa9Q4xsG4tWS/nlRc3EX/McOWIo7qmqubY3hCjORICxmjsSyogvmVMW5tT2JJRbXC+4OHxETU1B7NjggaMs1gxrGRCbnIG+YAyLyjLskWNnjqdXowmYqO6kXZ+tYLozQVJ0wQ0aXomBmbtSDgaiWIJIrq0CwnR7NXVHovDiOPy9grPP9fn5tUeVzYyLHVkKalfJBsSGblGwIplrkqtyrv3JuzsVzixiNjG1rNjdi2ERopQZSHW0HmJ5AzvvjklUdWu197Pi66Lm0cjRLFczgpPbwosnYtZUrxYCjVd4dbHfIC2pdNH/oWeFuQWZP/TgmpYqmroMl9Au5+xXAlZOsOTEfJCDe2pQJinfdpZtXQzEdtqb0KkyP+8T5DQOFDoL2Eh6BP1C86adZ7Xw5NTc/tTHs77awzS8wu3kEyhtlW72fVjVRYvPdQqo3KTmfH86z+9w3PXB2w+u8Fabrjat2nj92DiaIeRkFDXhIE1fHljwI1PWS6VBf/le2O+9doRD6cV06Mc0+9hraWXRRzX9/F8LYIjMKFCrSXP+qyaHG8C+eBSXDjGpDlJwWLIyVAMldjoJqJgxCICPjTqt42mbBQmiOeZDK3TujOm8T9PwbFJBtBYRpboVmI0YHwPRbBaEIIyH9cIFbkc88qLPT7zygb/9IvrvPRMn2urgZIqupwo4Hop0agxmcFk0TmlBr75N/e5vTvl22/NOJ4oK70rIIJ1imrN1NSIsRgyvGYIObmPtmZKzaKoLMuhrCk/h2aCVJcQp3Qc0Sqr1LJgEZtHNo+TAdKkDqxpEXfsyyqGGsGTNWzjpyTB1YXNdwpKWTy3kMW7p3YJHYckv9gNRNrxjI22BFUnvnb1rUzbWzS6eJNF4wgTCrZhaKPMrMdLwCfTgsI3VYym5G7aT45zv4o3sc0S0u/O+PYJWTXkapcC9CcSGOr5FLibe+TPtSfa0Tp7XMzSjtKXJLGW1rTIkCHy+Hr/Yysi8sst/Z97c/zDy3i0zYvf/0vticJTN0mw6YGKiQo2lckJCHcezin7OUdzT5SKtXRmejql9qSsKrCaC/Uw48a1Hm++O6M3CJi5I3iwvsSgWKuN8N1SkhESjdcYi7WCMVDYmGDl1rQLTELa3FLZNDqV8AjtXU+urZSVB1lk9M2G1QF/LdBYUr9L5VpUkGAjsg4VRgJ57llbFa5dLri6mXNlI6Okau2lF3c5tLOd0RwbnIcHBxV3dmaMpsqkAlvm6Ts9onHjFhrR9wxJgUlSb1U6VyEn+OPymLXUBNNGYEseQ8YTPW21LX+attu0iX1y5CmuAi2JLDYDQY+kpg0rXB9h45+4/o50o/wcRCEdlNhI7Z/EoIuzM52faQaPGrJa2mRPVBmasrpp3pNfkXrc0zsvIe9PITotznX9iBHkq//b7jFggjJYjrCdxfqhskwT+jjPTwznhzDNz2Ft6RPdM2lLszZtuALRqgqDMwYVmEpkfM6O3mFzRfjtzxV8/dNb/KvfeY4MxaqCS0LhNoCBILOIVLCgBtGM2/s17+xV/PXfHPP2OzN+/LOayVRhZYhawQ1sElKImbdpJOdofTwWhsy4EwmASeXFhfhAk9Fr+t13JBU1lVWXR2SagnRiXKu01QyDIYiPrivpc7LKIkFxD4/IbODKhnLrRo/f/o0NXr5R8OlbPXqZUBghhCpue77Z0TIgYKgjOrc5f//mMa/fn/J//oe3eOvOGFdeAZOBWVskOanvGlqMaFExeKnj9bTM3e6mn7bXpOlLiPfGpgVjTnS7pK0V6vuw9zplyPTOhFTe7k6qxmdikA6C+qBHOC9GpYTWpzQ24JOBWxKkiKV47XiZhla7eHHtZqmwbfQEaey0u9eOMSZkSUfQPx1ONHm1JjypJglqmPZ9XSJFiuKS6L83LupCi0/PNzrsZJr9CiDMp9Wx5wy1wcckqc1eboRJ1mbuXTz9cUplPqRy7Jm/+oz3UE8izFMz35SmSqNmY3FOOTicc3RccTyuGRSGfm7al79lkXZE0I1AJjAshUsrGZc3LNPjjHv9GhNggserUGsUKDfGJO9JXRotElkYXgU9mbU92jyXbqmRx/XqhO4WZxbQs+0xdsFqFAqI4cAEkKDkmafIYHPNsrVm2V7PWB9aBkUa/dBFEO7SyRuBdReUKjgOxxW7B1Mms0BVg+ml+55qpU0C0CQE2kHzyDKuaZMFHqWFtBWFhEjaMpY016opYTllREH0USaRLCQSWdiBt+STttT5VL+/Jze07kDbAoHqCc60NqScDsqTzp/oyXv36NcSNFnFqT6yPqWTJMWzC62ABkva2h1Jx47HcLP2Lgg/H2e8vDiyxyGhp13xQ8+rWP6E9+7nBuCzBkyxncw4voDdF81I1IYFwXqDIWdrbRuqCd/+ztuM9irmhzW/9eWrfO3zWzTOpurjC+61F1GRaTb0imurluurPb5wuUfw8O//0y47ezX/z1/vcVQrb4xzjLUM+j0GGNbICUEJqqiJ21AmWXIgSf0gWcxTSqv7GpL4AEsbiOpyv5ykphPdUhJqtIns45LMnfcYY8gyZaoBR2Bcz3DB0ZvPKET56isFVy4V/Kv/6gaXVgwvXyuTBq7SyPAYjWXVOv25ZiHanVHy7v6IH9w95Jt//h5//709xmEL09uErJfmNFOXMNiEFHK8eDwBb2aocW1Py/peJwnqKBnRjsoSbFgSatdUknZGE2aFgbP0vUlqR2lGthMmWtUFibrASMCku2nbu1qncD5If5ovpSgffc5vUp/yZN2ZVkxf295lI1AR4kjRicQz0wxRQxmy9h0KaBTjb6skqfSemNihsaZrGgLp/xHIfIbBkHubEpw6lQNClFJsAqQs6iOmfV9jB95q0fZJfJJ0vDieYnR1hp/NHheIooH0+bp/nykQd2rG+su6/qfowTWsVOVE+U21RVXNEL9gUMkQ22NWGe49mPLegynXdmZcXs/pl7aFM21GGxKps3H5SLOfYg1XtnPyXLj1bJ+jWWBnPynmuBrF4uiSKuJuH5K5ctPTaWQFgnZb3qbN7092z5a2a5UWD9EiV1kaGpckPeW9I+BQ9ZTGU2SBKysZ/Vx48daQrbWc9aFhWAqCWyQuISm7N8gvVa4NUSd2VDvuH8556+4xD0eOKth4jyVPgvWpu6tNL1IJMVTGEqF4FJ+IJFEur1s1CLKwQGtAZYMEQxMwE0ox2ojMNwipIUqZdiMPEhbISjSFhXSvdakAHAXy28Edw/sxZT+yKpMu0KXKybnvk4hy2VpuuQUSaU6hI87f/Qlt0ejiGxqZxW5S05iOG5Y7mIvPCR1G7KN85FiJSIQgNR30HBa9zSXW7S8AVIRTys6nP9CzVNjObe9+yrflX7zauBQwz2e8+Swu7GdaDL9CCggNmaDxkZSWIBD/3iKoCHljZiwlxhqytavsHo/402/d43gKd/YD/81vXOaF6/1YuQVMnT5Dpc2MScIImS3B5Lz6j9fwQeg/O2D/2OH/ZIfjieetOyPAMCYjz0vyvGiDZu1SQmXLExtSV1ogxLIiSd6uQaEJTWhrzGweCanOuTjnaU20PbPgXByHca7Ch5qtTRj0hd/8ygYbqxn/8tWr9DPhRgloDUxpJyl8DsGCTf1ZG8/QYhjVju/tzfibf9jjP/zpGxyPe8zCEFuuYWyfQK+FhY0faewTVgRxBOMJZo6Kp3AGg6Hv0hytaIfQFAiSRONFY29LwIlv8U3oBMuGf9lGd1E0zde6hLo8CxcXo01YNxg1ZCGGTOvjYqiNwQPOPl3bmeiCvRotCFK5M7F5Nd0flUWgCymohRPRo1UXlvqRynXT2w0nvKKaVCNqfsjS5y7sBCLnODTyi8afSDsWZVcbbKID5YgKmeadcruL7PA2SdIz8O0/vGrduezdvwJHthBU/7ih5yc5YfmwT+6MnyMtcliIindTmBAZp+3PpIBjepAFyCt2DgI/euOQ568XTOcVL91YocxtDJxKHKOQDsU0iZ6rBoJEUtHNDculnvA7X1znYOTYHOQcTwN7oziU7/wMHyyqgldLK2Qngohpi2VxY0gYMs1INkgnnn1gmUaonVnSNPTtqyia7qOGrFAjopS5srFq6ZeGl26VbKxlfPn5AasDy3oGuW16eGGJ1RYTBY2NXDFpVlPZHdfcO6h47YcPeePtiuNJH699TFZiTI6QRd/RdkYhEMQlsYQ6bubSYETTWi3uugAAIABJREFU4hqVWAYVWTYLi6MFaaIvlaZp7138t1YWPWyr8kjvM5JQ4iqpJaQgGfG8JbKFRQU0a79nkYQui9V/sFfv/Aa1pLMeFizhZYvyRYE73cml2ckOO1hJKRpLXuJNVeNkj9J0MGRcF4s/M521GYsqNr03narBCd5s11JOOkE2rotwprur57Sb6Tl/3se6qHe+AfPi+DCD5clykUp3Q9NO7rlgg5imQCQFktCJaob2LW/vjrh9f4+Ndbi73+fG5T5lbiOSUoXgO7MK0YoraMziPQYVw6eu5YQgPHe5x+6B48alCW89mPO921N296YcHs3xtSEEwUkBGGwytDZZkbyaO8E/Bcwmo7eJIZQtzcE1/c0UakJEFaGeAwGnNajHhCm9Mmc4KLl1reD6ds5vfGmDZ7ZLPnvd0ssbFdrEaVS/iAsCGB81EEwWA7gYnCrv7c15/b0xf/Jn99kfw8HxKr1+n6IsEekh5IgrUDXxfonHS4WKQ80slg+FKCuYOJMB8LZu51O7G7ptULUKIZWIHU3ATNxg6Y4ueEQ8QZIptgSCQJWYorVJfWKRpNgUJecNFtUiIremnycuyS5WT1XK2IxntA9LWWII05pxNxL8khjX0hLBWgJWCuKug5SWAaUsXrEOd1mb9tOivgMImaanox46SU0gi8Qz0dZur32vRZKW8aJ0vxwwfxkJ/MXxoQbMx9GALyD448KdfsB/slxCagYrmtKcZ3mOr50FSvGvLeOaAtMzhMoSXMF3fzrjzdsTNoY9NtcKXv3SZayRJLAe0vM0ccSkg7Ya9GRQVgrFbii//pkeLz6b8/IrPe7t9Ng/rHiwO2U2dzx4OMd5GM08IQjTysYgEEyLHsWaNL/ZCMMvBNTRgA9JbEEDVuK4fWE9RpTB6hxrlUtrUBaGK1urrA5LrmwPeWYj48qa5eZWxko//kwMtkl7D9sGJZXYZ5SktasSN9uf3RkzGjv+6E/vsHsY2NsrqCgY9EqMlZaZq3hUXXJFiZYyTheosu1ThRLU4tK1e+NTKVzTvh+iihC0ogkhsLRBq6apXLE0qjIiAZGQBB7SMxcQitiD1bDoyqVnWRtDCID42NtMXkQOH8eBztKD+rBHyBps3ipNBdQsStVoTAZiGd905AJoLdy6KNKRLZIxQmR968KMHEBbgX9P23HXZu636XXHoO2bgGdicFXbENekNZiW1HuNYyQBpUIkts8XyFna8aqzTWr//IxFf4727pOWZX/l0WVHWOpx9yDTj60JtDy93/sE4z6L3HUhFtCQdNrMWMxycU8NxtjYR9So6PLGeztQT3nuxgHbl0q+/sVtSitgbXwZQpSZI40YGDFRji/uIAhKPw/0c8PmsOBGgFse3rufs/uw4s13HMcjJTdz5vOA+EDtoJoZCEJwlobjKVmOGJvUhxaC6q2fpXdJy9VhTdSDza0nE2V9UJHn8Ow1y8ow5+UXhlxa73Hz2ipXh4btvqXApfJus3PYRclam0KloriUHMQN1avw3t6c/YdzvvX3D5jWOcfjDUy/T7m6SqBC1S1t5lGZyCaKTuw1BolzeUYNogVG81QqBW/jzpul2RvRyHq1JG/PoPjQmLbbhLgX4msNSjeitI5jhhQ04v/EILBMWAli4jkIiPgYWFJD3Gs49/Gq8+l5LXcDVTvjOR0BApI5gJAlBLegm5lUoQhiEiO4YDHeERWhNCywoAGCT+s+pOerdLxUI1Js8r/QgsimxpuSs/RwJMk5ikBQn/JDF99U2xmYCgbxGTw1ncuTzaGL47F7tyzqghcl2SddWno+z0RSiUY6zDld6ox0lnJLXV8MaQcF74mjD7ZAggXn+Ivv7lLmASlqNtcLfu/Xb9GzsJmXSW9WwcXM3C5l0wHVcUKIOQPJyW3Bpe2caiPjK9dznAvcPfDMa+XtexXzKvDegwnzCo7HwqyCWQXOBwIeHxyqUKfAbBJYyy3kmaHMC1b7Sq9QtlYtRW544eaAsjDcupKRW8N6PyfLDL3CUlhHzhyT+LuEMiJK11nYEr9IpMCIxadhi7/96UP2j2v+zR++xWgceG8+RExJb3M9zlqqjzxSMbS90ETwaMUVrEEoMKHABosNljyUGCxQEQjM6iiQ4EJEeVYj2SMzSq805FawNm6weRZ35UyIGri+xvlA7RzOGbw3eDUEJ/g6JiTW9FARrC3BCGoW+jRGItnKZfH+1MzbErjoQmpOn4INelEyDe2cozbl55SoaCMIqAldBoMVQ2YaSUhFQxWFBPLYt7V4ggZCXSPBocEhbcJQAYFeFlWwBoMotl/ktjNnGc9ungqqkzomSbNZRIiVzxei/WIQsVFa0RhCk5wZm4QMfFLCUkyIPexYnn1aSuIX/cknvUcXAfMj3DAWrNJTGpzNjrKUiXeRZsqIjUVsFstv4tl5eBdran7y7iFXJn1GzkfElUcpuGaDIkQezKIeFhFZo0WXiSET6PfSprWSoQorK8rcKZmZMp07MlMxncFhD0YzmMyUqvaEoDgfxdznbcCMZdqyEMpcGPQM60Nl2FO2Nwp6heXlZ1fpFYZb2zlWoHjkzvlFCNOTwtyLwClEMYdKBR+E+4cV9x/O+OntI6Yz8LqKtTkrZdSh1aCdvlbSXE1EjaitLmDyRKqJ84NGM4xabMSPyZ4sbfbqU+fNxcBplDy3lLmQZ4oxGjdqgTyJ71f1jMp5TF0jkkVClUtl5pAndJm3vU5Vacu4zaqgZYOm5wnkIdre2qd0V5SuAIBoJ6h3qT2NImz8L0lBRa1RDRiNaDuWYT2oA3VIcNCMU1FhxJMbxRoYFDnWCL0y5VmyaJRkGtrZSR8UV6WRJ0d6/hoF+ROvzHSVYcSkWVF/EZA+Ybu2/Nr/ev847sQyeGpOTPSpXGTSERf4wFcpPpXS9ISY9qPVge5cYkN6SAMFbUlOJaGuegLqqY7vMyjhS69kvHBthd/76nWe3erz/JX+4pPnScknyc1VeezE2RAQL1hn44ZsTHt6Po01Ohd5sc4HvIILMA9QBahqhw9K7V1Ewo2tlTVYYyiynMJCaaFnoJAYTAXI8yRBZhIJxHXWq3HRv1NS6TG5oDQEmy5/ZDz3jOeB/+/b93jzvWP++O8esnfkeBDWCMaSra/HAl7wZEEoQpRkM5oRJG50tZ2jBOaSko4wwGpOrn2MC1inhPkUXI3Nx4gJrG7X5Jnh2pUVhoOcG5dXWB3Cxpqw0jeUpaFXgDWQmYV8uhII6ql9oAqB4xmM57C7F5jNlTvvHjGvPHfuKlUFu7tRZN1rjslzTF4QLKgRnPWoKM7GEQsb4j0qQvZz36mz9jDPZ4SskXuILQEvDjVhIaGYSuwmlIhG8Q5J6k5GHEYCRiaAZ14dE4Jn4iZkxjDslQz7ho2VjMsbfdZXS65uF/R7liubQpYJa4OczAj9wnarrCjKLAScKsdzjw/K/p5S18rOjmMyqdndHXN07Dk6dByOYFopGs1RKQYrIAZvUu/VpLaHXpgmfrRx5QN/xiR7ii/vqTyn8671y4mLVXnUv2nhgKQdTpEuSsSyqFxJlkEwzCqLauDBw5rVXs3Do4pLg4x5XSYhdWkNnBeu8rbN3BfITZdmjmz6Lpuns8pt0s2ESqFWqGtSwCSposTvMCaWroosIzdKaSOCzE974KrL3PhWIkja4fL2wrti16p4p0znnuOJ5+Fhze7DisNjz/E4EAYZajKCjUHEq8eIiSQOPWkys+zRpYkZ0vTGYvfYIeLo5R5jAmt9KHLYXDWsDCzb6zlrK3BpTRj0DWUh9ApJAXOBDKPkn8WFQB2Ucqb056DeM5sp0yNLNYfRkWeeKeM84ANU3qdZRt8SS7oJVvcynja+wsmVrnK6DVPX7WWxPgOqqdogHtEaEU9uavLMMihzVvqGtaFhY9Vyac2ytZHT71m2LwmZFVYHEWH2CxPfBbMQEJmFgFelnBt8AOOVug74OfTzgJsbJAS0EqrKE7xGUhixBEtHAShWbUyqjFwcH+fjQ0WYZ2bgiX7o7/VZzk30PP3ZFj1MTcyOgBCa4WlZTPdlaeRiISzdjLhbXCJ+VHZKEI+lH0enqyHqHfXoARljhmaXL7w05MufXuOrn7/Ms9dXuLzao8hsu2HN0jXmmrL4sLxBdVFcq1IjcejZ2IYlu2DL6qnehcu9olZZqkGJ4USj5+Q4ngjOJJZi+qosnd0U2Nkb872f7vKDfzjgez98yLv3Cw5HGdn6dchLqhVLMIFjjmLfUmsKzehrQeYzrGbt8quta6uhPnjmszniPHZes5J7hrny3OWcjaHly58fsjKwfOrlDYrccvVynwzoGVl2gjnjwkn2psybArTG0vDOQWAycfzoxwc8PKh58+0Jd/cq7u7NOZwb5l6Q/jpiMnzeS9NEIZUt/SOB6KNMUKURo290eIyLLOR2BCMDFTLtIUEwPiYGRgM+jFCtqPw+UHPlkqdfGL7w4grraz0++/I1Ntd7PHN5yEpPGBRCTyQRsLo8nhPKW60JdMdXVJcbAi4oMw/HI8/xkef1d454sD/jez8ZczQK/Ox2Te1gFvqIzcgHgyhgYbW1Ant60pYLhPmJQJif7EenJ56jdMBU19JI2iFxOYF8pONsIdrM/ZmOdmt85Y3JgAKnPY6mljv7jq37E6qgVJc9/cKysdqLiNOYzsaeFGZkecNoFl44VeKve26nrU89wz3pOJp0AJE0ptpyYpZVlYNJReUDD8Y1O3tT3ro74f6B43BuqSkgKyI5RiQmHQGydqQjgC7m/MwSMovJhK99GpUN5DbQHyqbQ8ulgXDjao/NlYzLl0oGPcNKz5JlhtzEzdlIR7j7UTXwx0IuWRQl45M2cfRhkAumNGxvxLJ2Pe9hckEywR55jmfKLPg4uuJ97Ofaj8f2rI8r4XTQvYZEJsMBjtWVDJsJ169aBqXh2StDVoclmys5631LPxdKK/F5qHbSOd7HlJoTxLsT1QYTKyP9HELPsLmWYSh4eC1wPPGM5sK8Vh4cBgKO2k3jWIpkqc98hvG0i+OTjTD1zG/Exxlhnl8Pc7EhSmcswOCToXcMEVHwOdM4DF947YC8+Ob6VKL0NkqneZcINhqJKDkF3jsqV1FVB8znB2ytTxgOal79tQ22N0r+2998hWGZc23Yf+SW+0avpJn7a7RM071obb3UtMG/mVF8hMUkSxEwqQ75JHKQBLHTjBwSSUY+RARrbfymro/oHKhc4M+/8zZ7hzO++bd3ebDv+dEbNdg1TLbOcHiJohxCiD3erCHyoDiBiWlPhTwImQomRHspDTmqyuHkCDGOvHfI9ga8fFP43AurfPb5VT5/Y5UrayV9WXZjWYYm4URpezkgt7SXE3YuS2vNnNzlkxSBwnt7Fbd3K/76e/u8c3fCd/5hxngCc9YRMRQrg3bKt+vLuCSKoydbAr/8Db0h8Wgqv3vjIllGfNLWzWOfM8TepfFKPR/jqjG93oy8cHzla9tculTyz752hbWe4RtXSjj1WZDGSJrnceJtXLIL6qzddiQqia9b7VRSDAvVWWG/hnlQ/up7hxyPHX/0F3c4GtX8+I1jJB9ie5vYvCDLctpxshMVFr2wNXnaEaae6zmdQ1h938yPLgI6736Kns/pP+ktW+j7aEe+q5GWa3R/dLnPdnK302VUJx2TYwyIzbB5n8IotRjG9Yw379XsHnqubTxgpZfzmetbFIVhY60ky6DMTcd0qWs8Fku0LdrTRiRdTvVt7Iqttxt2c95GTgRRXc7wZaHx6UIUfz86rqkqz529MdPK8dqPH3I0cdw7MIzmFjMYIGaAsT3IDJpEAEQjvR9Sv0qJ85KtkLZ0RCME7ypUAyt5Ra9Ubt0YcHXL8JkXcm5d6XFjvWRQCEZCKqFKK76+2LGTFZT6FiU/uqBOlJ9Z7KftjUhD9kEaScVYljcCK6Xh2nrGZ24N2FzLcFXG0djz1l2HDwZXz+PzsU0bWPHJyKXVvGnvu2+DWVTH6VQ/JJwS8n7xbaIrqYg0iVZ0AImCKslHNcS5X3WxV1yWwjPXBqyvCV96foWN9YLrQ0u/kFZE4NQva3qgj8x1yOMDqC5KxkhSzpKuw4EmkX6hNFF56dZWwXRo+cqn1zg4qtC6ZjQ3HEymUCvqFcksYgy+o5vb3FFJ/pt6giX/aAdaPv5B7GN2nFtJ9uwMMLl4dqcEzOYe2qY72Ing0iG36Iltti3YaldaLGLDSJCJL3hmSmxZUJhLTGd7jOZj/uoHdxAq3npnzOqg4He/qmysl3zh01usDgxbOZRRJK4dZWg9F8UtJkNFku7qiUfcbPhNEAndWmvn2oxZOLOkgJC1wSW6ptTAOASmQfnxe2MePqz5i//yFoejim+/uU8VDCNdx+YDepvbUV5d4hhIIJCFGOCtTwPvJsOicaQkyfkZ7dxrDG5+DOq5vj5meyPnX/7jy9y4WvJrn1uhJ5HhW+HizGlyA4nWTieWewho8Ok65f0TttD5PXSBTEQ4vk2tcuIov+HKquXaasataz1qhWubh+wf1vy7bz5gMlN2Dj1Yi+31CEYJmVL5SNBqvqCQkPRufbJms8kWzS7EywkxaKqcxY73TGs/JEQnmOh9rkkVR2AuEX3GgFlh5xMuX4JnNi2vfm2DF2/1+fIrq6wOMorTSqgNoa1pCJ/sj5/EoV2CQji5XcXxFbROxrAmVgjEtp+zkh79118Y4IPy0o2Snb0pm0PPG7fnvPajI2aVo3Y97MoqJs+oG0F+4+K6D1mcmyWL39eI0Usn0MvHNt587I/sfMXEzzkyfYgL4kyCxiLnplLfNTBa/IEuO5boMtsunHiBlyk0oVW0SbMiSRVogRw0xMw9MwUmE9RcQ/DsTuYczIVvfueIYd/wD7cP2FoTbm5ZrqyvsrHS59JaTllYhv0MY4RC7NJe0rFlaNlRIeEHjRYhkWHLKfVA6WLXWAY9mlfULnB87Dma1uwcznhwVLE/cbzxdsXRceDNO8q8tnj7DFhDZkqMtRFRNjhMbVTkwUSA0JR+8YRGEF2VrmrZdHaMd57tVU8vh9/7+iYbqxlfeqnP6jCjJwmZ+mYkJzTy3ottOzQIOhGUbJYasPJIl2zpsJ1Ew7CYBU2hsm50Z9P1ND6kaKAQwYrw2Rslk62c8Te2ORx7/vK1Q6ZVze6oQgoL/RzFRkFxE02y65BmFZuZWTWJEayPDDvJWSsyP+ddC9JMikqisC168EGVEGpCCNTzGSulcP2Zgi883+OLL/b47HM9rmxmDHIlwy88V0+gxKVzb1TRH6cc0H009sRfSGMTV6QfN3HEKyzEP5qKr5E4LrNWWuylkle/eJlntuasDsa8frvivXszJrVl7iq0XyS/zHjtQWVJyF2XOfFLeah8zCPmhy6hoR/8AzL5+N7tDz1gPkkp+Em947pKIyerdo091sn3XJeCeXd2deEx2Wx4IiH2cIKSSYHkBcb0AWX3cA8XPD+5P6JnHVdXxjxzSXj5muGlZ69x4+oWL9wYsDLIyMuMXEwcrD9pRrzUB9J2njGkzuP7lZK6KkaqgePZjOnMc2dnwr29CT+7fchbOxPu7s+5fc8wmghVGIDkDLevgzFkeYxiKkm4nRCtrxSM5lHE28RepooDjSWWZhwjJKA+m42oqzlr13qsDy3//BuXWOkbPvNMb7lkGkVlUdHWewaxseoXFk1IkaTfe5Jj/X5LqbWvjF8UJM1WJhqQjd2/BXLSQG4NuQifeqYkqGCyHvtHNW+8ecDDY8fdnSlGS2xhUBvna9XGoKmuRlAKDRjtSKJ3JoweTQs++Cvsl3wlDaYjnBxcJPi4eky5UnDj+hpf/PQqv/1rG1xZgZWSVHtYjGuEJQ9KlhGllQ9w4rZNRBfrVFu/2UWSFP+pAKulZbW0XNvocW1rxnDYw7tdDg8mjEdC5TJsvwCxBPGp3dL4z0jHp6V7GYswKhcV2Y9vSfbjfrfDRyA2L2c+t/DE1Ww9paLU9tCkM86isDocohoYDEokOFzI2D0KVNPAu3cnDPKarbVAL4ebV4RBz/K7r75Av7Rc3xw8ejVtWyr2CXdmFT4ERpNp1Ff1Su3iXNtk7qhd4GgSqD0cHICrlZ2dEfMqsLNfMZ7BwVgYVT2mLgdbsLJqULsWyUGmiAmDJjGI4KMgfLf/Kk3HrFHvcYgKNmTJCzGjclNcqLh5wzAoe/zBb1/l0mrGi1dL8uT+oqlXSRLZyRBsMMmHU1GbOoNatJRenzqDcx9wCtMqEALULqCaLLoEssySWcgzoTCG3BgyMdGDRHooSi/tnMan37sjSSHVchO7+dY2XF4z/MHvX+fd+zP4y10ORsruwxl5abF5Tp27WKbVJHyRiDatXL6JdmWayqaxXBjO5R00Gh1smg5dhaMGjKtjAjA/ZL0vfOkb69y80uMbX9jk5mbO5grYTKkVspBCbNObttIG99aL1S4CPyQRQ4VxFRWpZpWLiFYXXpdFlmGsYVhYrAh9a5I7TDft6bqqhI7MZXKv8WmdGGFrI+drn15hODR8+nNr/PG3dnlvZ8Lu1OLnlrLcSIlQ9GaJih2hrQ2L2pRUCq0W5AVB6JcSUh6PfC+0ZD9ZD3vZDOF90BytJRJAkRcgSoYlOIebOiaVp5p4Hu7V2DBnWMwpbODhNc/KMOOrX7qBT3Jtj08I4uY1qR2V9+yOZzFg1sq88szmgaNJxXTu2T3yVLWyc0+oK+XenRFVrewdOuqQUfmSYCxqMgbDkjy3mGwIxjLzURy96f8GfZQe0ThxBpMIJQ3yVggSC+EueGpXsb4WB90/89KQzZWcSyuJy6yP3kSb0Itvmo8mBrCTPo1Oo7BSFZTjOuC8Mq+id6dBo2RgEPIMeql0GzfohhOdpc6lT3052pKjtmIOjZ1U3GTXB8KwJ3z65RXKvuHyT3Kcd+zu1BgbMDbOlzblc5IgfFvraJOMBSt0gT0/uGpNZFlLmj9eoE0borydDXP6NuOlmyXPXe/x+ZcGDDPoZ/Gr45iwSTErtAGTFDA5Aeqbs3Wp5Dv1AecCo5kjqMerT4xw6JVKZi3WCpkxlCaWWZdeJwkdpYsOrTmVb5uWqQEGPctKzzK3wmCr4Luv73E0ceyNK9RZsjypVpnm7jsWZDSTGjXdoZiLYPnRIMyzICu5GLF92kF1Q+bT5dbg8p6RLIl88KjT9rE2RFWjipEMM7xMCJbaZ1GS08O4OmJaV3z/9TcZ9Oa8tzdhsy555cYpcTkROQyWEJQffH+P3YMp/+aPvh37mf0hs2CYBoufR3FxNxc0gAn9WHDMtlAxhNU8BjQxmMa2SgwOQYKJLhAhbugmkEQUYtkyIlwTCTnpYn0iWahqREtiqOYV89kxVy/D5kbB//j7V3jp2R6vrFoKowjTaJ4dssjWFcjSL2qNIw/FIAUeoQ6BncmE4+OKd94bsfew4v5exf7hnPHUcXgcVZCm88Y8yse+cGHJcqHsGTbWc9ZWC56/1md1mPOF59bpFxnXV4uImvJUiazj/iwGgsTZRA1RAL6yGRjDrZUhWy8O2f4fnuPb3x3xp//5kDfvzLn3YEy+NcAUGc7aFANMu10LIYnyp/qwLpeTP2gPKhplN2bjwjzM8QTy+pjSBn7vG1tc3yr4n373GnnmGRYjnCgVYJJnadODtmluONqiLROS7h1OeDiZ8+btEaNJzeu395lXngd7M5xTRiPXzuE2b0xeVtgssDIU8szw0rVnGPRyPv/8JVaHBc9dX6ewhjJbdBYD0ctVJSQ92aiE7JPIvJfAtVXD1WEP93vP8mDk+Nf/1x0ODmse7I0xxpANe5FYlVoGiztlFkH5l2DTJhd7/Ce9JHtxnKXc+z74Mvn/0f4e/9RgbE4QS6BsS5CeClVhNo+bQ+UiSnoU0Z78LmU29UzGNXfvjQk2gxXLTC1TzdAqQ72BKo4wlEYRA71BHlmltoxJgG2IEKFlP530FzytR7o8Cy9LKnsLsn5ksZa5ZXVguXwp59pWwSDaBXfwadfH9GQiE7N/5xUXYDJ3HM8c+0dzHjycc+/BnL2Hc0aTqD1aO5hWDSL0SCdgFj1hXJWM5p5B3zD3gdEsiie4QYE12va1pftI6aoyJRQtSmEFjHCtKNneqFgbZhRmBt5hQsIuenLFaEeC4pfVDtElb0tt5309VpTNtZyt9YLLazmLYuqyq49270EqvWsjNZiC6bRyjKY1+0dzDkc1dx5MmM8dO7vzNmDGbrxtb2ZWzjCZZziMJfJhPmXYc9zYHsYkq04qXClZkW6Po0WcnBD9gNxGj9qtjRJTZgx7wnyWvDkb6cVHUpEz9LwvjouAeZ4Z1Cf9aAtlnd1cTrlnGuJmKzZrN9bG9cuKxaky8o4Kz8x6SnJymzOUAZn26JVX6fU8lCWaZ4sNVLphJDEKJfaQPnd9m818hav9zzLCcsf3cXmPuhjSG0IuwkpwZCiZxsBTmYwgSm0CgZrAHKOxe+YpEbXkPjncx9mWlvoRZ/gaX8z4e0h+koHo2oJVXD1nerzPlbWMzz9b8l//1jZf/+IGz685hlSEMMcBmfTi94hEabZQYUyGkRyKeK1v7Tim88D/+5/fYjyp+MEP7zKfw9GxxbmS2vcRewlsiadAMfgsBbasJqhnPpvBNMBRILsLeYC/lh0MNZfWf0iZwzf+0SZbG31+/zdfZlBmXFnrR1GG4LEaRz6C6YMIVgvQKG4gwDULr35+hVeeH/Lv/9Md/vY7jncezJmMKvLeBio2CtujOBFQmwQwumVCl4ydf8EMTjteJEYwNs02EvCTY4KvefWrq1y7lPO//Hc3GRQSnUfS0y2wZBINu5WAN9ETxBibUJLhYFTxg3ce8vpbD/juj+5wb6/i4bHjYJxRO8PMraP0UHM9jR/1Eo0qbw1TfHWESsWDoxGI5403xhiUP/yP9xiWwrXNjBvX+zz37JAv/6MbPHdzk0vlkNyCo04BexrNw0NkamfBorYm2IoOpKb1AAAgAElEQVSXLhWESyX/83//MkcTz//+f/yQ2gmjaY7JCoreKkEl9UOj9ZnKLHpvYpJrzgXeeToDpupFWfbjiDD155R3ZRlVxPEKWSAUkiA7oWWCtgLZcrJUfxrxPR69wtAvM4b9nNob1KVsXrI40pb0Tg1dJaXUv9FmwkJONOUXsn3SlAdPfn06YdWTmDvZcKknE8+gzNneyFgfWlZKQyZRYH2x/KXTBEsjHenzZvNA7ZWdvRnjmWfvYc1k6hjPBFcbXCjwWhDIEYm/kCwmFUnRhsSAVZJaUiMyr0LQ6IAxnc9xQdk9rAlY7u6NWe8X9K2Nzi9Z6jNKRG3xlZW2xRZn7ZXMwKA0bKxmbF/K2TkMzGvFJ8ZvQ5o5ffGckIl7AsizGG/qjkskEpUGQoi2WwhsruVsbuSUmZDb7ihX00eVRQkxPWcPBK+MxhHV7zyYsvtwzsMjx2gKs8pS+xynFi9FNDqXHLCoyVNylcUpHgGkSI+8BPVplDNQeYdxcDz1PDyuGRxM2dmf0OsX/z97b/5k2XHd+X1OZt7lLbVX72gABEAs3MnRSs1II3kkhUczVugnL2H95L/I4Z8dDk/ExMjjmLAljWIkaxTaSEoiKZIiCYKksDV6QS9V1bW+5d7MPP4h8973qgEQDbIBQmQ9BtBssuq9++6SJ8/3fBeKjYq6MBSlPDA+XQpK0ETFNnkcuVKnre7qimXewMnMZw1mZuQuPY8daU04bbNxNs/8MHaYZx3dPwkItv+7vv3MSDqXkiSQzNUmEyVUURMw1qccR2nBDFGtaCM5N3KeTAAyFJVekRTO270WKZbGCE9dHbC+6viZT2xz7X7LK/84QdRg7ZBClFKgiB6nEYlNPn6HEcFZm36WAp9JGQ1KNNr73RTExBM1qVtGk54tSu4s1eaOMC0+MXqa2YRKPNuDGZ97ZoXf+bWLPLVdcmlM6tjUY6hyd5ogQaNgxCCu6M/ot17d5dbOlP/4xzfYvd/w8o0kIxmOL+BcxWB1HYk2LYKmQIzLqRYQzDR1D5lZ66zDZjOCaj6kaoZ9odlt3yQ0DS9/8Tp1ccBXv/0mT15c5Vc/9zjPP7nJx5/eXCzQ2cWtQ1ld1slGAmMnrJaWX/3ZDT72sRX+3f91k1evTbl7mIqCW0kQuFefbxNJmxlRVNt8rS0PIy5ZnovFsMhEhXQeI5FWPc38hLaZcXXDsT6s+O1fvcjlcxWjwiTGaAjpXo2jNDqwgjMRNamzRIXdEDk88fzBH9/k7r0T/vYrNzhpIkezSDFcx9Ur6GAVMSWWOs3HcQvlc2ZAp2MTTKzT/DGkebCr03ePHHHUTtm9t8N37xzAt4740rff5NxmyW/9y+e5sL3CLz67ReEEl+eNIim0nZhCvCUIoVTEBj55scB7+M1/dYHdvTn/+U/eSIVxPsJYh9iC1oQ0FzVNCtkOyULeUp2Vy3/KkOyjgknPBtDvK5jNcp92Cr6VzpYr3RglilNNptVZwmBE3ub6nJ7q6ZLZX1okoSiEc9uWg+gpbIsXj8bkmtLNf1SThV06lGRzI5os04ym3iIRKpIBgXYsRZW8817Q8BcdSff+XacVkRixMTCshMe3h1zeqNgcWeoiGzz04naTDCB6O7/UK4QIewdT9g/nvPTaPjd3puxN4MhbTJ10dZQl0TpaUaKJKUxYSHmevSFcF4SdjfLjIihZFYIENEeyiKsRHLZaBxM4mE+5cyC8dO0YxWGM5fzWgJVRSdHLhtp8bTvSTnddIsMSNqPlwnbFdKbsHrbEEDCx7u33OqhdScfcGUz04dUPsR684xS0MyfI80rjhEvbNRc2CtZrw8iSWagLd6He2F8XreXx3OO98p0bBxwce165ccLhUcNMS4I12FqgGBJtiReLiuB79m9YAiRiNonoimaRrfrSuYtiUJQglmALQjXIqg/hqDHIoeHla0fc3/dcWSkZVJbL56vFLFOErAGi14hqZxqkPLZdUxvh3OaA2cxxeJhgamMWyEkf39bpNFWXn+SfyBHXQ3l8P0Jt/AdWMD/oE/5eiurZvPPBNlRPDTwXBJIE6VURCjQRcDRZxmXeKYVYCkPOvV+GhOKSJeqyuAGKAoYj4dOfqpDXWsbfmTCTgmlbY2yJGIeqTwtYtgiTnM0p0WCjwalFjU8wpmmIJqCad95tDiE2abKVaL8WcBhxgCN5KGiWK3gK33B5o+Y3P3OeF54a8bFLNUkE36Z7SxzEIp2pmBY9cYIPMG/hay/t8HffvMlff2uf6/fm+MFlMDWDC1vp940hqHKiIZ+bsIAle4KVz8eU4Ogi2t52LhJpTUs0BYjFVlsYUexojRhabpzc4dbBlG/943WevbrPC0/s8Vu/8iQfe2aT9TpnbbbT/Hll7toNKh6l4cJ4wMVxzc9/YoPHLje8+vJtjhrFtGuIEbzNjg82BVtH9bi8uRFNFn8xPsz2TE9BqJ02VzUZ7behZVwow0r4pc9s8ezjY57aKHtTAiWiJm+iok0FI1qMSZPVW/vH7J80/B//77e5f+j5xouKcyXD0RZuUDEcDGlIwQaTmObcanKKi7R9pqnRgNJg8nambFeTyYMOUYRGPFEMjSvQwsKohuAhBN48OuDW7pR7b96kthE/mbOxVvE//rfPLqUsdMNRgWgSOziXbWPgVz69xb29Odeuzbj1ZuDrd+fYyiE2r3UiEDv2t0vX8sMVb/rhbhMeUQ04mxr/hFzstwa8PPzu81RUlyoSbSo3UUBLRIs8buus5lgKdO4+1bxljpmXuaTks3Buc8CFQ8+V7Yp7x8rJ4TFajdBCiHkB7Pb8XnKnFzsT+rTWeBbMVkPImYpmMbPtukN5wDxMA6IRbadY8VzaqLi6XfPs4yPOb5T5PEifM0qeaiWZihBVmYXAnZ0J33l1j69/74DvXvMcNytIsYqpxmAd3oYe1tM8Z5VTqkz6NBeJ+c9cJG0mJgEEURobQVrU+MQkBkyeUbpqBIUjWOHOVGivN5z/xwP258ovvLDK6rCTxGhOajEgSYsifbJjy4VzDlcbLpxz1JWyN2tQY5LFIIGITxsTDWkO21nCPeQIRzPJR4ws/t4ZQASPtnM21x0XNwc8eb7g8e20IeuZx6rZiEJB5qnzM5ZpE2lC5Gvf3uPO/SnX7yqTmaFcHWKMQyuHt0KUgFfF083nZcngP28YMzphdDnRNSB41DTpHjZzouRNTD57VhzGlBSlxUpAwwE+er754gGrI8cnn77PaOB46upK3ui12X82ayqj9DP8WmCltDz9+AqEGd+tGoLxhDBLkxMMEot0vMZypsX8CYBkz17vL4j6bj+0rLvsaDsqP+Bd5AHrrUwoSKw+S6ElaJ3A2RhyCLHL8KwszUm7ZSa+LVCrKNYKly+M2J9Gnrw4xN/03LpzBM5BURBM6ipDxoljnv+YDGOFKHgEnwuR5Lml6Uk4Sx5uvcTAZLgWJA2R0OYE65Qnzg94+vKQTz2zSlHSF8y4JA7vCp2xqZua+cDrdw754y++ysvX4bVbAvU5TDWEQQlWaGSS553an1+jPTjcz2cFg9UC1GC1RNTgYpkNzpW2mNG4OYhPpvE+w9NiUDGUw1VC9LTliBvHh7x89xA3vM/r96Y8fXVIMbBUNqffRJ8edWOXSncq7I9dLNnaNjx+uWSnDuy83KDGYesyJWmIRyUJ+1XLLL34wXemLG3Uus2eMS7BiHGJOBQDNHPOrVU8/8SY565UPH0paSvTj5geqtd8XrAGY+HkOHI8CXzxq/d4/c1jXr2jRLGsbK9nnNMSVGgTGJ4N5M3ipofe2nHBpZb8T1dEPWrm6d4wc4JEGuPz+zoKKSltzaAuqEsLxwO8b/jyV7/HsIYXnt3i4vZgUTBlljYtWiTtsC7yZysBSsvHP7pOaA4Z1wdMfMskAK5KHkCxOjUHjj1v4KzF/FAUzB8XlHkGof5IeOvS7nkJfRU9vcwtFcve6ExyYkc0GDWYaFHKTKtZuJmEt0QoCcSFTCUL0/qZUEuDIJTUnF+r+OXPXmCl3uf4YJcTf8RsMscORoi1BOoEU8Ys1o5pbqN5zx/JxToaTJR+tkpX7Hrjd8HHzhgg4phhCJRmwrgSPvexLa5sV9SDzFjU5BoTl1WbS8Yuhydz/uvfv8FLrx3x5e/NmIVNGG5gyzHGlrTq0dAFdiezOk4tyNpHm3XfJFkUZhZoNOl8iRIlSRNaAjbnjg5Fc9faEkWZh+TAE5xFRmNcUXJtd8ru4QF/+rc3uLRZ8Vu/eI6qMBQ2My4jab6qVTZzbxm7goERPv2JNXb3Pa/e2KeJhsZLhi4VsBhj0CiJTcsCWn7HDV42D+h+JoaQ4cTURfsQKG1kfUV57rGKn3lhhfVxyjzVkO42Y9L5EFN0oVfMvOFg3vKlb9zh1etHfP9aYOewpBxsgLFAnbvXxYy+C6mzXXaldJ1l2mDZbPmXzN9jF4qHSiTIPKWJMCOqYmLsy6rVgI0RDWlDZ4sx4gJ25TLeeP7r3+1y+eKA1XMjLq4bnrlULTrcTMQynRiqcBRWeGzDcnSp4LnnBrxxZ87x7UOIKxArrAxATJr9ox/KWvnjWLs/yM886zB/4oqmvqWE6g/qXOUBXFcz/KMG0SK5J4oDPCqxJ7iffqMuySETM2TZvkuJtEjmnK4NHM8/ucbe3pTvjiPtwZyTpoVqgFiHp8g3pmaCg+RiKCxTJk5HVC9L2KVPEIuZ4ELuMI14StMwLC1PPjZke9Wl7lKXtxmy+KSlczOZtXz75Xt8//qc1257Bislg/EGxlVYawlMUI2YbNJt8hmWJaD3QaM+kU45asDEU19BJRCI2T4uuQrZPPcMKHMNKW3EVmnGWdTsHEzYmU958eV9djYKfv3nLlMUdvHegR5uTnBroDZJD/nE1SHjVU9Z3EW9oYnZy1S7GZrprfbfi/l6VzBD7iytk6xRVJxTViu4tOV46nLNqEolLXTQREeSMclH1YrDt5GTJvL96wd888Vdbu8VHM8KhpfWEWMXTjidEUCHf8gyoUpZNmc3WcqTQe+FiYIoMYdaZ1AXo53xeUq6MTn8OqqAqzEoOtggxpYXX32D/Vnk429OMFLzzKVhnz7TMdXN0mJvDWyNDec2HJcvl+xNpnB7CtSgRerSxeGj72+bs9cZJPvIocwPnJDULxYf/Pbvwa/aF015e7j0wZ1azPOzVAPbpPySgDcTVFssJzgbCSYQZQmei7J4gmVR2FRIgvC8bx+V8Oy2Iz67Ss0V/uzv93jxtWNmTUMMgi1GqRtVn/MZfY7i8rkz6xi7FhuL1Bn0CRKx7x4imjo0k+Z+Kduy4YnLlu31kmefGTN0ZsGT1IhozuHs+kw1tFH56xfvcfPuhC98c85JM2C8dSkdZyGozAgoEtIiVmkJpyaiXdh2x4ZdXKSQZ7NRknQhujTvDblBLxHEGyQaZm2Of4o+NfQFiFEqCQmuE4cp1xEz4Hvf3+UNF/jLj++yuVbyL55fz3IM0ChocIjUOCkQsajAU1crtjYNjz0ZOTgO7F3fx7oBldvAEwg+5I4z8IPSMFVPs7B7QllfOIUQYD5veXyj5OefvcALV1e4ulFQuny2cvankeTAE4JDxIA1vPT6Pl/57h5f+s4+r96YE0dbDFdrJNsh0uYQ6jxTlyzr6GBXWXIKWtyonV+v6e35+2g6SUHOGjIDe97mKbdHgiLapbUWtCYmS8GhI6rh0G7QTAP//k9f4fMf32Z1peLiWsH2uATrwQTwGVYNCUEobMH2RsnnfmaTE+bcuL/HwWTKvIlU9Qgx5qFmNI/aGu+nAfVT9F1nYGcd5k/C/PJRv4vQLyqpYCZZhEpAYsisRX2bNkMW89Slorks9LcGxqWwOS64vFWzUhsKicxj6geNy1NJlR7OpLdCW0RBLb9vvzieknIvLYyS3GI0eoa1MBoYVkaOwrxVpP/gpl0j7BzM2Tls2DuMBGNx5QixBZglOYtqn+nYyVwXDjkPhjXFpWPMHafkhVq0z1s0pLxFiUKMaWYcYrZ/s51SIc/fxGBMgbFwfByYm5adwzYfoyxZ6EkmNJseCRBgNDAEtQyGyrRNWZRWawxuycQpsOxp/rBraPIw7q6gZIasUhaGjdWK8bBgUJolhD/LPiT2phGKEFU4nnje3Jly/8hzOI0MRwWmLNOZ1oWmuOMaS54ni0hvKx/fctWFRS+6HJOuWUq0FNKer4NFIUYkZma3JGJY2pgkQN67kmmcc3Nnwt2DOYfTyOYo32Wd87/EhT1XnnVXpWFtvWQ4MhSVItPEUtZTz9zZ2Oqswzx7ve2u7ofb3S0gUc1djb7LoybaLeMxQYK2TX2dCCFOUQ3UZp4IORKXYp5YkGSXugmb4b8E8SrS+n5H/8S5ksfObWPLghee3eYP/uqAN3cPaWZpzrUyrBBI01NR1ESCGmK0qLo0gcqLozc5XNlGvCgzk6KfvIJRD14p8VQ28JnnzrO9XrJuhSiRE0KK1pIk67CaJCEKvHkSOJx4/sN/ucHJzDKLV7BuwKheQ3UOzAiapA8uE2psaPOczCz+VJdN4rvyFDJ03aazbRPUPTeyEORMJ8h8xrAoKIzhqWcuUxQFRQFN03Lj1j2aJjLZm1GUNWVZoKFCtWTitpmp5z/+2V22N0qefPocq6Xw9EreAcSYCVG2D0peF6gK+MzzQ27ebfjOyweo1kwbB9ZhnAFzAKZZBD+KWeD6D6TjGLGY7v/XfB1VaeZTCokMx/CRyxU//9lNLm2nvr4JnqARzBwkppmiCKUruH8YeO3mlC9/fcoXvjjjwIwpNtYIlRLsDJs7fCOJXOSMW3T3MTGku/g3sQaW+n+fzPVy928RLNEYoghtSFFj5qSlMPDUVsGwdlzcHhBCxIfIzXsT9o9bDpqIj2DsmGiEthgxnzv2d2d8/buBYfMm//pXzrPxuYpSFEtMnSZL5xPDail8fNNx9+qInb0N/u5bc/YOp0h5jKFJEWOi7xyEffZ6nwumcjow7uz1SAveQw15HmGHqT/CD5+WZ+jCCm+x/UdOTYB4h1ix05PFZchDUKwxWGtYGRVsrgXWRpaTSWB/nruvmOUPXUej0oNqcUlQrpA74E4E0dsB0A8zVbGSutvRwDGs3VJIlb4jqD5tApO553gamTUmWflh+s5RtTuuxXxMtBP7d5Sf2PetstQbd+dxqSlfdDVRcSjWKONaqAvD1qqhLA1FITRN5OTIMp1AmGRLwRAXZ1csKsrxtKWqIsfTQLkkl+FtQr+NSfDpsHIMygRlJ/JRTIVvUVKWzpr+gM1aFtl3HZ+CaIrtMhKpnFKXQl0bnGP5iqEsc5TTufIejo8906nSNKCVSUV8SfvbzR5l2Yj+LShbviMlO1st7qL8qbb3f0ypYQmKHVihdrA1dowGjnOrDh8jPgROZoagwokqMaT8WlWDEZupRY7WC4fHnpNZYNoEnFOsWTLPW2LuGhEKEWpnGFYOa9oU3aYxmdOLnDWYP66C2S/q+tOt65GHxPH1IWvQuxXL97I1eWgnix8EkyKnSBBv+6O5MLkc55S00oFgFIkVokrVrlIbpQgOF+3iI9xb7x6rHTY5T/CjadKyq521nOWfPTfmU8+OOLdZcm/f85/++C7Hk8jde0cYKXD1GkYMRfb9FBytCUSBppgQTeDETPASOZCA4lAzoAiOUgtsM8V6ZWtsWKkdn3lhk/VxgZOUYelosGopKNK8TTrSkPLl79xj56Dl9q5BsYwGNYLi2v1cfCyqNWCwkt1IdYaiTF2TlI6iScdKRRlLnBZYn5i9KWYsMjeBAEyN4BtPO214diXy5JbjN//FFo9fGvDCswOqMn1O01reePMir7wx48/++oBbu5FbOyfEOhnih2JMRHn9zg67hw1//aXrPHVxwMd/+SJiFCk1MWt0yd9UoLCGf3b1Iptuwl+sT9kNwl0/wdkC5wpWIlRqaZM5IdKZf6td3Ff5Xo0JZaaIFQZDlZ2ddLbHeATPPV7y7GMjrl4qGGVhrxMyuSiZxhspiSo0EW7dnfPnX9jl5WsNzbSmqBxFYZhnAwTyLBaZZqP9Co2pYIcuHMCaHOhdpI6eeXJ+ci0mCi4aimAotGLqW1oi0+ldrHj+zSfXObdW8Lu/eZm6gq11pZWkG/6HGzNu7Hn+n7+8y+3dhlt7M1QNm+UWSklcGTGfn/CVl++zeakilsrnP7rGhbUyf9/I3LQIQpXuKizw2NqYzz5u+fbLO7xxb4rHIxqxuFOWlj/KmtGvax86dqs8TD/xaJuXn2RI9v24wO/2nj812wl9u7ZRcpdgluQRD5qvy1syltN5laVApswPIhshIBRG2F5xWIGnr9QcnQTa2YQQPd5PCOJyp1Ng+s5gEeOkfeeb4DSiw6rFqkGiIjFQFYZBBXVlqUqD0GYhSp6s6UJD4mOqJ/uHDfuHDV6TcW7nh5DcalLWZidF0QxQqxbJSE4Tq7iDtwWfI9NM//2zNULySkUhtDiNFKVybqPg6naKGttYcVSFUFqwkmQmq0PLxqrj/IWSw2aO3PeoFOncSOLTiklJF4eHM45XLG1InrB2WS+jp0PR6sqkc1QbXKME32DQHMqdoU3Jk+S30Kx16X/KM/DOji8vykaSJreuDVUpyTVKFov8g0b5McLhxHNw3HL/cM6sDYg1qOlSaLK3hdi+QxMkZ1AqC27v0nfNGwWRpRguARXpTQliaInRs1JDVRiuXqrYWi0YDQxlEXEu3e9GhI2BpV2Fc+sOHyK3d0+IQXoD/9RpCm2Eo0nD7v0pTTs+NTVfICL0HXDhDMO6oCochTM5YCA+AAP9NKxFZzPMs9eHttPufXOyj2uGqnKyvYkFNipGFzPE5eVSl4UeWYsXY1q6ojg6LR4KEhNUWojwc08PUYVnzg05OGn5vT/+PjuHc7783bs0WjHVEaUbUdohg2hxYlLiiAE0zcBKHKIFVseUKlQqqD9C2znnNyu21oQLWwXjgQGOMGQmKjZr9NKBH0eYB/jW9/a4uzdnzggjjjpDgMYI0TvUF70jqdcyQ60DIoGgIcWSmTngQeZ48SRj+hRPZsMgQWxNA6GF9oDVseXCdsl/8/Pb/OpnN3liw+REi25eHKgKYXyxYm3VUW9X2C/d5drefdpQ0GqREjYQymoE4nnpu/ewbcPx7AKVswyrYsFuCsuwrHB+u2IaIhcvlswOIu1sj2SUWCKatiTdzqHPj+zSYvoCJOl7qSA+SWOcJPs5V8JgKFy4ULK55hibJai6c4CLnfTCMGsC33rtmBdfPeAfvr9DY4aY0RhfWNQYvI9EBeuGGdoUhECkwRIpUnx4oofFJE8JPutjy07nmRjeAdMXzXZ6hG8mfPYzBZtrJf/D71xmVBq2evg45IgByycu1XBJ2D2ZcfN+w/dfuUVoFVNupnNU1DRaMFXDKzcOCfN9fuHpFa5uD8Ak955Ak5+7BfN8bVRx9XzF+fUTNlci+ycNISgYdzY+OyuYP94NyNlIYLno6QPwMqdYnvoe7Z67AplbgT7ZvjNaT2ttKrUrQ4Nzls98fIPdw5bGWfancPsYmnlD8IpvDTEKwceexCEIhSazdBOTP6sCYdag7ZyqqBnWDpf70NhHddncNS/wn+PjluN54HiiTGaCuopoLI0IDjCaCTMYyH6kba8XrfLynAqoiU3W8SWmscejksSfRYbVfOMxJnBuCFfOlbzwzCpPXqjYGArWpC6rNz3vnIhM0ukPhspgCIMRzE4Umpis00Sw1mFQTmaBw0nL3f0Z66OSYeUyHNx1WYvl11mhKIS1ccFgOkXmRxg7wFnQkOQSjRVi7vQ76L7rpLVjWMcIanCazlcMTZJgxJaRlLhRjS3d2z98SzicD5G794/ZO5owCQ3RDoiFw+ckGiTlYGrs7qkFfzrJj0xmXC841CazvG0nJ4kucaGC4P2ctp2ztaZUruCzH11je71gaCOlpBiy7ir0Zy4X+rVhMlYYFop6xYd2QVgTEGtpfeT4RDmeKMcnkeFAks8HD0TySTLBGgxgOFCGdeToOBCCIu7hjO9/ElZ2PSuYZ69/Qu3mW25f7RJ238PNbMRleC7XTVm42iSBecRmJ+/za0OiFPzWrz3G3nHD1tUh13amfOPaMXfuzti7f4I/Sq5qcZ56B2PGWLWY6NBoIIDRCHjCyYzYThnVI9ZXSkoxuAyfptiwMhkvLNnq7d2fs3vUcv9AOTgWtBqiYphZwakg0WGxWBwiM4y0TDUJTBxDRAyVDHIxbgjZoC1KIHZpGZLMxBHBz1qGlecj68InnxrwG798jic2Ci6t2R4edh2OaxaPbFHAyhqsrsPaJhzPlelUsdYhYildiahycOLZOWh5/faEx8/BhfVBHl0qmHiKXFWUjuHAcH674s7xCXa6S2FXqSyIHxDUMS8twQhtvg+MpoDjaFoCkShJlgJCEZOZg2tnKTJOG0biKNdXcIPqtAmCLs3fctFsvOe1N/e4eX/CQZhizSquKmmTkzBiXaJhebNARTKpLNvu96kjMXfpxiZomOzJKqEixEgMgaY9YD4/4mNPrHJlq+bffP4i5zdK1soGIRLiNKXnUPYFs3Pcu7BmKQrH2gAkRPbbJp0LE8EIpiiYzgP7B569/cjuQaSqLM6k6byonEJaqwpWClhbiWysBHZ2AxKymcQSUejs9SEqmJ0k4SHaiHcFCd7Le/ETDjosTMH1Q3lsC4G9vmVe0hlq/yAvUcgWZwq+Tfo9W9iO6N97vGZsls7RXWUOCBUVG6Xjs4+t8sTWkKcurfDm7pzdA8/OTmA6U44OGkKAdhrRCL5t0GjQkFJJjAb8KBK94eKm49x6gTFdp1HnImnfcqft7J3w5u6Uk7lh2gpNUfSaRdORTEIDviHqAVHmtJJszec6w2CwsUBMxNkaQ0EgeZAGFtKR6Wwfo5Ht1cCFTcdvfH6Dq5cGPLFRsFKTMzm7M9oPfum8e6NCE6BpI83co+J/QzkAACAASURBVLELj07dnTHJr7TRkpNGuHlvysqwyChs6no76wbJHbcRqJzhylbF/nHBk+cclbHUxlC1BhctKyUEo/h8zbqCqRIIEgkSe0/eQkPSQTYpY9QiXN62XFwvWBva08Wy767SvG6CchQidw8n7M88vkiRaVEyfEoqioIS22M0RrSZQc5L9WpQcRhbYExBLECNMrepE7aaNku2KcBPifNjtlc94wuWz39qlaevjLm0ahmXikia33ZxsjHGZGpA7HN7mlmkmQRoUv6lxSJiidahOKI6JnNBZpG9gzn396dc3B7xlsiEvCd1AgMLq0NYW4XSpHwb6YjXH/AC+YF2rY/6o+QDKJj6Ho490enl3c74w73X2Ubmw1M03/ah0WXG/jtewxAiRGjnHjFCWRfE1NTkopkRrU7ADSipMympKUvH+gXHDHgOuHV/yr2jhtff9BxOInduHtG2kZP7LTEo82mbCyaIBkQDoVFiELZXHZuZWET+hLQpWNjpda/9gwl3d06YNIaZF9rS5VQJxZLNwIMn+oDGY5QZ3niCKK22WCxD1rHG4kyVLO6IBA0oMXnxSqSZH1FIZH09cPlcyS9+epuNseXSmgP1gMf0loNmCcZOf1cFH6D1kbYJiQ/SPYMaEZuipLw6Jq1wb3/GlXPDpRTIpbljblcMUDnh/FrB7nrB5U1LhaUSQ9mkqLVRGYkGWpuhTc0WhCbiJaSkGRJRymWdq84SkuDEcGHDsL3qGA/s6XtMF3N0RZgROYmBveMZx3MIriBamxCKDIkn/rLStlMkeOJkn05aE6QgSo2tDLZwhJxTN7eJOFMFh0QDjUMbRacT1s8rVy8aPvPcmBee3GC7hsJoNqKPOZO1k47ExflD8PNIO43gFfGKcTZBxiYVy2gc07kQ58rhUcvh0ZwYh2//pOWCKZKSxFbHUBqYa7pWEgU18j5Vl59AiPcRcaTcP+Xv/7AX8mEo1g97Q/w0hVvr6ZHKD7Wr8xr4/T//Norh8tXLbK1VfOKZzYW7qhqINi97SsiEhs4IRRUKgVWBclxyuXY8u6K0QZk+OyRGJbbJEab1qYgENSl4mAhxDSFyYbOkLg3O+ERe6uPJbF+PYiYh7h7MePPeMbNgabCItdlVp0XCHJ0fM7DKeKRcfaxmbXXIYEsRB2/swXymXPveAdEX+GPFuJqiGINpceI5nu4SYstHLntWh5bf/fUrbK0WPHG+oJAI81nScoqC5EAzSRmOhhEKNMDtnTl/8409/vGlKft3Ux6LNVm+Iyb7n0ZCHDNrDDv3LQdTYU4iO7ne/CFTTSGZU1jl2asDLpy/xEefW8eSIOiqsbiYzOqlOz5dultMdu81MW2IcoajQLaRU6x46spwcSNSOw9RUbXJMEDk1PO433j2Z4H9I+VkXoCtQapUTNQnD9j5AWjLE5ueQQGffmIdMQZbleyfGO4dGm7szNk5nHLYQutBB1XKJGkDxjfEk/tsrcKTHxnx859d4bOfHPHUhYr1qs2OPooJVY8MaE7TMSaZ0h/NhVlQvvoPh9y8O2E6qwlR0mZJLPiY7mhb4anQ4Nk9iNzeTSQeYWEQv/zwmQy2rQ4M22NL5YSpSQHmPy1wrD7CzYA8gop5NsM8e71rty8/5O901nqv3dxLHUe9lvgqS4r9JM1YIhllzzdZgqcMYAXKwkJhYZB+1meeopAILLmhTbCnxp6zKwJF9nGVLox4YXi7kBVkuHk290xmLT7aNPUyht42QQOEGYWDQSFc2Kg4t12ydVmwBUjZcHwcuP3KNMOlAYNgbUXs0kl8SwwzVkaGjVXDc0+PWakNK8O0uNLmLFAD5M5Gpc2almGfGzqdRW6/OePgvmc+FajSiDOYuLA3FFAtCUGYNYbWS+cz1NuMdx1phwJZAxsrBeO1ks1LKz0hq27AxQRmm2WGSnf5DP2MO6V9CJr95U02arDZ6ciaabaFy5smOtMB6d+yCZF5iDQt+CBgytSxIRiNqZj5KWjLSiWsDg0fvVphrMHWNXcOQCph52SKHs1popCUwHXKJYnJI9b6KZUruLg54COXhrzwxBpj5ylNdkUCJBaZ+Z09ZSWmrFST/IanLdzdbbh9Z44PDtVkFq/Z5QqRLPOxaQ7cKNNZ7PYp6VoszW6X4/oqKwxKk32Rk2TmDIb7EM4w5YGZ4o8Koz5Ud9bFsfNguuKHAyJ4ZJ+rP1wx+hEP/l33a5JzLjtSyDIjVh6yWPY3l3MEFf7xaMT+UcO//8K3eO6JdQ4myjNXRnziqbXkniM2pdfrgjnK0iynF8d1Pa9NM0/b374JUrWm25GG/pe6o+/UE22eWTpxqXgv6S/nLcwCHM+SO05r5gTrMjNWsfMZtU5YL4/5hU+e42c+sc2nnx5xcaPE5kNpPw7Hs8BfPTnl+o05f/aXR5xMDznan2Gcx9jI42ueohT+l99+ko2x4/lzJVYU4jSvnpKkDpKrpihGyizlKNg/9PzBX1zn9RtT/vpv9mhkSOm28cYQxafQ527KrBBjiW/h+EiYTAxNA6UVlr3zySYUGgMiSm1baoRV2j542ZQuyYneCeOS039R8k4HEH27O0WBNq8LifXaT3YUJofCZN8wOxrgfUnBMMW+hTmmmWBCyzPnlNWh43d/50lWR47nL9d5DCpMIhwF+NL3Cr5745j/729vc3tnhjlJOaRhcsjqUPiZnx3wyWdW+O/++SU2x4a1AoxmqU/H6NG6P0/GWEyhzFSYBvijL1znH166z1e/M+HgWLGj7VzYUydeSAs5PkBNhVphf2K5t0+OS0vRYpoSONMGcelk1qUwrg2FUawsGNkf6MZZHj0z94Newx/F5z1Uh/koL827EoNEPpREmPejc+MDvu2X7b8f5vj0h/hO+sBDJpJmaPMQ2Dn0bB207BzM2V4rmM48zhmsWSL9LxhHvJWmq29zDk9b9C2oRPoAsJOt27PEQCUHYMtpwkWM9GL4BIvmzlQ7SBEqCyujlHqysVKyPi5OgdeVs5zfCJwcRUZDoW0jaJOJSJFxbagHsL1asj52lDZxOPv7votHk0X7K5KOed4ok1lgZ69hf79lMolQCVK5Pgs0m9Yu4XbZVTWNER94vN7+DjR5tmwWseIY0V6G8s6/q0v3mpza0PS/8U54oj5ALgtduopJXry5JxYiJgZMDIxqw8rQsLVesjpyjEfFQiIDFMDWmmPrpGClNhwWQtukEyHiqZxlY92xuebYXCsYuqyEVH3LU6NL8XGI0PrIpA3sHTXcvT/lZB6ZB6EWh5jFxqIPp+sMH8QQYlcsl+FCgbd57oxIfkaW7/kPbn75XorqT3qqidMPKUvz7PVP/xVz2RqvP85MWmQ05vW9Of/bf3iRj1yoef7qkF/+uat87OlNLm7W1GW3m1fQpl9hY7/GJuG5RHvKmUeXqIWRmOQbpCDmpu83E0nEiuuhQSMpHrvb0XsPTQtBhSgCJqRC6RtMDFRt5PL2gJ975iq//OkN/vkn1xZ+oE2TDqRyDCv4teeH3L1cc+nSiC9/7RZ//oVrDEtDXVj+p3/7PI9dXuFnHy8orKJ6lBxnjUU1edbGbFZuzBBj0nlpmsjv/Zcb3N2Z8ft/dAvsAFNfgNJBWaB2nvIbcx6HYQCieDMnamDezvFNkai1Iqn76+uCZPjbZYN2JUpDYNJ7rhYyQHAE6QwC0rzZ0BkrxPyfQCA5IPngEhM11/LKJJWksXW2fGgXqIDYvmh2t4DOhTgvQAsKMhkqzilpqSTwL3/2CR6/WPP85QFlkWFWUuqLITKUyC89M+bnnlrhsdpxe2fG//1732I+93zm01e5fGnE//zff5QVp2xWHoJAK0SpU1g6berwXZM6QVvRRpjN4W++dYc//+p1/valfV59c0qx/jhmPGBqS0ShauepgISQQ9WLHJ9naLPzz2L5zQxyyUj8UmyONYbCGqwxGKPEPixI36F7f593+WeQ7FmxPHu9f6+uIFnjEAKtFhzNhbsHgZu7M8YrE8TAqHaMa4cxUBpZZEjJA13JWyKO5IFmQB5wfl+YgC/in1gy6X5bV91FPJcu4rucNQzqgtJZnM0fsrzpjItaVBawNjZsrlnObxeMSkdVWDZWHGujNJOSbCBA7n4T7LqYZXX9yf6RZzoL3N2ds7vv8eoQHNYa1MgSfK5LfYgsDk26g3uwc3qbM7nU2S66nlTAVd6dOy8P80Dr0lziXZ/8zsx9IXPqrl/pDGXhklyoY68u4Qqo4oxijGFrpUB95NJWxXzuuLg14Px6xag0lCbmXlqWIgIy4rV0GB5l2gTu3G+4tzdld79h1kI0jmgWXsSLqWyeeS6lB/1gUf4yDiSnz4EsswM+fPXrpyEz050VqLPX+1koDUrtWwYhslGtIGaEqdd4/eSIF+8d8o3b19kYX+eXPrnNufWKX/vceUa144ntca4Z4VTKhywvPFHfUj87kXqSgRjKvLJEPU1Qcbk1FRP6kr548pNsIVE0BB89khNExnXFlQtbrIzyz2ubF8Ss5/QmM0UDK7Xw2adLtsabPPWEY1yVVK7gk4+PWB06QmwJqjjtHE8TSQTr8twyRRNHhD/84j127jf84Z/exQeHGT8GzqJ1SUuLlzlRPCqKqEvi+uiyf2vSVxobsSamAiKLhReFkBd6153Rzlg9Baeh6lGzgKhTzxv6q9xRjW3nKay6ABg1efWarGNNHWyToGPbZV8KxuipZEqT2cw2p8CEHNEleKyzlGIZDmpGwyrnbSqNNOmz1BA1dbulSfaLv/LCGiEqF+U5vFee+uhlqlK4UEJQZaYRh+CMIWTvYJ9vrsKl2+0wRL5//YD/9Eev8PLNE15645iwtk59fpupOKIEam2TE5B4hIjFE0VxYojdfF1iCoOW5d6lk1c9AHt3tzuWICm2jvxsfaBNxlmx+HCyZB/1TuVRvt+jPDJ5n25m/THd8/oO/ZpJluO9GTU4rBtQ1MJcPYfzwKu3G3YOAmuDXUa15eDynNIZ1ldKitJRD8q08C2vMW+zEe9ViyLLbndpx9/xgcj2aKKZAaq9p6ixYI3Fis3DTEn5iRIJMTKftxwcnDCdDwi4XrTe7f6XQ6oExahnpTJc2aioXEFpHc5Jbxif7s9cbFWyyw29wcH1u1OOp4GXrx2yf+DxUhOdQ53LISEBn80CdMlQXZacYzRTbo0pMMZhRE6xUZEUEg4QdeHpKhl2Tc1+NrbPm5HFWX1wGm+W/p1nr3TvxTKFOnvOZgapLm2E8g86IzgrWNvpekPSoQq0UWk0mZkfHhlUS/qo6fxWqUA7TDT9fNsaOLc1IEZlNBAKl7vwXGT79SK/h81fduIjs3ngm6/v8fqNE27sNBzODFKMERmAljhxqEq2ZlyKNO+87zR1m6opPs3ZtwodTqfW5ji7GAk+EFQXDFk5K2BnBfND/tJH+B7v1/3+4yqWP6iEFp0JdgiJFWsqinqEGRecTA7ZP55x8+v3kNDwzZduMyyFzzy7wvpKxWeeu8j6xpArVyrWS3CmAxvp4a/TMOqpXnEJKs0/2ObjKuICXsxSCOsSFFzagspUSBAIBls7RAOtjxwczbh2fc4zj2/RMqAQk4zbTV5sYwZSJW0UCm25smZ5Yn2978Z8D9LZXNDsQhtqBWyavTYIf/PiLq/fPOFP/+omx5NIufI0WIcO6+xM26DGJ4u73GE7TbNeqybNH4MFNRSlxRUVztmFesHEHKKcbeNiKpjWpii1pMF8L1vAdB7y13j7i7Ek8E2yC4sR1xeUxAyGujTUhaEsDFOUtm3SJXfCZKa0beTW3WOMtsSwCS6luXQ112T7wi6dxGbDgo89v7mAmrMcSVRweX6bostSeLXNPfOdWeTu3oz/8w+/ye6+8t1XwNbr2NEWOIdiGXSB7223K7Np1mtSh2zUg7YonqIYUlXmbQQI8S1bat8G5o2niZomvmYZaTl7fbCQrJ6d9PfYrj7y/lIeYXkS3lnsKz90d/sgM1If+rcUmCpMVWjEYkWoUYwGrE8+s9ENYLANGpi0JzQx8p03AqOqYf94j9XxERe2D9gcO9aGjlFdUljDoLYYA1WV2JvWLoqmdpqKTFhZqWsKaxlbl5vBcPpMaMSZBI3WlWNQlznhQhZuQIVl0sx549YJL1+D89vKRy6OWR+XfT32Js07TUwayCTDiCjzhc5OXN93dyfKkGtunqvevD3h+s6Ub35nlzfePCbYCjs0xCpDhSYQifjMYU21ydAHXOnC/i5KQCzUQ6GqhMKCydBfzKSbBYCajMh9kxbpo+ks6SlFehausqxlTSbni8YwzTnj6brYw4eiqbMaDwusEQqXw8B1SQhr03ca1IbBQCiqVAhDE5Im1licLbBBee3GAUdHhtfuOlZGloub1aLnVbJdIEuxWckMvevm0jPjHrhrQ78ZixFar3zl63e4tz/j2i2YtSVmNAY7JEqZuthgkczG0Z6QlvTAIXhCP8tMZ6WshMFAFgUzY+PZ8iFpdjN60fpAM29ovKfxmqi/fDhnhj/pxi5nHeaPpVienvM9iqL5IPn9/YWD5T2950wNM4W5QCmGwpB8P0OkMgVia6Qcg8D+8R6x8dw72MGZlldv7DKqYHMM25s1m2sl59bHDKqCjfWCwgmrayEVzryQGBE0auLqxACqXNnepC4LRms2S+syEUNMv4g5EYyDYVUwHFQp9Eul1waawjFpTrh2a4+Lr0fWVwNb45L1cd1p7/GazLGdz5nFYlJXoW1qIQXUDFLgcQ8iJq3lMsJ5/dYxX/3uHv/w4j2u3z5hsP4YRVXSVIYoQmMDURMbOEHQJpvJmwVmp4moEyUghWE4dtR1KpiSF/DUs0Q0G5GrWjQI82nk4HjOrb0DouT8SZPi1JJNnCavVAUbU9qLUYgmotnzVCUZx6diHtJxRqGuCi4XG1TOUDiXjQtM0r2wSEAZDhzDoaGsE4c0GE0F0xqiNQRreOXGXe7ca3nt7pDN1ZIrmysZGA99ZqfmtJeeKSRtz6gGSfB7B5FnYwIx6aI3bfLq/fLX7rBz0PD6TcFUFeXmNhodqgVWC1x0WO+Tr61tU9cuhqAR383aTdK4GqPUtTAcmQ6YWHTcEpdoTenf3ntm85a29bResaU8umTls9dZwXzfdk+PoGbKD+jVPsj94rtnnXfBv7HPNmSpa0Metugmz8toJBlzEwkxJGKGSGZfkqKcVbDlEEPEVg7RSKNzfOOZ7LXcPYKiaCnLPYyFYZVmQXXpU4dZ5O2C2OQpGw1+foL6ht/4F09zbnPI9qcuU+VWTtTk+aH2hVaAtbWC7WlgUITk1RpTRFksHQ0Vvh3x4o2G3eM7eFvy1H7DZz+yzrByuOyug81zxNgtbnbRc4U0uwvGIyQIWPLg7fa9CS+/ts+Xvr7L37+0z2QyZjBYw9g1MDbbMURaSRVZ0VzUDRoMMZo8b5RMLAlYOaYuSrY2Boyy4bloIttYupBrm6FUy3HrefHGIa9e2+OLX3kdXI0pqkwsCnjTpIY7DjFqKHzVR2hHaQnW0xoliKLq0nywbXP42YQL51b417/+KbbHFat1uUjpWBrOicCwhGEljNYsBwR8EyjFUZsBI4TKwl6j7LeB3//S65xbK3lsZUxdWbbXq9TpGt/XlgSBSw+FI0k+07YtxhisSd6viGEeUxrKn3zxFrv3G77xvRnTVqhWrhBtwVyLNKWW1KVbPKVNMiSXMz7FJzFTIcnw3odAiaGyhvVxweZ6lQzyl155Stx370pydDo+9sxDpFVdSJl+JN/KpSdUP6iV5f383A+oYJ7tU957F/coAdlHVTAfPcALD0ZJvJtk/R3Pm0iyjM3oZsegTDZf6b17izBX5v9SQgyExtG2DZMGonpUA54ZKoHSzBFRStOmRdbFFFRtHBotGi3tyT7Rz/joR8/TZk0nRvpIL4mmf3K75XowsIzGjtJJIhllWzecJUaHtyV3Dk44OJjykWdOoHZ84uoqpkoG7QBqbSIM9SYEpjeYT2agipp0R1m7OKvHJw2vv3HI69eOuPbGCWZ0kbIYEk2NGkPMmZOxg5S7LEi1aC6cIiabRgQkRozMcc4wGlmqUnrJA5nwlAwKMshqBB/hzv6cV24e8ZVv3cWUI2w5opETgni8naMClV/FqKXyI9KWx+NNQzBzGhsJBjSWgMHM5ogGBrLPk1fnfP7znlFZYMQs3fxdx5+60dJC5aAcGNwkEqNigqEIBRXJQOJwLniNvHhtn/NrFQfHDSEWbG8MQEJi9naM3djpfG1GXNOGLUWRpbktYhAjKQUnwkuvH/Hm3Sm37nk8jmJzPSfTmEyUSo69Kf3EJ4KUSXpSEyBK6mDTxtPgxOCMYVg7RgN3qmBKv2lLWtV+hukjTRMJGntNsixLpR7BynZWBx62YJ6NMN+PzdNDv1l8RG9vfoQJ5dt1l9o7wca+CxTNHaG8l3dTnEQcEYfH5GR7L0Kbd+i6RKWXvhAkiFLKAlsUlINxMkJQCJJo+lbnyfs0d72eSEBopEBMidEaX94nyoR7hwNcKclvVsGoze55IUGhbqE5vHh5gFst2V4/wknk5CCiVgkFiXCzMqZpKnwb+LO/O+GLXztC28i5zZJ/9emLvStLb6AOSIY6O7s/EaXOur0psHN/yl98+RYvv3bE331th5N2BVm5ipQriC2IkqBhE1OBq7zpLQJEY2L7ikGs4jXxM2MTEAJbI+XiuvDRJ2rObWTcOuaCnmUOzpWoCEcKd+eeb9w45tqBYzb4CLgR4kY0bkI0nmDafNOtYKPDMkJECeJpzIzGTZkaaAVMHCE4avUYbZnP3+C4GXDrzpSRs0uVIpnm61KHZRHq0vD01QpVZRwahl4ZSUEh2RphvI7KiGtHlrsT5X/9d9/hiStjfvs3n2RzpeTSZo2PLUEDtis0sWPyJshaXA6eNsLUR+aN8kdfusUrN0/4k7+9z8FJRFa2cGJTcLeCC8mAPf2TIOpWQg4MaBEVys73NhTEEDE+sjGKrA8CT1wqePzKIGt5814BwanL945h2sC0idzbE27fFXy0YJPWdOE7qz/yPln0EW6z9Sd76T/rMD8E98OjYt/K+/7d9YFY+Ict5tlqretUZSE/1wej5uX0n8liLLEV6X/HIaJIyKbooROpp1ipiMNQozIA04BJSSZNuyCj/CDyUlVbBlGoCihcIvDEHjUUsBYNEL1l/3COxIY792dgIz7k9d880PV3Hrm6IEYYSd+/CZGTeeDmzpQ3d6fcud9gKoMp6lSgje23MJLncl3sV0TzqVoY78bcn8SYgpILJ9SFMBpYqsKc2tCIdr1lduZBaaJyPA1MvRDtAEz6J5oEcUaTiFPqh2n2aYY53stn+B2CSaY5kAom1kNsUSqCFsybgPenF3vtM1IXKaBWYDS0DCrBiSbIUpckKjZ5As/bAg2BG7cnlKVl/6RhUNnTdnb9oFD7vNde8mISsSkZqQfu7M24fvuE3SPP8Qw2t4oE9XcyJX0QRdFeFRk7Fx4xC8/oLLEsjTIslboSBpV5C0nGLMl0YoQ2aJ6jygK1pgcXMmx71vV8EOO4sxnmh+xi/Ljf48PyKae3EZpF24u/Sy/cdqlgmkVfnHR/JpvIe6QwqJTs3jskzpS9eYN3BZuuSExZmfVuLpEkD7i0VbC5AU8+VjMeet640SJWsHXSPkYXKQqHsxbvC7SN/P4f3KNwgeiFzdWSf/uzV9ImwZISSHK8FYB1gmZx/PHU87//ySvcvDPhP//FdXAjdO0Krhhii7Lzh1uyQSswCIUfoGmaSZSGKFPEpq7chxKvhlmTHIkuXVrj6pURn3hsRC3LusmOsZuMF1Th/rRl96jhxs0j7h9ZxFb/P3vv/WRZcuX3fU5m3nufKdt+ejwwA7sEsQCWC1qRFBUSFcHQD4qgftF/plDoR1EKBSUFFTS7XO4u3WLJBRazWADD8TM97buqyz5zb2Ye/ZB5zauunumZqbGoBzQa3V316l2XJ8/3fE2Cly1YU2CM7ZQizjps7nok29uITbpVaxMMb7MjkcSEh0czYdEIN24fcnWjHLQ4SoxC1AwxS8p/nI4cf/u3LrHlHvLGqzvsH8/ZP36IKdcwtkLVYyWwUV2AEHj9/h63Zg3v/q+v8Dd+cJV/9Pef56nNERcmYyQTwGBJax5gsBRujbkKBw38wU9u8B/+7AY/e+2Yew8byo1n2Fgvc8qNYlniVKiCIGIRScSftFVJZv/BJgRkZnya1Qcg1pSLOU9/Tfj6iwXXtw0XJkKHyPrhZUlJAgezBTd3l9y8W3P7TsCaCZPSIibHhUX57B/L33RI9vwUfFU6Xz2TvLfH973yhTjG/vee8dDambVzqSSSz8YBeVzpPTRLZdkodaMMg05akXg7qXXGEIHJ2DIZK4aQBOlqM5zbMy5FLBjDsjZ4rzzYWaJeOZo3FM4wLm3vaNY5kCc5weHMc3DccH93we5Bw7IxiHFYUxKNGVj3xc6mL5k/mM78zrSSjG7tzPEumqE7YDwuGI+Sybtr31Kltx0c0LyaJlI3aWbmvek+awsZDmUrw0NS0Q7K71uqfF0GFoUqhqiwWKafEzSdeZFVnnfb/xsD09IyHVk2xob5MhI0M3tbhrEq7WQ2moI6wsFxYHe/5u7OjDVnWSschWljtHocWDNfeFEHdo4bdvZrdvYaFjX4aClNur7aqmq01XlK50bUceHa983XI7aGDKoYVQpRxpVlfc1ROMnzbukvw4nnrgnanafGA6XpZr4fJB87f50XzPPXRygonxjklc8+PujJetskBWjhSRuLbmlt0yBEwBnNW3aPFIlNuvdQaY6Ud96JbG9Ern6j38239utpWhtYw4AYfvidDXb3G37y728QsGi9TbRCkLILUHbTCWZSoIcjNAb+r//zLba3LKYIPHt5yt/73tOItZgTAn5V+Ce//w4P9pb8s9+7gZcRxfbLRFfiRxNqaiINThsMAZeJMAUR0+8kJQAAIABJREFUo5YiW9cZinRGIkRq0EDja2IELwvsyPGjHzzN8xcK1jCtaiKdniiJWZOd0aNXbt0+5NatY+7dmVHrGGPWEWcQJzSaCDQmu/10JdKEDMkGosT0S7NJeMw6z0xGUjtm5j1vvV/z1GXPziKyVgQmLiaTeU0zbjQV99Iavn6xwjw7ZvdHG/zbvzjirdsPkbICO8VohWgyxhBR5NJTqF9w+xj+4D/v8rO/eIf/4e+/zI+/f51vPbPJxrQE1rrr4KOy20T+/LX7/NPff5M33ml454ZSbl9n/fKY4CTB8SFJXoxvMBgKKVJiCppjyYRlGgsTsllCbVz6vvmCLeO5vq587+Vtfvzjbba3CyAQYho5OJO3CFLnZdnx4MDz6vtzbu0Edg6UYtvhjMMnQkFP1dFP+lydv76wBVO/oBdRz+hrvhL48Bf2QE/bEAz98foZVQpPjmkRFYjB0AD7hwFrJM2Zsjg8Jx8PDNlTH7UxtcSorE+hDspRaHKGputyOSIRxOOcJPE6Fd4LN24eEZvIW1f3GVcFk1FBjCmu6uioofGRm3fnPDxsUBmBqTA5cLjz6u62AsmA3WhnRZDpTZIDt02CalXzir1EYmR9atlch0tbjo01k3upk5uhgRm4KoeHNcfHDU2jBAPGyiMcytPt3Ibm749eLmnZsMYRVTleRI7ngYPjmnIqTNxQTJHftYXeRRiVlsvbYzbXFkwqZUaD98uU6yl98Fc7MBfnCFjmteH2zoI33ttnUhVsLwLjcZlsf5vAvAm8u3PEuzcP2XnYsFw6nB0hUgJFdh/KBX8YvyYpEQVNBhIqpjtPkjvXJHUV1CujqeHS1ogLawUbI4vNxhNGC1aGk9LS7GC2DOwdNSw9qJgVE8Jzv5nfgIKp+oQggshnPzE7vwO/JAW9T6qQaJFBLoQh0feTUjEFKRcGXCEsD1K00mtvzbm07fhbv72WOgXKzlIuq0HTXEng5ecmHC88X3sODo8Dr759gCnHuPICC1mylJrG1ESjXJhMMFEo/RWaesm/+FdvcOXaiFvHhzx9bYsXnrtEvRCCF175ix32Dxr++E8esGzAji5jTIG6UWK3Npp0nMbmzldyd61IZoc2ZolEh1OL1QonBRoWgMcsjoCaF7814fIF+OG3p0xt23WbZKwu2bvOxCx3cYSgvP3OIbfuLTg8brClMtos8JIg6pXC1EKtymqsmmQEQLt/St9hU0E3xRQfF9x5sMeNu3PefP8Ad32NrXGFNUm3SMgRXdmlx1jLhc0xP/4rT3Fzp+GX7+zy5vEhh/PA1ugSYgscBRBpTECsoVhbo5krO7OaP/7zB/z81Qf87b++5OrlNV54/hLWGvb2j9jdm/FvfvI6Dx4E3nrbM6qus7n+FLVLm5Sgy7QJiDmsznZVnEiDDz6ZOogQxSbEQspEYGoKtFbiPHD56pgf/5VNfuv5CS9drqg5pKah9Bvp3mthbKcElBnKrf2aX797xN4Cgq0QsSloOkeY6Xl7+JHW7rNwITrTgnnWJee8hH3O3dwXaBOhJ/+f9uqx1qgtavKHTbT7CBoxYjOEWKIRbt89pq4dD5fbVFbYLvLMKfYPlGaZytgYpDB877vbPHjY8P7dPWq1LOZzmhK0dDQm4E1kIUucEUZVhaoh6kX258pfvjHj5k7grXtzmqUleMPNdwPzudKwgVrBujLP9mosllJdF3Ydsal76TR/sXOtMQYkmsRC1RL1CzQEJiZgXOT739hMwcoWKiHpaTS74Bgd7E2FwyZyWEdu3/Hs7CnWTTCu7HrZoKHrHlMiTL+BUV3lHre/D/WeMcaBDZ3Dx5K9o8ibNw+4uFFw7fKYMjeIvSF+ax0XsRbGI8f1q1O++/IF9t9UZjvH2Lievqe17YshGTZYhylGyHiTpTbsLTy/fHPBe3cj792LGCMcHs05ntXcvmeYzwuqUYV1kzQDj6SQadf2u8kRyuddgo+a9MXODCbrMSsos5H9wlMSuXCh5PmnKr719REXt5KwSrpU1jYYIOSNi2G+VG4f1dzdabj7wFMHhyktxphEJMssX/85NBbnHeZnCWmeX9kvNVJ7Vm90cqenH/qTe5uHVcOHtNx0XQ0pxktFc+JExEiBMw4jCfp6590dDg4t95fXWHeGC0XZw4aZMBRCMkKYOsPYGP7O37jGjVvH/PSVe+zPYXcvSSkYjantktoGZiHgFC5MLqJaEZZPsXN8xFuv3MRUHjv2hLok+gKdb0Mo2dy4jCmEskxuSiHWWE2hzBoEjRYvSatam3RcjTSJCWwFG5OvqtUS0RFxeUisAxubkdFI+Xs/usT2Wskll8y/U1JL3kyIZju/5C2z10QezgNvvd1wtFDKcgN1jmCUoCFrO9M5Mmp783vtszjb6yVtzJfkH0eK5krByAVRI15H3NsP/MUbOzxzbcrXX2hDvVNPnTxle3ekwgmFK3jp+U0WYnjv4U12dg9wcSvFgNnknqTGp07YFlBZpJwymx1zMF9y9xfHoIdMxg8Rgdm8Tp9fHVW5xvraZSQWiFok+GzqkMlXJseHmVT8o/rEDrYZ1VDF5UJfaHL80dmcamz52rUp3/3ahL/2/TXKyuMINBm2tWIycavON7XleBF4+/aCd24tuXGrIZgxblzhXJLZxBDPm4kvPST7hHDrE3XF+hnnvJ2/VqtX18SdjCTO11nP3sPhUcKS5sVsGOebDbXl9I+c5pY5qitLTCTLFIyrEBH25pFwEPn1G/e5tjHixZcvpwKSHWFSpFfe3Zm0+39qw2H8iB/88DJv31xw5xd7KctyGTAiFFLRqCcoHBARAV+sobZIvrm2gVhjxGGtxY7XEXVYlzSEIcbB86EIIcF00WSVnaJl6jqbmCaRjaZODWPwzZJ5vcCxT+Fm/OA721zYdry8OWI6shhNbg3qJUlpjO8UCSoWVcMb7x6xs+fZ3ROW3mLsiGQRqz0DVk2+PNklKe9ZovZOUJ0kVHL2ZZeHGWgdbFUs4iYczI947f0jvnHriOtPHfHyhRGbo56+3G2K2ntAlGvbFYUzvPmtY8aV4dXXD5nNj9DRBojkjZHga9MlwDhjcVVIHq9ROyOOosibJOswxlEjKfkFj0gKbivyzdbgiSgL8UlnKiDGYVIeSuoVY8q/rGf7iEaubEWuXxrzX/+dTb7xdElZpcIOBhPLAUyoZNc+PJad/SWv/GqH928vmS8L7MhhXIHqkrjCED9/fdZjt890hin9Y/Yh6+f5DfFFrKM9rUbb/35q0KucsmWSkx9m0HcOF3ZpTQ9aswAMJvu1Hhwr0UZu3D7A+ABcTm9iklYy7QYSW5NsqHJxaiEWvPTSJvMYMb86xqsheIvEMTYzVSPKXJJtgCnGaCywxhKpUV1ixSBWqNwEg8MYu3q3t4YGJBmC0aTdTICnI4p01lBRHZEkeQhxSfALCmY4O+Prz1/i+tUx19cKqiKZsCcTctMVhKR+6M3fb92refDQc3hkiFjs+jixX6XuzqmGTtyyQs/pMo6l7zFFk1lFW0GlsxM3icBiK47rGUcPFtzeXXDn4YLn1isY9dFVeiJOQIDttYKttZJvPjvFx8g7b+1w3ASoJiAWI1XyJg6SLQ0Fa0usE6Lxib1aN6lgugJEsEWRkl8k6VqRQCFlMpfPzW6dIddaAlEEj8VgMVKmsG4E0QWiAb+YYSSwfcFy7VLFb/+VKZemQgIz8v3YaoUlbbBwrSDIcDgLvP3eITsPDbV3VDissdnGub+/z19f5g7zSRdDffJF8/x11qD4E+5q9KzeT7sOo0MNchM3XGhPOw5dbT8Z5jf0OclpfpaYqpqTHhLpp81DJCadmxdFDMRyzIKGP/nZbR48u8mPvnGVjQoujkHFpzmUTNKcrsnnw8F04vjd39ri4raBcc2rb855/d1dFseXCEcWxmtgDbumTibjscYglDKliCNsjFhpMBJAlggLVF0+qhIVJYgFIh5Plb2NXD5H3icT8ZFJIcUaLYSG+fIAG45w8ZDvfX+LF69f4e/+cJvLWyWFJZ3sbMmHMUQxeFL2o8Vxc64ce89//LP77Dz0RDtGxRIoCdQ5qaXVtLoEV3ZRVP5Eh08ygY9Z1drROWM6bpV+Q+Mcvik4Xo549Z1jjN7ixc2K7fUSZ1MnGyMdI1WknxEKwo+/e5Fvf22T+UHk/Xtz/vxXD6iDwfuLGFMwKtawKjgE8QEh5rBvxdrU3cXMbA2Al8jS1nhT46Vh6iNFdEykzFB9jUoyl485mi2ZMVikMUgw+PkSE2s2yhmTsfCP/9E3uLxR8fIlS2EDUefJz1YNNjs1JWtIsDgWdeAXNw945a19/vKNfY6bTcrxBtaViCTZE/l+1/NEzK9+wTx/fcrt+xeo7n7kt5YnO0g5gURIXlC1s4ZT+qx76apy6kAFjCMQub8758LGiKOlp7StOXprEpC7057LgrPCpa2Sw7ri2WfG3H2wpDA1PgTUK4ySS1BtakQVS8SJSTAsFqeaQpVFiCxBQt44mNxTZhJJZx+oPSgp0tm5WTW91CRGgl9imAMzLmxf4Omnx1y9WHJxvew6y7b1k+w/mjrLlGoyD3DUKPd2lzx86FEzBXEJqsWsQMUmz3h7MpiuFsuuj8wSFh0iS0NbxTQbjFh8dBwcee7tzJnXIc+gE9lHc9qXmEcn15c2KzY3Sq5dKqkbD3pADIYQQirqRbZUVJPPg3TGFq0lIZmeoySJSDSKN4lpG0LESvLoTZnlafabNmU9tUnUJOJVFPABjZ6qikxKwwtPT9ieFGyM8ny1hQe07899d2QGHwK7RzUPjxr2jxqiBeuSu5JIMmhQGUI7cioSc/76ChXMc7j1y9Grns1VWtX8qepgiZVBBuDHaoFJmYe5wySi0uSCF5FYYGOBDSUmOqKJIAEZl0QVbu1UhFDzv/+zX/PD71zmv/2bz1GaBK4STesWl35ck4rdxAnfvDjl+b/2Ar915YDf/fYhP/kPc27dOOLdoxlLFcxWnmsywmlBER2FGEpnCLFJ0g83zwHWk1zMba+vlCSU77xKNWTQNGUsVn6GhkgzP2ZSRDa3PN96aYPvfPM6f/O7F3jx2oTNMrsk+HyuQm+mjzVYOyaIxWP4dz+5zdt35rzxbs18AaPtViLRECWkPMsoyRx2ICPRLJzvsxvTtTFqs17R5H/pOMyZjNy66xicG7Exucb9nX32d4/459fu8tr7x/zDH11lY1J05drENCf1Gjs2bCHpvP5P/+A5ZsvA5YtTdg4a/uWfPiBGRzg+xsgIsZPEtjWASTmYwXgU7Yg3kWQiYDRiY3YaykkndU4PUY0YhTVcLpQerRu0PsQulxgf+PrTjvWJ8D/+w++zseb4Wy9tgUQaPUznXiKGqkM+ULClRUW5s4zc2an5v//V+9zZjRw3E0pbUZbpfJqQk1dE8TFyzo097zDPX7/JQPLHdI/XFQhXWZU3mMGvtEhiknlA1IJlI+zu1Rwce+Z1xFihsKbrWleNEpLis7AGZ4XttYIr2xWXNhrm65G7XtEQmatHMIiGlIqhqVCo9ASaVfN5ybFc2sPPubkNbRlqSVEakZgSSEY2MCmVrTXLxc2CK9sjtqYFayOXZQoMdiNx0NkJIoY6QBMj+4cNe3sNjTcpdUzo4W05YRChJ0PpHnfROrPCrktG4iMgoojBGkf0hjoIDw8b7u8tWTSRcYgUmEevd+e1FxEV1seOsrBcvlBhrLAxNfgGFiFg8Wj0ydpOTWKziuLJEWnaA/3pPCedqdVVQpMMdnUmtraAimpANVBZT2ECW+slm2uOyxdGbEwco8ISNekqedTWoffkRzia1RzMavYOG47neQ6AJDhcz0dVX5iCGc8F++evz7x91QGESj8zXWHA5j/r4Pe8BEtuv7xpcnGR1G2apk0FS/kmscBSYcWxYE7EszANGBhvvMS8nvHv/vQGR0f7ILf58be2+faza/3gMDadSaioYL3rrN++/dSE7z61xl975iJHx5F/8gfv82C/5o9/vYP3QjMboaakKSK1heMCcAG1iso4RXXpFNR0M0GJPnXBUZlFaIKAT8M8Vx9hCGy7fdbGht/9nQs889Q6P/7hda5tOp7eKpEcKyahrWW5WJo6s4Y9SIlhxJ+/s8drd2b84U92eO/mAh1doxgb5rbOkpOAUZPsB6PFqEtZjSKp4KjmPEgZtOJZXajSJYoIIRdgn8tGOzcsKMVR2jG1Bx8r/uWf3MGVS65fr3j2ypQfPbOFQxJHSZOrURSfJDjSgETGxZRJYfmf/8F15nXgO9/a4M7dOX/8H+9w737N+zcPqN0Ib0pmlU8ymXFiRY+lxKphEh02GtbqAqsFhkhdBKJRjjVB5245ggiuBkKDCYeMqgXT8YK/+r0tnn16jf/qd5/l0vaYZzcEJ2Sz90hUSxRDsJFSTAqA7k8Zvgn8b//HT9ndD/zZL2aYYp1qegVnDKaVtwB1bFIWjXG5mz9fu887zPPXOcT7EWDZFYqQrv5A1eEfh0U6maYrDmXE8Rxu35/z4NqEhxdGrI0chZV+JnpKyrcRxZjIuErhY89cHTGdWJ5/OKGuYW/XoWqT55BEGknZlVE1sVURbPSZAJINXnWZ+kpJC61IxLkEYq5VDieGpzcmrE8sz16fcu3SmK2JY1IabNtW9u1rtyC3aSwilqVX5suae7tzbt0+ZrFUoiaHGkwW4ecsKm1nn12gsX4ARjA0lGDQ5Q+4P/LovZB+nkVtQR0tdSPceTDDoSwvr6HWUIg9BY6IucuLiAjOGqrCcGm9QOvA89enVC4QvecwOObREAXqnNtJzq2MaojeYqIhBZ7GfnNhNFvjgcMhIowLgy0NY1eyvgZbG5Znrk145sqYzalhWoExMQdW9+dOut2gWZlW7O7NmS89O7tLDmaagtONQ4xZmWmvjji+eF7P5wXz0wXgnmBBPH+dl8zT7gt5dJHuIDrTN61KhsNCnsklONRkwgtaJdH/+Dneu7vH/X99g3oZ2KsjP355i8sbJWQZQhItGkTL3hpOUlz19laFqOMf//dP46PyW7++wNFx4Gd/MePguOHG/WMeLufsLOcsm5AyOcMIVUNJgwFKAqIBExe5k44Uo5KyLNharxiVjm8+tcm0Mvzt7z/P1tTyO9/cpEAYGTKpJeS5mOljn7KNmxY2bxIct/eO+PXNXX7v397kz17ZYcE1jNskFEU+T6l4i6kRLVAqWoKQEHqIdQjJ6qoEJGpLY6LL72zDUVopp5AcmTyBUJaolBwdH9DUwj//g7e4smH53qU11qcFVy6vpeLjFSSg4rEmpLSPkLou60rGzvC7L26wfHadH3z7Mu/dWfDauzNef3/BrR3Pm7s1h8vI7aMZISpxmc6ZbyqIjiJUyTwBg9oFagJiIhZhc2QoreGp9YqN9YqvPbfBM09bvvZ8wYtXKy5vOqzUCEu8RrwKTscIhlIKPJGoESPSx9Gp8kd/8g67+wv+058fEKSk2nwWNSVaOmII+JCOM+XJZtcqtZl89fjlUj/XZ/2r+zPdF/OD61emTHzhfpp++L/rkIxzSq07q9KnH/k9835b+2lQP2rsrcZ6nWjM0ofYdZZG23mWTwSSwhHUMQ+OG3ePqV6LPLNVoCgX1yy29fjMMVJdfVbTtm8oUAhYIzy9XbCYWuI34HDuuXzFsjsruHfsOFjUzJvIcuEIwWBD6pzK3IU4FGPAOWU0LSjHjktba4yrgq9frRiXhucuVUxKQyGS3HSyy0z6PTMpWxjZtrCsYeGVB/Oa1+8c8fPXHnB7d8nCG7RIbkEtTG40lbo0f5V0DiWA+gSmqp6ygcks2M7AQHKmTP8VMcenoX0cWxTFS8ADQQRbjBAjHB42GK/8/Fc7XNgasb4xQQSKbPK7OmI2ORuSbFiRzPUnznB53RKuVUwqw7NXAld34GgZeH8HGh+YHTVJdrSwmJiyPbO6EnUlmIitwBjh2uaYsjA8c3HM+tjw7FXHhW3L5U3LpFKMeER9gtaHs9eBNtV1zG24fX/B8Tzw6tuH7B4siWaKmgJsAWIIBEQiauLgHJtsi9ffd49/ePSJnsHuq5Uv8dr9GRbMsyMm63ljuHID6hf3M+mH3XvyWPBN9eN4zA4WVmmTK9I8rFNu6Ed/OIzKiqesYBn+KZrQp3pkGYGNJnefDRiDTCqa5YjZYszP/8sur715zFMXx8y9svG1TWxhwGaJRGiPJMWBgeDzJxrZ9G/fe26MAr/90pTjRrlzFLm/f8zt3SPu7884mjXs7kHTQLOwoGlkakQZ2TFVBWtrcHHLsbnhuH5lm7VxxdPbJYUVxqy6LkHoxa15h5OsXTUVQgEjlqPG89O7c376qx1+/w/fZnZUsaxLJlWBKws0+8xaTDY5KLLtXUjXyCjaFbv2LMiJy9J3/GFVfIG2e/OB1KQxysIGvAhBhIls4mLk3v1jHsaGf/ov3+GZp6Z8+9tXGRXCaM11W6IY2/spdb+phU3z2kIM29WI7SslL10padJZ4va9DWYL5c0bFYs6cPP+jLpR9o6UoAaPJWoiiU2LktLC5U2hKgzPPbvFqLK8+NwaIwuXRsN7cgY0aBaJWEYZ4u6P1SG4Qcbbr9484P27M37/T++zf1gT1l4E4zDlGE+kVp86S5sclqwKRXS5WKaTmNCAxz3rnyeS9NWdrZ7PML9KqOcXbgPY21KfzQbi9LxPOW3PPEz7OhE5JaQChUQiNeKgqMbEuKT2kT975T7vvrdPEZ9nfVrwzWfX2kat23hI7mJNu9MPnaIvFROxjAQujYSJVFwcCfMLY2of2F+AD+Cb1CnYLMwvDZQORiVMRoaqNKxPKwpnqTJPRFe63Hxk2Zyhde4R10eaNiHyzoMj3n0w49/8p1vcunXMoi4xdsp4PMHYMustZXD65AT8HQezuMdIw07JnPrgq9WKSxRHy05NY8PxeAsbPXf3D2nU8y/+6G2uXZ7w/e9cYm0M6+MqQbMtszjLi0DJ5R3VZf+ZxeAQtqeWtZFSyAYhRl64OsVH5ahOlggBQ9SUUjKyihPYHKWsys2NCmsNG0XmhLVh0mjaPAkpBQaIWnTnLpHU+jvj5r1D7u/O+NO/uMWNO8csdQzlBNwIFYMPkSCaY+k060AjbfhZsoY8J/ucF8zz15cDufjIG0j91Iq0II8swcM/rUpDVsN2jdFO5iHW4OwEXSypm8grv9qhMoEXn9ni4taIbz673sVhtX6z2saM5a5LQktN9dmOTbAijMYWxhVQdZ/7KHc8IavWDW3wdSqKpZyeWtl2DklZ0eZF5mKpWaJi0gLfejY3MfLWg0Nee3eff/+Td/C+xDcjRsWUarSOp0Sxnd1a3xe2OsphImcPKT5GTXLK1ZdTNjW9P7CRkE6tSAeHjkabmBh4sDvjaOH5g/94g29+fZvrT68jUqWCmaizSbaTNaaK4iW7rWpy9rE4rIIVy9Y0dXiXN9a7TxOBJb2Mp7USdrlBnPT7pNVGWkFjm6qSYthairdqbxqfCFTSF8wHx7z69g4/e/UON24e48tnkLJEXEImQkxyHnHpGhvRZC4PySqRXm50/jovmOevr9Trscv+YBb5yeupfuCO4HQDsRhjaqo07dojBltsYOyUg+NdCDX/7N/eZjqxUAob05K/+s2LmWhj6JZAjSfePlH+CaYV2a0WE4FRq8u0g7reGsarJpIskszOO7efbABgYotHgyaCjRohaiKTWANLgRCVn/3yJnuHC/7fP36Dh0fKcj7GmgmTcgMxE4JWRCmImIEWZTUIunPpWfHz+Wj0vcd9rdVI5X0mwpguNiwYR5QCu3GVRmteu3WPnfkBD+a/5nvfusT3v32ZFy6NuDAtIPvxJoYx2dQ8e+qoEjVgTC77rZayvRhZhlMOj07aa9KmkDbJki7Pm6UNfNZ079DB/Uo0fexae8EDKXj8nduHvPLGDj//5V1ef+sh9x8W1G4DKdZTgoskc30jIUW5xTQzbrtL04k2zxmynyZo9mFn9rxgnr++ELe3fKqIsTz2B/XTWgOmQoxQx2O8h9dvHDGqhDfvHnNpO/Btkr2ctLlVHX1lWBVb3DYvbJET+orUvZy6n+i6F81mBoOPLZph1njikExe6NNM2EjyRm1UuXH/kJ29Ga++cZ+lLwn+Aq6sKFwqlkqSviRbwPiBi8UnETM87ntSXrJiDdhB2lGUZAVnqimhcezuwzzULMIx0/WKa09vcG2ryrPw1bvGqKX1IFKN+ZeuQMZ6Ap2wp35gzQUv54Dm62n0ZHVloHlt0Yv+jXxUlhq5f7TgV+895NV393jj3T2K8jLWVsnX1hTZirA1VtfObkPyFTYM7QXhvGied5gfbdn9CDOxs0ja/iqdj8+2OA5+DXzY9UT7oYN5Zwfm9cTLrvMZwpIfmqT5Ade9+7cgOajZEFr65cZVrEaOmj2Ooud/+aevszl1/Plf3uH5a2v8+DuXeXp7zFPbY7IAsvsoMR+nDFI6HoGmQwtrrhLuZOCmI5qbvpQYjEgbMNwSPYocQWU7feMb9+fsHjX88Z/e4uHekp//4gHLBhbhBTAFa2tbgKOJJUqBSk5AGVyvOPDkTclTfZnUMyEI6qDDdJTRYny61sGksOylTfzm2gnYEnv9eRZ+zrvHO+z96X3+5Oc3+cE3Nnnmyoh/8Ndf4uLmhKsbFUYENwwBb7vF2F6TzGI1uVuLNn/t4LhiumIpdBwMoxOfP3T7Is3XsJ0dm0H9rJvAT375LvceHvFHP32Tm3vCq3cMPk4J6xewbgMxZfLuzW8mCoTEjjWOQcefWMciukJyO391i9/Zb67lvMM8f33OwOxHva0/zS1Ap2PTHubSFvayRSoeoSBG2Nnz1HXk5r1jKmfYOViyUTm2pxXOJihUOm1dPOV5O2msMKCKDiNbpH9YV/k32URhpcWTjhzbRMVHZf+4Yedwya17c3YeLtnZi/go2NEIpEgEn5iYoH0PM8i75NHgwavNAAAgAElEQVRuuO8shz3Z2QiLkitTCrc2CjHPYSOa7GvzsVtbEtVTq+PgeMHycMGtbYfgeXi4pCgKtscOa0kJLUMGr9BLb061Tcg0po4dnrvJvFlYndlmGF6G16UHFGIuzI2PLGrPg70Z93dnvH/nkHvHJfvHY2zpcEVygcIU6TpIkovowBpx9TJoh4XIea087zDPX+evj1Y89RO/WYyaJepFB9F59YQQUJdlluMJRpX16uvga372iwf85S/v8Id/+DbffWmbb319ix997ymeurLO0xcmlM6kzEs5rcOOnWtMPwSzuSilYh0kcyE1JVeLG2Kh1crRe+BwGbi1N+PN9x7y+ru7/OwvH3LzzpwHexU+WNbXv5lcclyKhlqGBsQh1mU/m4iqT7Nk8bmD1a67NypYTS44Rm0HEkYJH/sqrI50LWiBRghBCM4TiTR2SRClzv67dVSMM1Sbl7H1GlrPeeX1XX7x6wf8+rX/xNrE8d/8jRfZWq/4uz96hrIwbEyGMpZ2FmxywWuvQ389UndvMhTeTg5bUhedCUQH4EoP6y6BBnjz1ozDmedf/9E7HB7V/PQ/36JRw0FzhTheY2P7QursKSA6YjTJblDBxEAXfaaaumL6MbgXViQ556Ds51YwdSVx4Kt4EVLo6vnt9ckL1SpsIV/Kz94v2cN+Q2nhzjhoPnJYVaIsErTAh8jMG3YPPLcfLLhx95hGNRFYCsvGqEhpJUUqnNbKwGX1JNzTdzKnoUIZIUwcopC6oGUTCEE5Wgb2Zw03dxfcujfjzv0F+4eR2VwImkkkYpLdnbRGAm2nqhnW1pz0kszWTxJ7VrrBAbh8djmM0keIZU1ubD3lMkYp2n8Cg0XEJSiTiqCRg1mSztx6MON44blxd5+qslzaHOOcoSwM1ib/1iTfSdukR43jpdPitPKN06pTyOuJ94oPiveRgzqw8Mr7d485PA7c3Wk4ngVmdUnAgoxARggOspdQSzYT7eUj7eyyi6s7sTY/Bjw8f32GK4pTXZ0GnSws0sIUn3GBewJA5yMc5ofrAJ+koJ7pnFCfPOrs8y722kkLJKddnJFJRQdNrgJ+HdzFCUWgyhN3mTp8/8f2OErIZuoplNcnlqImM4CWtel0jEjFeH2EhhoNx/zyxkN+/uYtfu9nNykr5XdevsD6uODv/PYLjCvH88+uMyodF7cmWAzFB61wcgr5JB90nRfpncMFjY/8+q0DDg9rfvbKPR4e1Lz7/jH7R5H9o0A5vYgtLzDd3kCMYxlaZaLvt8eaPGtb+DXmUmpy12g6+Lhd1G02hLCDKxTz/+pHXriHXxsRGmyaA1uDN0uiCcASo5GqJVZpgVFLoQ4j67hyE1teRDRy//Ae8XjJu7/3Hs5G/r8/+Us2N8d8+5tPcf3qGi8+v82VjSnb0xEXxwWVNZSPlsruZR/LbEoF/QiYLRvuPjzi/u6SO/cXvPr6Q+7em/Ha20uOZ8rB0QjFsrbxW4gxjEcVjTTUYdmdYxtzD5u1Rbat0C6dV6/aZ3UiafPTGn7kp8X8Bsgxn3TN/bB68FFqWAeNt/mvHXcifolJP2dcxPXc+f+UwjJwMT8rAw/lg6O85Ewv6gd8jJg7HN9nRRLp9wJJSI9KMjlopQrGoJRQTEFgqZ7GR+48NBwcK6++vseoshwee8ajgisXGkoLIwfOGqzNEgoBY0zX2agqMSa/0aiRJqZfx3Wkicq9+zPqJvLWezNm88CdB4HjuTBvRkQEVwrGjRFbZeJRIGToUYdzz/bp6TqnuLIp6r6yyySTUxcnPRNvsJR40vZRMQc0SyuxaRU0MUlOjJrUHaolSu55izEYR4wN3gQOlzPCYcG7N2uO5jOO54bLmw2b04or6yUjZ1mvEpu4dDbpX63Nhaz3ggzZYrDJLNvFIuBV2V8qx4uaew9n7Dysubez5P27NQ/3lLkvaACqEYLFF5lbJCHrQrWLBksSImmz2waL8iAETAb6WpUvDbLzVagHj0OqzmeY568nultOuyH1k77vp/nkf2CxbAOQtSsq7Y7dIJhoMYDL8ysrqQ+rJSbdX7WGHa9hgMPFgtoHfv7mPkY9/+WVtyiscPnSOtNxyfWrG2xMYWsd1qcFo5FjVBVYayirChFBrSWEQN0sqX3Nol7ycLnkoGm4v1OzWETef/eIpo7s7ggxWny9jtgSV25jqxEb62NCNpifMyNqg7dNrsc21wHTJ5gMJAqSJRdKazco2Gg7ILSd4531khRFCRKyMT4gDSIBR28KgRpccIhaTCxS2La4fKxgJhaRiGeDEAN3jx8SDzyvvXdM4Y4YFffZXi9ZnxRcvzphOnI8e9VROsPFtTHOWqajMUbAGQM5kmseGgKR/XqRIN/bM+omcPdew2wRuL+75PDIs3/oUbMGUuHGU6R0uPUJKsLSgcYAsaFQZRRb5x5dQYFF+icstrNL014v6XyLY8vGPU/G/Nxe7gNWyOxQcX5xPu8u9HPrfvX0QqQf+72Gkxk59T2HJgQy0CLqiuHsJz0frY4yQoYrBUmZj5r8Zge8WVrzdsWjYrJtqwNxGFtkKUMBGqitxQs8WFr2g3AQaioXGVfKqFpSFobSWYwxlEWZjsYaYow0vsH7QO1rjn3D3HuO5xEf4OhoTIwQ3SgVETcBsYirUGvxbXwYPcSMnLyQ8bHXRjo5ixmAfjKQrfbCn3hGcINKJNL0STLJa6dzT7IxEaBctKAWiYaYXXO6DU/r8aOpwFdmI89jpxiJOBNZLpTQKL4OFC7y4H6NNcLG2GOMUBWzTsPaOgc1OXty5htCjOw9rAkRjmeCD4ZFs4YXxY5JjFcpiM7lmXGDihDEI2agp4y9E6+KPnJehyhAxylRGYxR+38RnkxN8VmvHF+J7re7FP2svz0218+OBoruIf39nCxz/jqBpn5s3dMHFD39IJhFz/aRlqHmU3znOWoAqxYbc4ySZN2eNKTJUiCIErIQT6RKCRtaIG4NiNS+QmPgcLkgzjz+/iLNqaLHJg4OViSnbyQz7eTUo/gQiTESQsBHj9eA2JSNWI02sMYxGW1gxOBcmZdOk2ZeovgUIkUkdNZ9fUX84IXNqMmwZOpGTSbjSB6wrl53PSOAIKLZ2SZK7OLDTJ4dF+pSwWxpy2ro4pQ1FdmQp7ApCwRGbpJQgULQmObRi/mMplly984sdXx5k1SV83TMpm+1u62FpmvuY0hSkTqthc6Nsa6gmqwjzlJMi/TRRKg1wfveNF1R76B3n/Jo+vSWmKNL44lbvC2vj25azAfleZ2/Pp0FT/rNoWTa1gfuSr6ol+asjQt+E2aY+sF5QFlqJitBva1Lpzxyd3z8LmO43MbPAJ09teznoiCxQDTp9tqioQbCcLMYE5tTc9J9kiBE8DUWwapHpQGUushpH24Eqri1MRqTpKSVCnSwW8rfonXnlpjUC06har1qjUkaz5w8EkwKQg40HUNqCDGnQpkXZq99sevGkdqPzQZLs4l2EBRNN7uMA09UzZKHeEKZ+fG3LoldbDRJPUzry5u7qqA2z/lyPJs0mUkrIKm4FtHnY873qPH9UeXjLUYFrjRUozJpV9vu26ZzF7Sf4GrWVpoYEFVG+RirVp5psjOSs7mLbA05NCMNgtWs4220i/VyMXFg2+sUpb1ukrv2k/ZPpvuT7QzlB2bvQ1epjziS+HRbTP3C1oKPQp58HI7mOq30OfJ6/vqwzdbnBvR8euCRVZeJGNKxgHUQ5Jid6vKMzXRfk3DZgCF1IiGzTINJS5wRkxjFxvQPdBOTcXtIi2zM1m6iNovkTRfVbMVgjUmudSI0MRXkRpd5oY20bjzDeSSdbEK6zbFmaAmbNX4nItIEwap5ZBFedV+KqRtKosQT22n92FdABrrPlevQmcKlWWf6hjBg5qbOzJK8fDuvXYnd97bsa1e0LN90jD6/hzc5ZDzGDL1JzgoXTIgZgkvXJBXX9ly2gpy4UpxyMmfK01TNWt8U7WUGsXkq7Ry9ldFIRi16+ZFRAysRaTnKjeR7/MXGMr9qr/4+d4/Vqql2O99zBOA34xXzEtX9p6sWJ5iyHzESszPzHur4T6y1+pj52tAO7yxgj3a5tZo6mUJthxQHE/GiRONXG+0MxJhsYeZysRRqjMzSsq5JrFD4ZIQQNUFumCQLiGjSEdq2O0rnOs1OY3a9ibmgJVP1oCAxFw+TO07JvVTsXNuzbypdN5yqbEvm6RFZDX3ySHcmdGCWQC/dac3iEmTq0WFGhphPvCik+t1mPGprKZAPIXVfjaQCrSbLYiR296KNCRUoQoJvvUmF9dCFfE4y4zlmIhcGm8930LjSzDkTu3iwjoBkkhtSrX2Oax/SRS87yJuORBbLW47AAORPG4GA0IhkJrBmFyPtNgBtaTRq+y1D3tyYHD7W/uy0WRLioy64568zKIsdw01OdLCmxW6GmwPpA0pPK5afBlvu/PXF3SPqCaDoo+4sPyxS9pEe5dQN2tnv2tpFqTXrBvB5LhaztiQ+Mt+3g7irkPMcfV7QkhOObfMxNUNucfBciaTAY5MWZ5Nb2KHJ9vBsdQicmIG/gWQbtSx8H8zdeiu39nftEll6c7WYO62WQHJyViYffI3lk1+XnlMhObZKGPiV0/KWVZLxubaO5xIhxmxCnoq8GUC4bdfYEWOi5lS2YVTZIFO0laaI9ukzuWC2WSUJPpcu/mzIoxqeMen618S2brtTVQajB+m6WBVZ2ZTpifi5/g49aV2QjeXPu5hPp1h+wKZcEJzp9jhpp60hgwt5lxdPWRC75UNXA5vOqpCeNSb9Wc4nn5SoIh9i8vtxV6FPchVa5KuxMQNwioilUItVwWgaepuuEq4aCQwXLgQCkUCkJtKghJx3WGByJ9UQtIWpCsDgcwcRbZ1gQGmy/q7I9HqToamPd6TSdTGpHViYPKFVm5ciiyHpIk3biWnqWoxIXtxN5wGqEgl4lDQ7i7nTNEbyvCpms4AMFYZ+G6GDeerKhjUvpFGUmNPDXPb8dsb2937OZFSSVq/tA31yDSeaDLd6i1Eo2gLTwauS4U7t2Kf9JqEnOiSYuLWKG5594ePMsofM20ZiNyru/G3bZJA4MFLvgqITkcfnAhpc+sR1XqvqvGkwJrn7FALEZHkXYnbT6aREnTs77X9CTDQiR5F6xGyB10Gm7X0vpt+atLKbjMi1nrJRs02iS8+CGp+7wzS31VM2It1GbtDRt7aJZCZwX7rjxysGj1uzeMI16zNc58+sFqj2fr3dvbYKk3fbxm4mE1t6X2owYzYuED3JexOGIudHT6ycmkr0me4Iztm7n9pWq935to9jIsRI5yzypPLpk0lICgPCpnaQU/dDT72m8VOZCXQbPYnJQ1R0Ja4pdR8tRKnDR2vlHdpFXnVViGIk9wVDWHsgJZABDN2HQvetfOcbgPb//siZH/Yng4hm0f5v9OSCN8yz7EU+7ZwwruRg9kQwoZdEyEdcaB+/iOspG+2T69CQX2EGnzn2n7ebKw64pXqSa3rKQpULsUY9wXWTlVVw9XtlMJOQof/6iuFA9zcyMFCXVQThNCBFHsmEGZ71Psbgi4nyfQQ3nTNsYs6qFujK2qYrz1OL7Lh2p9NW1pSP104VAu1j1NpoISSCQDY1HpKFVPVDtzTnhe6TLzaf3iYkJ8+rJvmEVVy0OLVkyXjHz+PkGGu4Fpi+1EVS6kQANLNC0wY/Ak0CskQQqbId2+q5UYlohrba3V44gwejLUZRWo1lxMbkJGO0JcPkiW4Lr5p56sqMQEyTsRgnAARNDNooPSFGY0BDQH0ket8veTrUo0Jog407clEyM1Br+8KQY6Ral6CoceX8G2mhQKXIBB6JWfDePZc5H7IjkKR5mgqJ7dkdR/r8hjb3Q/OGKX6EvubDC2aSw8Se3avKgLKEUZcg67xpSfnJETVJQqMoS1qbv3TTjbXMmsdUnywpJs1o9r4fpqw1vqMzpQ2KQTNZq7OzjWlT57L0RIzJxS9mUpHpCpqP6TM567rc1BgjIXpor49oco7q6uZqDmm/P9Psryv5qUufre136WbRH1y8zsqg64nXLP1ir7r93bu6AYknymTndIViTM6jjQE3jI750CM/g1p3VjuLr4wMRL+AH0XbRCnpKPPogNYuesqDOFwEVpGKlSQkkZW+SLv3in03KZ/BydEebuy7vnbSZBgaX+tAi5gE9rFf3VqGa2w9KOvOC1c0zTitiUihWJMgPmtMp2/sOr/ciUY0MTfJkLbmDjP/7n3sT2YOjZYc9dVuXm1sma/p7z09xCu5Gxt2O6mIp3NvtO/o29DidB+0SMAJNOJjLgs6hDPk0b4zlZKQN3EniEiD+aHBroQrdGOBXOgSFNdGieWf0u1pTF+kBnNFBEyQPpM0byLJVgltV5og7cH0sk1x6UK+e7P79r7v58kMzGEevdX18VjNGZfBz3G9+QxrgTzhOVPVR9JghsiYW7l55YNJPXLq35xTgL56qGw7P+pTG2Kew+mAYblafWJmVUtneNFKJJwoTsBK6uBiTpdP3U1qBWJMy7oae2LJGCRInBE0mwqEyR2IS92WhOzkox2BJ1Ckn21cMjEXn1GXBkPWb/oRxAL8Ip2f5mH3gForTCrDuDJMx4bJ2FKVlsm4SgkaLh+rscnpJ3hq71k2nvnMs1h4jhfgg7A7awgKRyEgYnCjMcZYCld1HatTxSpUIRWHUd7DzF2kEeVYMl83F32zwrOMJ2BQ2xUZk5NCesRRV77jk1wJi8v27z1MqZKBYeNXyDWdThPTaWZtDoGW7AcrUdEY0dCkoqYhJ5UIZc4uHY3TRqMoS0SS7EQkdRItJB2CRVVYLiIxKvPFLHnLxoYYIz4EgiZhiVib9LIudafpPslomhEsNmeX2s5VqVdeni4R0WFcSgfVhi9DG/fFnzk97m/10aVHTnyR0w/i+v9GFcbzm7C72q1Iu+taeh2eZjPqEGInwH90F9yzSzvdorazoozZihn0dDqQlZhHrod8ClepnwwltiuaiC+rHXJLyjEZ5rPtNhQNuciHGURL5RYYUTY2I9YKW2slZWnZXK+YjgwbU8NkXFCVllHlMNZg2iynzunH0YRIHQLzWWC5CBwcKXUDd3dn1D5y/0jxUTha+KQFbCKoEMUQJeUr+tb0IG9KmhzGHIm9bKi1I8zwoKWHCNNGKQ46NvlU1gAZ3G8wYOdLL20S6Se0Mc/SpYOKWz1s8mxtO2UjyejeFAZnHVVpKJxhVBqcFapxKpzOJSKXKxLsLKb/uSE4ohqaOkl8FktBo7JoakIIzJc1jQ/UPuA1bShDbFfTLNXJTk59S2tWHH2UYXzZh4GhA0u8c4bsmRbLJ+tg86b0kUJ5Mvy2m5ifX6TfnFsqEXy0W8QU1V4LpgohkFmHJ4rlgGFh8rJmMsNUQ3I2EbHZGswSO/PtkJcad4JCLwMw7uzuwrag2DwlEpSgaY4VThaIDEc6ymStFgzR18RQozoHlMl0QemUbz5TMqosL70wZTIpuXZ5k42pYXvDMBmlDrMo0oItmSOgMoBhI3iFxUypF8rOjmexVN5+L7KoPb9+X5ktlNffq6k9HC1IMy5TYIqCaB21ScWu0aQnjTbzffPPWRnA5JNq49B7aeD6NNj86KewbemsEgaz65C5EklWQvIT1DyXzCxam+8vzXhzi1BYE3A2b04qx3RSMJ06xiPL+tRSFIbRJIEhhUsFubCZH2w06WdRfKhQLD44ogp1PSHGyGxes6wb9o9mzOY1x/MlR3NP7SOhDgk+DzapboscyWXdymZwtT8/jQCkAwhRO8LQCgv91DHa+evJi+VHWEm6zSW4PuZolY2oZyoU+TLg6Z9XX6tnuPRwtu+lJsklNHY6tKhKVGi84v1JWPZkh5nGOKPSUbnkitOSJNJ0ryU10H9vS0LLd6jpXFJ05a78pGctSWYiHt+JzyMGVdPNtsygA5KYrOY0RmLjGY8Co0nk6rWC6ZrlG89tMakMLz01onSGqxsjCmeZjkvKQqgqobCCtWBMez7jAIJLDi4qEFUIYwilslUYfFCubW7jg/KtlwLzZeTN9xsOjj037y/Y3a/Z3Zuxv4BlA8FWqFjUJolL2+G3XaN2tJEcXKxg27SSlhFITLZtrewHza40qak7S1BHBmWiY5Rpaxs3uCMlM3dUib5GY541AltrJc4Km9uGorCsr1dUpWM8LigLxVkoXYMxinNJytLKhlrdpAymDS4X6+DSdqpyaR48qQQfLVsba9SNsmwih8eeRR15eLCgbiKHezUxKt77dC/FdE8ZI6uz2+Gxy8knMK5CPo9F/j4YL3ui+d4XUJ73ua3GyqCH19XjFsV1F0MHM4TzvcuXqlie9U6sFxHkZI52h5udSSLgQ+qGHoFkB0Wz7U+qwlEVYHSZRdcmu9/0njOJx6L0TqV5T65nDQjmOzwXrCghJ3VYohoU28/MMlxp2rlsA3hF60A1iWxNI197ruDylZLf+e4F1qaOr1+e4kRYf0yZ7n9fLZirrD3T5whN8+9XU7JJDSxq5cWnax7sLfgv78A779e8FRbM6oZjH6nNZorAMuNkGC6CIVLoMPUyqTFFO4n+qlVdt5D33xPbtf4TAVyPHjEDNx1d6f/7gPHVcxiJoUFCxMSEXmxMKopSuH7dUhaWra2KsnSMRwWJjR0gJBtD0YQhaPQr3odDl51gapAc/5bc3GkN9xMuURGCIUTD/pFnsYwU9pDF0uNnAe8jfh66Ip/yn20vX9ZVkVCnaOoWbLPa7T8ylzg7vGVImvrNLZYnR0undFNySrzXo6qoD2BlfeonUc8Ij9bP/px/SQv4EPIxZDcSjTmKKd0NPsJiqSyXp/kCBYb0SUHYGFuWi0gpNVZN3tFL6qRsYm+6bPclIXbRTsMur+8t45kdb8QQWgmG6QuazWJ0E9KMLM7nWIG1Utm+Ynn+mU1eeK7k2WdLnr3q2FyzXFgrcFZw2fZu0UG+tDYHpzxGbgA3ZxeYTNQxrcOd9h6p7XdMHHztSsEz24aXr5U8ONjkwUHDT1/b5+aDBT9/Y87RfMHBUlEx2HLazf1of0brf9rOOzWsEEuko3flhBbRDrxu552f2NH0hAUZHdM1LUtWbbryPqTCrrnoxYZJZSiscP3yBUZVwVNXpjinrG8dI6I4d5yOwWe4VkO3OUhuTJKJX4LkVBSjNv+dQewiQcI2e/fWy3xWFsm0wFRYHFYKLkwccWyZVhv4qFzZmtL4wK3bOyxrz4OHD9FYEP0IMRYjlk6XleebIaxuDvTEKUprbexmpGdvI/CbDtfqKdvyYRPQP7FPhlee9Nf7yp0yeaKC8lUtlsOPb1ZIO3Rw7FDb5b2e6DAff/ClS5CWJWCzdbScNKNufQtCmyQynJ0NSThypg9JZOC7Siu7kM5aLZmlB8TAuITtdcfzT5d8/YUJX3thwtVNw1olXemradICmLIpBgKVIU42TKRYndGmNI30V7Y74r7zNqQ4qo2xgbHh0kbB9mbF1UVkfx4oCsM778/RJjKrazQaTBylRb6zapNu+9F2L7GzXIuD3q41CE92gYFeL9oqJj7pLT9sbFaN5rJdXjY6T6512hVO5wyjUtjaqpiMK7a3R1gbGU3m6eu1IYaYtbAe1dBLiNpOMsumTC6SJmduSus6a8BI2iyGMBw95EJrErTrnE2jSlsQNOWTNE3g6HCf2Tyyu5dSVshG/6brpM2JqviY21u1C/2Wr+Tq+0Uqmo+uZ8N71HWsuG4XH7rdbsumQ3SlaKq2EUGxf/jl7NayJ2lcRc74/Z6kaf2IhuNfNni3eyA7GntMnU1n8aagDh+V/aPAtAqnn+z2l01OKJc2lNB4bDhIcyMfEo3fZn2jKFE9qkKpBQbBqRnEVmX/zW7B0k90lG0hjlgCLs0l8RRG0+yqXhKiEg+XGOD56yMuXaj4h3//aZ7aNnz3OUtRgCvAWI8BfMy7B2M6G662c4wnHHqkTSmRVc5AG4acIqzaJzMVMLeSjDG0AhLWHIzXLf/dDy7S+Av88OWLHBx7/p9/8WsOZg2vvv8AtWN0dC0xN12ZTSRMIthATtZICEEK7AhZuynUojSiOXnSMOnsDD427zAfSkyrTfbY7QplyJ2sGtBI9AoxoGHO+nrB1vo6zz2zzfbmmIvbBYUD4gFoJBzVeYTQZpYKEpNe1thet4pK3hi1K1/KEYUkn4qJJYVhBJJMO1QVYsZZZEmUBmRBlOM0o5QSI/b/Z+/NfiXJ8vu+z+93TkTkepe6tfc6PUNyRA7JMc0hQcmWIQmQDVmWAQuGYdiAYECw/wf9Dwb8YAMG/GTID34h7AfrxRBs0ZIlQZYoDkec4XB6Zrqrt9rvmltEnPPzwzkRGXmrqrt6urrZ01PZKNzqunlvZsbyW78LNw/GmAlX9o5YrhuuXi95fLzhg3tLNps163XEF2PU+Z665CSN3LsVSByoz3YdZle42lMFmD9bPPjFGbl+wih24H85VLZLKP847DAv00o+DzD/l30c+XLI8dSh95Za2RdTTWO0wZ5rn1UWUBXgJCfgDCKSXdtytiT67Xd2xNjk8/h0ugXtd4k+JpFvrxGncLjnuLLvuXm94voeHO3RcwdjFmzoApsM5NPkY9cH8sQ/21OD3kBvVp7RfCh4FeaTdDvfPjJm45Zr+45SAyPXEqRlE9teUEE68W8bHuenCedtBRtiv/+VFxIS7GOmBgmIlZKUdvgKFarCMRmVTCcl02lJWRreGW0dEmAsXjq2mgFP+Vx3aF/JQgWYDOTrMpe4szHrkq6REUGDs2TWbYEzQEkRTT/rtcIQJqPE75xPK9abSFUobRuQJslSkHfnqZu1pwoY7L7m5TH2y07zi25A/Raqtj0pZoOd0Y7swWWunH5MO/s5J7jPoSJ6WWXt3qLRjKjZLSIHySAFjRl3Hy4oXGRJ8vuregGA3bm/CLz5WsVkYly/otTBWDVrRD1eCy+SiesAACAASURBVIL4RKSP7VZQAM17rNiPSgfMvEs+9J+lI09cBTXwVuDqBg0tslmjseX3vnPE/tzzX/7HrzMu4dUDQ6WmZZVAG6Y4KhSPD76T00m/X/PY0j9fsleEckd4LgVVkZZE5SlyR5S+Rkvj1Zi9rC3HelH4xu0SrOCVv/MbnF3U/P7/9Q4fPqj5gz/8iOgrrJxifoxpibgRqCda6mRj5py6fpi81WC67Jvx2YNQSkjRDLOAy2LnRRLxJW5qFKMsI/NJxa3rR1y/PuHGjRmlX+FcS9M8pKkbPEmc3MtepnbQX4v5ZTCNBAF1HU0gs4A7YM4gDIoVCB4LWSfYmvQc55AYs71b3C4MLBJCGsfXFyEVJq5grJ5vvHqVm0eBV29F3v/wAQ8envD4ZMWmbvHlPiJKyKKTYmmnGWULThvq4g6y/csg9ULbpSddYbapbWsH5y+3n8+UyhsIQ1+iED29SX35+DlPlzubrKzAshVI32wimzrShi7uZWSjbUeHadQG48oxqRzjsUM2wmITsvPIgCIisjUQtmFgoN/f7OJvP+vFtsWKigkSQ/oTAtORUrqCW9dL9ucF+xOh9IZ3DdABSNxOndkPXWUA3hj46cVsKBxj2v2mRjb2/EMRUFVUDFXBaURzoSIy3HXmMXa2IuvNrbvQ3U0jBaYjjxm8cm2CReVwvmQVjUXYQMzAE5fS4dP9iNiRSZQXvD/uOtrelHln9G8ILU5hNi6ZTQv2ZgXjylFo7u56ME/ou3vrQGe9LF3qTC1r8YKl8blkVxG2IrMdxSYVMC6LVaTr1OXzoOKz0EVW7LHLfbJsNxNxu9zyThiVymxSspmPWK5qooW8inCJZDow8N69une5Cy8Kpfzy8axJ41Y0Y1f+xxJLvDO87VBb29HAZX+DIeFZnrixXkgce/n4c5477PpIdNjYBMoR0JJoxt27NaXzHC9gWiiTsWYbq0s+JyK89coB+5MN33xzjwePjPsPTjGmSFn2QVNdgUKyoiIhFxPRLts66WDiYZoT7mf7qEqklBaJEakjsqnRpuW3f/cqN6+P+Dt/+wb7M2WfFUZD4HTg3DFBKYECOoE5AVyT7htX9C/VtC113XJ6sWG1aTk+izQtnJ2vsnJSg3fKfDamKh2ziedgVjCfeMqqwjl/aWdvRNdkQ6rMI0WJ5onmeuGF/XnJwbzkv/pbv8w7Hy4YjUb84KeP+Bf/5iOs2MeKKXhFqPLPdJAvy4ZeOUhkbmqHoxV7QdeaKDglhIZoISF0BWKzAAuMXcNsMuLf/tbrzKYFt29MaJs1bXtOu7kgWI26NgG1YpN33eepyNAC1CGuwNQh6gkhNQLnqxUhRlYbI8ZIXdfEmABCXYwrtMGJYzRKMob70xJVZVam61KtJbYthBYLIZlai+t342ZCWxumAWXFyHnGhyWH86u08Rrf+8E7PD654N0Pzmlao5pUqegRl+8e3SoGMWRmfjV0ZP/8Y5x8QruQS9DhZFWs22EaT8Jq5dKiZPvbLnceLzJD2scssl8+vpjm0gYE3t4Xs3OPl4Td3NQt63XgYlnjRwpj/8SFaHn3VgAjJxwdTFhvGrBVT0MUtxXL7pxMOrFsZHdAYrI76PhMvWU35goGbQttzcHcMasq3npjxCs3xow9+KxylH4wS52ZI31HL+uGJ0GGGDk+vWBTB04uNizXLYtVy+lFzbIOnJ4bTYDlcjPopJTpeEVZKOPKsT8tmI09e/MxZem5sj/Ge+HK/ih1o6JbYXQSgjQ5DwlmSQAh5O7QiTAZe375jTmbtuajRxfcWwinmxpCnfZvORQMTZC7u9shWNYWNpEdR8bPPPbv5ORECKQ9pNOEpj7cGzObVMwmjlFpxLAmhjUWNlnYPqnR9vrF0MsNiiaCTNsGNm2kjTXLdZKvO11uiNFY14EYjaZp0vuIYTt6U0NFqKqAqrBY1HgV9scFXmFcKk4MLwkhK8kAsxfP3zqo5ClADNC2mHlEHHvzMajy4LhmU4de5ECdcdnAzZ4a9F8+Pt8J25DOs529+u2oa+BcsPOzWcHfnvQC7CWD6AjO9oXluk+zb3weJYvn/W1f5Ut16wZh/f4k9TARh0NQCnWoRc4ulpycNTx4tET3CzjweQzmntivzESw0vHLX7sCLMGWSVc2JpUVj6Ix74MyxN+Zy9qnQhAwtZ4HqiZ8sjTYrq2G7BDEs7pLNHwbifWGuDnn9W8c8fU39vjr/84hb9weM8tjOrM20w/GYA6hzOT1jLwcNLstnmVd870f3+PB8Yrv/eghj85a7p22nC4Dy9o4XykhCtamjqaQFPzL1HBROpiOSyZVwWu3p8ynJb/96zeZTwt+51sVhQpj7/tEEWPItl2pCg54zJQmTyWdE64dVvyHf/kWN66VmBP+2Z885vjdC8yPgYhz0zRyzFZY3joXDZeNlDWdh9yZP0lvsE99l0Qz2qzha6oQWqK1lL6mdMJbbx4ynZTcvFZisSbUp0nhp61xmpKiWQUCrTWZ4pHGseo8bR1TR3+y4WLZ8ODxmk0deHyehOybJjmdtG1OcrkxEMnnVKDwadswGyWlpuv7FZNRwY2jKbNxyd60wvuIU2OzWWEx0lpKvM4VqfiMqTAIbUSLMd5XvPbKEW10PD5pWK4aPri7QdRRunF/DLuCM/YT/hdvRPDnGZdfWNz6mSwj5dJqZhd9bJ2EpAwWRwJeMjUkeedpmvXb7pN2x7CfMSHaz/CZXkzB8AKe9AtS2Q1EBwxL1kaSLqDSeSQqm5WxXAcePlwy0TEwRTqg6dD+irT7KZzy6q0JZxfG3tyzNLhoGsxnmoUwED7fBoXUbSaOhWRURqdGo0+MZbeUEbukoNLBViSDcpwpFiJh3TIbK1euTfj1X57za9884GjmKUk7xuTYUQ3vznS/dPvc/PvvPFyxrgPf/8kxi2XNv/7+B5wvW+48XLNoHBdNySYWNOZYa0EUST57JI6jmNHEkBxEorFcC66G03dbSt9wcnGX8chx8njDbOz5tbcOmIyEowOf0JmZo2gk3KVJxCyjQsN2Anrj6pjv/Po1TtYN69jw4fGa1abBj6fb/THZf3MwXhfLVmjP5GI/A/IrnzTNyOfGjNjUiDVcuTplMvLcOJpTFkJsL7DYEMMyDTxdJFruel0q0HyR3n9rQtMEzi42nC83nJytODtvWa0C56s0TFi3HXDK5x3qtqzqOoaYUbFNpgvZssYJhM2SqlQWizWzScnerORgb8Rk5BlVJa4QrF3lRFn33plCcuuxWBNbUEoKddy+dYXNJvD45AOiRdp6BVrgnE+Qom4/bdY7mGjexcoXDvyxL3HA+uTYPfSgvezOc1l6s49CJj3eAgK+Y1Opubzu1AFCdpeX0iEAh2iyr8Tx/rSZ5Bdgyt+DS3rwfP6T92mbBparyMOHKw7HbjefdF2qbYEM3guv3ZpxfBrZnxe0a2iXDTpKyifbyYZmcEWHGtRt0txZxFtv93T54hLZepHEAQpymzCT5VIMgWYdmB86vvZaxa9/c5/vfPuQA4ESqLNoqpPR4MNFEhpYELe9Ft59sOJ02fB//OP3uFjUfO9PP2IThIvgCX5KLEdIOUP8iKAliOIlY1EljwPbuifmh3VDDC3t/dRV/fidMyovnD5YcfWgYn9ccXRQcnQ42ubtUCd4aDY3jibb2CCpe711dcL+0YQPTy442yw5PluyqgO+uoWq69cyMQNwumyrfYBO/i7byvtZiGV7/lumU7HJKj5H+0fsTStuXp2jEgjrh1hssbhGVHDeYa0Ro5AqLkdZzgFhXQvLes2HDy84Plnw4OEJy2Wkro0mjpL0oR9lbdcqL7Ndvq50mzAJqViMLZhR1wEscNYs8c54fGzMpgX784pXbx1yuD+hms7xpcPqBrNA26zzwW8RUZwWtLEltiQ9Wwev3jqiaY0f/eQD2jZwerZGHXiX2K5pJRIYsgMlI7HEft6TpXxhr7dLG/z4aUi3/tHe3C6L8xPwGmOGTZcJPm5C1EDUkJ9kWWNRE6COTvnFdhC19pxv+vkO44tNSvJcBqMv9sL5+UyruXjq6EIRvMu9mYQkk6aJlO38Hk1r/PCHKzwFD34tMClgWipJdDVuR0cx4hAORyW3r3p+69t7/ODOkodvnxCaMQ0lXgtUhEaSz6B0VlN5V1WJo5WYiPZ5XKhRszdiDrid268mwH8wh2lSahFJ78lRJDusdcCrsX/F8yu/NOOv/KUDvvHKmD2J+IyW9Pk4dKplaItI8oZct5HNpuaPfvCQuw9X/N9/dM7ZIvCjO54QPVK+RSVK6UsCSiseUQ/q8i7WQNosn5eTupcMtlHECxI9oXTJKcaMFuNfvRsY32358Pw9blwt+M2/MOFrr8x469U5+6Uy9gUx1qnjDMXWoDnneg9MBb7zK4e8cr3Alne488GS+4/WhBhopyNMjcalACHWUMSIt5hUcEyI2Roz2JDdKAMruEsk8AH6dMup1bR3JSbTbQL7sxGjYsQbN64wHxdos0Fo0dgSSfSaiBAiRHFEp5RlCeJ4dL5hUxs/vLNktam5//CcNkTadkpQwcrO/ldBk1hAJyZ/GVCVHqnwyExbVEdJaaisiESWROpV5LyOnK4uGFdLXn+lYTwqeO32DKeZtBdbrL3IEoQtLhaoOWLbEIMxqRyxNL7x1oT1KvDjH6+IsSVsQrKAc55akk9r0JTEial46SYsX4RIypeZcfd8761rBjtXpMu45lS4hizYYUbyvKVArU2FrNvgOyi19BoGWXOkd1OwpLW4daCD3paIocDWl3ZuLS/5lZ+q5tPBsU0G0ELTWS5l4rq6ESEG7j9ccutm4GJjFDoMiDFrdyqdTde4gP2Z49VXR9w9XaGsaYMniEOLIiMx00DXZUymdvtGy4Ltg6DcGQmrxX7nY5fsH/oNvQREIkqR+KSNoSXMZ44bVyu+8dYeV6cw6lStSBWmDdGJvdKKowkty03L2++d8/adU/7o+0tOF8bFag9xjv2DGc4pxaiijZEQ425IFpKwd0dnyNSc9EVxBs4iMSvBrJq0Z/vw+AyVyKOzU25d94RiDV64em3MpCgZqcvGyRGJu7uuNK4FL/Da9TFHR55/fvQRmzPl0d02oUinSf1no1v7M0XwMSVENdkZcfVUiM7oecBZS695mYOmO8mpk+AXa5mOSmYjz+FswmxcIPEcLHva9PJw2ZlV8xTBOUQci3XLch24c2/Bum54fFrjnKMokvpOMnfOqT0vKM2ewpHtR8nbPT4CqkX+jIrFSBMCdVvDpma1qfEaKEcF03HJzZuHyTha675WsDwy73xwYgYYlc4whWtXSxYXLe/7BW0bCZss7KHa04SS4XqiJulXYNL1PCH8RYXuJ9E53WrH7RQcCYtDD54j+5NI9i51r/zOf/P3QMVsWvQSZBIxDdvbIbperizN+Yfz34GXhLyooP1ilV3kZb78FOlyN8jG7FMpGRPqY4GYMJICCJyd3MP5yP6hY1woV/dGeXWpWZezw4sJog5fKFevjYhhw9nZGfVqxersnMpXeFGiCtEZ0W0IriG6TXKwj00SOOh6MlEkurw2qInS0PoFrduwcUtq19C4hlYbGmmJkgZbsXW0ZtBuuHZV+et/+Qrf/uUp335jxMg3IDUSNkhssJC64xSUBafKqjXurhv+8b98j//9H/6QP/ind/ne90/YcAX1U6r9Q6rpGF96xEnm2XXTmtgLnCczsZjJAzEPf7p1Ryb0SCBaIFjAuRLvHFU5YVSNEXEsNw0/fe8u73z0gH/zkzuUI0Urx7waUbgquUbbVvZReiCzUIgy1oKmLbh2dY8/+dMLmqahLSYEC6w0jROdgo9KkUXzFSPmrt36ul0Ge5pcWGiWVOxY93T/v00gZg0xrql8y6Q0fuVrN3j99hFX555CI1afEmONWdP7YkYpCJS4Yg9XzDg+3nBysuEPv/cO7334mI9OIpvWKEZTnC+TFKC6RJfruJgmT1hM7P495pH0luNK3nd2I2BVj3Me76uk0YtjcX7O45Nz1qslDx+eceXgCoanqioUlxaoWeg9aftCsBUxbJjtTRlVFZt14nqenbX5glCCi5ime1HEyOwb/HNKgb98bBXK6F15Yo8B7+rrKDF18ZaKQEeF4NFuNaOLxj/PMPEliPllCtUMPOh1ZjWBLlablotVw8n5htVmnMAYojwNEG8GhReu7BUc7nkO5467Dze42KAW0BhpvfXdV+os4lYazTJyZVCkpaCWR2cSiJITDR1wRXaGLyHfNoWLVBVcP6o4nHsmXmh7sbvs0mkRBrW8RdgE42zVcPd4xbsfnnP/0Zrj08D4qkN9gSsyWlgTCti63elTlhPyRKB+kk7QVb+aQVhF4SFGWvM0jXC2alDX0sbA/ZMlt5cbmtmU0umTqiWDu9mJ4gUO9kY0ppTFY7yPvWxQpOuGZKc03q3Xn0KlH1anW6uNrS3YjjVVkuRxmgT6J6OC6aRCNXmVpkIjbH9WtOuRU/YXz2YTWK0azs5XrOtI03rUK4XzA0m8Luk9z5rlsgydXPr5zoosb7hEk/CARdabFqHl9GzJqPI0LXiniW8sSY5/64OZ5xYxTfPKwhNKYTwqWa/afoVAFklA5CleGi87gc9/N7t757rXvvNf/z1BJYZxgRlR8pxXUhWMGC53lmJDUvtQZ1Keu8V+YTvhT/HjLzvMT3kJ9Q4VmYtvUJhQmKM0l1w0LBJo2NiKVo3TxYLZ/pirt/YoRanUZySpYpKq8m5AO3HC0bzkV79+hc3Jgvr0jHrTEjYr2nFF1MhCaxqNeQdpGWXoKMTlJiabHMnW4TG6vONCiOIwSaJ9yggfS1wsWC2Oca7m3/29A/6tX5vyn/3Vq9w6SpqraUNqyeha2rz/i2hRsW4jP7q35g/+6B7/7f/yPf7pH5/zow8VKa8z3b9BMR3jKsdaVwTWBNsQqAnaEjUQNBKz88VW86NTdnEkMbpEWm8Q1hpZ+AgqmFPGIeItMAFKIl6UwleUkwOWdcndx8Z7753wr777Abev79FE48pBhZZgsgbXDkyJHR0ma3ZYcuPmmPsngcOjinfeW2CxQUcZ/mcZw2AeleSUEixkUQl6cX52BPS2RYIlmDFBrIdORIwgLbBGZcntq2PeuL3H6zf3OJwXhOYRob1AtQbX6d46WiuQYo4bXeHh45b7D9d894/u8NOfPmZdF5iNKKd7lEWRMWvZqlwkmTd3BV/vvymXZfHZdUtJ/wlu8GdL6kgFkaFiOCd453C+5PT4jLOzDetV5Pw8cOXwOpindC4hmjuzAdqtO0wGXE3nc1yhLFYrIpFV3aRpirkUl01wkmg+avoyWH2KtGjdbpqkT5wKEMeQWhkl9teAM5+ugA697pbNU4QLPq9M/fLx81pz9fQOhprPedTmHE00zpctF6v0Z18duAGiwnZFvhQYFYmcfzAvOZyXHNdGE1sk5krcDSTGnrguh8T5AQi8NwC23vtRLCUizYLqSsSrsLfnmM8co1K2clcDy5reboxEs2rayOPTDY9Pax6ftizWjhaPabIt6ZKgPaXuN54FZJOnVIa9DHgGWw2PXdp39iFdNCnaSEm0isVqjbOWx6drJpUn3NzLz7Mnz2z+a+EUnLG3V7BpwemW5rLTYPFJGjNP8xPcfdUnTOIkneaiUKrS45yhHbCr1yUevK44zJQYYb0JLFcNm9qoGwP1XLZL251u/KzxSZ6Q0r/cQfcMdkn0nmgKEVbrQFEENpsIDkal31J18q5i6HcpGIUXiiL9cW4Amhq+4AsSv38Z5z7+X2xw33X/4t74zt/9e6AS2klhgDlNiEgNabKUd5jJLy4Fo7TDyMLPg3WjfMlmt/IVGSk/z80uL+jgG/3qC8PwmcReRKUwl82fIXrDHLSVYx2M+48uUO9og3Fzv+DKrNhaUe1IfKUKf1Qoh9OCaTXi9dtX+ODuCc16yUVt0Db4ch9HQQwFSkHhqqTJ2lV7mVbiAB8r1ApcHKGxQmOFDyN8qBi1M0btlGIZKGtjPj7mxj7853/7Fb7xSsWbswoXLVMBJXfCgYjg3Bicp2kd799b8j/8/e/zhz9Y8IMPC0J5QHl4HfUjovNsrKWxSOPaXh0pTZB1q4pO54yxHXRvg/x2UGdAI5FGYqKeiGMcNZlvh6y76pK7aG0jxM8pJje4OI88egyPHj7kT398n7/4nTdQ7yid5Zdvs26u72uZUmEkgp+PuH5tzL/81w9RCTQxpJ5KE6qTPHYcMtV2rjkZ2q5tS5loDDZGsrWKIzAuIlemytdu7/PmrX0mZYuTDRIvUGnxLrna1MHAlRTjAy42yuPTlh/82Ue8/dP7rNcjok0oxweoH7Nu2154Q0RwzhNCJISQBQmSXKP2a4OnRwrN16xm3PKOZ2mnNaqCOEe0pA8s4kA9hRujbszj4w3LVSTUiUd8eDBLYDgNiARU045XJYk4iBmjcZkoKTHStIHVssEoMHNEHxEVtNO1Dc/GenxaxTQR+conx47za4Pyx5kbWFtaxmErIg4XfRZR2ekwbaDi88W7jrx8fDkvL9u5FKRPlPRo2ZhHGIqJw6Tg7CLw0b0lpxd7LA8jIyeoDLVlZUtyyq3mbOq5dqXitVtznPccfxCpY6Ct2xS2pECEXl+z9+kc2l5dCnnDUOgsy9HGgMTI/lg5mHoOxp5Z5XbLK+tMKDttWCVG4YN7F9y9v+T0PLCulbKoEHWJaC6DugAG6NzBiM+2nepwAyhP7Zy38AQl4etMEt1LJI02IX2NdCIjSVvXuTFaBBarM5wE3rt3zsG85Bs3qr7jZthN2/Z8zkZC0wj7c0XXxslFSLKF7vLecXC07ckq2S6Vq8NhxFYZPo30vVPGVUVVeLwm2zGLsVMux2LM1ldppB8M1puGs/OG9aalCWmkhrq8O++8Rq1XybF4iStqz1eEXjY7fHLPOZTpTsfBRHPQdemcaCRE5WJRs5goq1VLUULhtVeT2ZpFJYEDiw1OI+ORpypbCi+EYNvn2sfbor18/KytlT2rWxnczZbcSrajnkgvJN05R4hcqoJf+Krx5eNLV4nlW1INQtqVJJoDPU8pSCCKENyIaEp08PZ7NQ8++ohvvjJnbz7itSsFlVMkrvvdWRI51f6ieevVKW+9PqVRz8OThg///r/hbFFzdrICV6KTOVEijdvC7DVbLfXCCDbsCkClqxIVFwUXIa4b1Bp+5daYq0eev3BzSiFbT8xut6UY0VU5yxa0beT//Cd3uPuw5u131sRqzsHBNdZSs7GGIKl7K7t9V+wQoMmo0sxntRDpGRcm+pRxzDZZqiT9XUyRkJJioEjf1RoDak1qN8nmqwArGI2v4UdX+OjhD7hHzT/4f3/M9Stjvv43v5V2jcQsXJ+bQSHJ/onx5vWSoxn88tdK7h/XvP/HaygrimKcP0/MtY4OcfEDjIxtPa0HBUGXsLQHL0WiJaHzSTXm1rU9rszHzEcFoVlibY1Y4qeG0II4/GhMoKCOyoPjC95+5zEPTloWG2VUjFAtqLNMoPdFovpbSMctZPqRynZT1RtLyHMmza1bqMm2wUjnRVBNHYkFyxOCXN6VE+rY8u4Hp4S2YT5Wrl51VIcjmrpOlmqdmH8uEEJ7QVl4bl6fsF4Z52eB9gLaJvSG4bGzwsuF3c8r+OeLnJw98drd7+1VfHSgD7YdmPQg6c51RmzgGTfQjJWndPS9Oe4OV6lj2Rkv6Y5f7ovv+efYcZA4O7DErtVWzGEhIKAe8WPqYFzUDe++d8GsFK7+xhHF1KcuszNnRhPAIV+J3XV7+2rJfOL4zreucXre8sdvB5rYcLY+w7wSxW3tmnBEUUQTglA7CpSS6RgN2VUzXcCxwLsGLy23rs44upKk71w/gtnaZglpXGcYDy5qFquWH9454fTcED9GtUyCDmqEGHP+6VR1BImu52wlCT0dOP/IYCc8DMxbt0k6gFP383kwGHKfHvLxb6Qbj+ZViSnOBGdK1Almjh+/v+RsEfjgeM24FK7OsqVXNymwrb2VFyhVuHZUEqLhOsBrzEhhiTntpdca9pCx28kNu8nueHQfq1cMS5zKQpVRUTAdjShdGvWHmEn5vVF1MmVWV7CphdPFivOLDYtlndSNfUlUzaosXQGQFYdtmw4TuGdrxbVte+Vjyv5LtofCrgLaQOcoDgCRWEIgp72Fy9xJz3ITeHh8QTkZUU2TwpCoS+L/gORqSmLEiVKVwnjkmIw956sImxY17SkPL3oW+GX1An5R78vk8nBWnrGvHsK5Y88r7q51rzmOpQosL5/lSRjC9mZ/usTQywHBVybzDuQQLZN3t2e4R5NhhIxIFS3wxYjNpmWzWPH9t09Zni/59jf2mU588nXsLj5xmCv6gNZdN1+7PcIMjv/iqxyfNjy+9w5n65bTh2tiVRL8GMujOcSn15U2/4b0VVwyIjY2GXcKWIvFgpGvqZzxtVeuc+XAM+nThu0E1dQNeQz44PSUk/OaP/yzhzRtiRS3EVfgLHspaqS2JEoeLSWTKm6VbHZRMjLY49rORqxDlZpsb87CoEASZQHNJl5kfqARtd3iCvods+DwtG4fs5rvvf0+Vw4K3n6w4GhWcnW2N2DkxJy8Esq1BKIKr92eQJYGNDMIMQN5tXcs6bsi6WROYr8TlaHFJLJrfgxYCKgYReGZlCUHsxnjIuLMaCNYsCTgIJoBFB5XjGjWNY+OFxyfrDg734Cf46uKEDO4qxOnst29ZH/MRXppz+cbze0mzC333IZz3fxFM9E9v6ZLUwXJVolRCi7WLR89OGM8h8meZ1IpzgmShf3NQi7+Iuo8ZeGYTzz785Lj01XqumO5NTj4hPWkyPPP/+wXodMxPoEuMZiKdD+QC8rElU5jc98tQbvx1mWd2GG7L3Y5Ub5sKb+aj9j3DtYjNjPdVxK/sbcxihHFo+LRYoKO4f1755ydnPHP//geN6+O+b3fsopA3wAAIABJREFUOMQ7QDdEjIZNP+qX3LE4SWCMX3pjxGpdsPr3b/PgpOYP/vgRj9cNH1wsWdUFdfT4YoJqgRY50YmCRVoaEENV8QZFFEI0NLQczpRJJdx+bcLBnsMkZgpHsnFy0tFUUrIz4Ac/eczD0w0PViVYxaicZkuwSCFZmkwKgjk6vTiNWRkm/46BnU/vOGED+oXllENOhGKWFXU0W2ylM9Am4CVNslkBWlQUb5ZsphRohRgF5yeYVDxeTGkR/vD7j3jzxpTfeGVvu+SNW33dzr5PVZLnZAsHs4JNVBZti3mHuXxsTDNAZQuANrF+ziTSCe5LTgAuDy0iZpE2bPCFsj8dMZ+UTKsCJxtC2+amT/M+UFIHiWOxbDk73/Dg4TkXq5aQrzcRj2g+Pt0Y1LYG3n2SziNykWcpxwwFuS8lyp17YZhzbdA25EVzztqRLTUBBXGO2lrOli3H5zWjkxX+qMA5R0dzSOYChoaYqEy0VCXMZp6qAu9DIj1FkhBD3gO/fLy4hCqXyiZhKPyaVpaexPTSy7aauy3/5e+8fHy1S7HLxZD0yrAdj25bheUtoDqcr/AID08e87g954fvnHByseF3v3UVnCBS5/SQTZZxmQpCz3B75XpJGwz1R3zwYMk7j07QRzUfXZwTQsm6KfBSoN5RiCbUoCrRYJM00fGqKbCIEMyQGChGymiqXLlWcTB3kGUKQjd4Fss+k1vB8vfuXXD/eMPZxuO0YDIdQ2iRtsFrcjyJ5lE8bd4vKSnwu97EgJ2RrCDZ/WXYrQxGfZ0snxnepMf0dTvC4LY3r5ohYjhJ3DzLzgpaVJjAYjMiEHn7vQvK7ELUaYxvwQzb860qHB1WXCwCs4mHDSyWMam2d/e+yGCqZYOJxLarGeChceISCjQ26TOEBi0KJqOCSVUwKguc1VjMo3HpkMOGugIzZb0OLJdZnGADEY+SJPFyFidalzCH7+EpIzd5VqFvz/h6SdpPnrLj7JN0N4Wx3kZOLCXMNgqrOrJYNZwvHEcHZRZfqLe/tp/KJ0nCshAmY0dRgPe21b41eRmGX2Sou5Qkh567lyFtHrH7Bt7MXu3HKjsZV7YLUNkdSdjHMMxePn5+H7It0nv6UBh8NRF8Ri36EFJn1tYolmD85ZzgHP/ku/eZjoRf/foRe9OCb701xSTSsElapzR4PB7FQpFF1hzO4NaRZ29vxn9x5S3u3F/x3Z+e8mfvLbhzd8WDkwWrekFYZDCNr/pFgahD/Qg1hzOfDYdb9vcrjg4c+zNhOk7iAHFnHGqZxOw42cCqhfc/XPPgeIP6fURL6nxMnEuAC1HFRQ/msp6t4bXJ91aDmPTjurRgy5LPknavUXaL0B5tOeyQYtuT40WgyrSMZD2WUL3BWhozXFGiojTWEk0YjQ7xLnDngzNmVcH75ytmpedwVIB2+8wuISQa2ZU9x/Kw4LVbe9w/aThdrbf1dTSihWSajGQ1GsviBXlMbZo1U32SjAup31JrgMDIG+PC2B8rk9Jw2mChzQAfy0jgPBjXitgYjx6veXSc/jQ2SnQfPDEK5kIuKdp8AN3HFPbyMSNYnvz7AK7RK0bFj/utxlA9F0nj7M7MO0TH8UVLdCuOrkwpKmWMTyA1CakTDjnwhpbSK9OpMhobZRloNjHlZvc8I8aXD2ErobEVYskg1/gxeasD9OR7UMIWme8R1piVn/TC8uzk/PLxFbzQLoeXKF14zYFDOhZhUs3AYiq2VMEVQMmD41NOfeDByYYQDbO9gTJUl6zCYB+0He2NK8VXytdmc1zlOGsCF6uWxbJmsWwIrbFpUiDrbQHU55vBZcOAAmINBkWpVJVLxHD/NIpypAPEbAKsW1guA8tlRLRExPfKaJZntyqS94jaj1m3TMpu2z8UK+9RUzsiCU/vhGQgYbCVgFdhx7OvO3ZGTKhmTXtAw3CuRLVlsQwsVoFlEyl7yyHdmRBAOn9VKVSlMp0UjJZxV1ru0vvrqisZmuz248jcMdq2I5bcEXtJUnje7TofiQyCVepPMYvUdej/xDzi7Okp2W9y2z4/b6J8zpvgY/7ZLo3z7FndqnTOKELdGutNoAnZ7SWvFHovzh48lNHSPgkYqMuKVi9CY+bl41NGw75JjF6IS8EiMUDvS2j97d1fEPaUdXhfbunLYucrmCzFtohMsj9lR8yTNrHN5l0xFlvMhNBCcBPMjzheGTQN/9P/+l2ODira+Ksc7Vf8+tcPCNISaZAsRJC2iQKWrZdah4qw55RvHo35+n7FX/nmVc7qyPd/dMKjkw0//OEpq3XLnY9O2bTGw6URmoLNcg2hoG1Llsd3adYXXPlLr3H72pg9NSYd7KaD6dNJtyVJhDvvL3h42vDwQ+P0DGZ+QlRhpTWmgehaXMwOHk1SJ2o355gFzuvjzI0sUHWUZYX3PnE3uw6yD3oupxKHmRFi6PeAMUITjTZssNiyWl4k4YbjiKhSjaaIK6CoaBVa0eyDWacuBZgWJWLKySPj7jTyJz9e8daNEdem1VYWLmpONg0iwp4WHI0db74xpTXjBz8+yTxbQJOQgIpHgHVbE61lY8v03ojJaUUcPhY4HNKkvayLS4SAunOkHDEdHTAqW5yvCbGmjXWGNsUsnCs0JqwbePRoxflZS2xKpEgdZojpvKkYptuCgl4Ywn1MaS+Xxq3xKb1i54Lodr7jog6eYzvFXpDLcTFkam+WNCpHXDQNm/OWk0WkKCOTPZe1cyXTmjwWhbYBVRiNYTQyqlFgsUwo4jQdeHFmF19G0M+n0V2QT/odsrt6QOKgONmdksZBAeQMvIFaRAmo2H1PD198XlfLlx3mL0rSZFjwPvU5gnZUJNny25J+rBAlOdufXrQ4VR6drPEqNDWZFO/SOMqGuOvdsZgCpYPKKahSjeH6QUkhcHJQslwJiwvPpk3Aj6YVlpK7LDViGdEQGFfGuAInA4Rq3xkIQ8bdpk6C3m1jhFZwTrOuQSSIEdR6sQJHQE3QzHP0fosmFkmoRyEJiYvI7nbkiU5z+z0jJsRnx/P06d3F7FThug40jwpN5QnDd81NSwxC2xqrdaBubdcJ0C4dbwGnQlUpvniGHFzfmWaBBd2KMmjuvDtajzpDkjJcPh5ppO3T6czj3LjtMjMnjkzViQYhxDTu3f7WJ1YI0lNJLjko/YxZxZ4Rjj9uASVmg+mJ7XSYnX1bSHUHIVgSJOiT/DB0y3ZGIaDOGDTVz98l/wKtIn8mP+Pn4ObsTFeF1mvPLtryMbsnqT1J77UduLK+PHFfwXQpJn3wilmQuB/FdvV7Jvlr6Eaqbd7XKVFLgnp0/goY3HvkebRs+O/+x+/z9df3Of0bxluvTfm1X9oDKXLES1V5jMmDquvCNBhGg7Fh5oR5IVz/1Tlmjr/1O9eJ0XhwWrOqI+88XHKxarh3vKHeQL2B9eqItpnyF3/rkCv7o+R0b4a0TSbxFzg11HcKLcK7dx7x0w/OuTgR6pVntJ/633Nds1bjwqdtZ2EwDWvKpuXN6yNGpfL1b76WigEpOD9vuHNnxenZmpOTc4pijPclQpkSArvGys6KPGKEdbOhadfcPPRMRp7f+uY+o1KRWlitjR++HThfR+6eNoSyJI4KotWYRCY+JaiRNRAjm6ZkcQ5/+tNjZhU0X59TWO7BQh5nZmpsCYxL4cYt5f6xUBVCjdK2DooAatRNjRhMxorzJbODPURTYE+rXKGgwKGJ72pA7jBLN2c89lw5KKlKo20WGA3iA9FqIhHvR4CyqQPrTZuEzDeK81OgguhxWW647RwC7DIo5+MagOeJWbrzfN2WiE/pU1PCd3mP2mbEM7mwihZBFfEldRNpmsjJ+QanxvX9KhUOMf1uLxXRjNhG1BuFtkzHyt684ORxSrgdKNck/gIkT/uZnmVP/I/1E55nHTPZOc8J1xDo6VcRbO0ln6rA1qViC2/fZVyaDGWCnvb2voQn7uedY2RfdD+/lRKz3bPPrirUx729bqeZo7AviVFYhYLTlXHnowuqCo4OPfszz3jk+Hglqd51MYPPtig0U2FcOdQJh7OCUZG63qaGuoF6PSEEz+GsYjYqnuhhtzeR9Nqn6zawrAM1UAuUeUHhYtKudUFSoRAiIxcYS+TVaxXTsefN62NUBdRxNnHQwD0faNbrRMMJeeSIDj5y5jFaoseYGZUzRoVw+1rJ/rzgjesjRqUgjbBaw3oZeHRWc75pWEtgHZrsHrIVrY89CEVpTdjURht6JdRtATy0rcqdaVlA4RNAdqs7kQTsC5eQufuzEu+V+SxZcnUJ00zwONSUQjqJvwohJFu1UvE+j1M7KbynFPwxQgz5aycvOEwUO4hX7ScU8okJ8znKxtwtyhMjy2chbHeF7XsKi12eKqTJQoxGCBlv3hFYzZ76CqqSOJv0GNxfEBHTz3D+eLq4+i5udSBt2HGwO8lCsUw9k34CgIF3+Dbg20WnTuEDLkaKGDMXTJJepnaWPOAz2s9dFqz9AtPmp5q7v+QrfcqrTfu7PrkzdQEq9uN/VQdmiSJBJwXXxa2AWMRlo1z2rhFDy+MLz9mDJT/9/e/z67+0x+/+xhX+6u++yre+cdSTsbv1jLX0Y8UkVjACa/I3GpAAUiKS/DUBbl2pPvGjtawIZqjT3GG6zJtMSMZocPdizbsnC+4Xno0pVzR1npO6wIvgGiW2CyxseOOw4doo8Hf/5m1uXp3w1q2q1749qyPvnkX+xb++xz/6pzXvf5gcT1w1R7TKe1vDZIOY4M0T6oawqbl9G25cc/wn/8Ft3np9j28dKVV2cFk38JP7xg9+csLv/8N3ufNoyZ1HLW68j5YjQgiZ75pQrButWLbw8HHgYpESco/IzapL3R3iAe/g6lw5nCqzSom1sGmF0NaYNNzYT0XKb/3aG1SlZ38+QsXwLo2R0z42j62dZLHzVGw5qYmxTTJ4wbCmzXvRBIxJf08UmXoDmzWs19AEwZxLFm6u3qo+5c5MLJ372AOQwscWYJ/UcW6NvAdrMIZd3bMTpnaJEcugtIxINodFhwXHpm5YbyJGlUBkrjtusSufepWnsigYjwwvRmtGm7m+4r5aSe5nHTg/SxpQdzaXnaxhNm7L5vaxFwvxuAhlFIIEgra0DqK6fmO5h4s+kXoh5FmsZaYdlnYPYmBuVyORThorWy+Z2KV9whdQ/djzP+ml0eqnLUZk53ymi8+yBVFWnLHhGKzrmKR/rmAEaxPRXTymglYVhEBrJQ/PA3/2zilXDypWm4bXbu4zHpXMJ9knolNu2QFWbBmbiSieO6gh9846IWvZHcHI4DYSCKY98EX6XR+EkMZ8jQm1g9pDowE1KGL6ZG1UYrZ0uX11xhtHjsO5Zz7WAUq2pVThsHLcOhzxtdcOWCzWLBYNrQkxJLcXkzTyFhNCTEjV0gk3jyp+6c2Sm/sFRyNJtJUMQHUi7E+Eaweet96YsrYL7p2tCTTE4FKhkhjzaaxkkTZC0xhtm5w7vOpOxI2Xho4+41QkT5xCjKgXxCmH+yNmI8d8DIWPaFiiRNRiTjKdeXbeQotk2k5WZbLUOortNopyaZ8bUxOf6Szb0jxK6KddLvNC+1GpxU8MEPYZAsyzC/VdgRfb7dm33WU/gDFiiNt+sQMMEftNru3Yt+tW2UqML29/aV+q19zmonSs1fQS0tn6iYJgaDeZsXRfhoFkJmb4/BxtVRNIQlOHmdRGkjblFjCeqQMZOaaWk2VHXLbtVvNlT/fzv8vEpEdMX94RbRXIdNsK5n90/egjcRKDU1DBF1OsETZxyjsPLvjgw0c8OL7g1Rtj/qO/9qvcvrbHdDRCkwFFqrht6DCZTXx3OMEQcjehphANDQl1iPbIksHnKlP/obtYSoDYQmigDpJUbgphIzDzER+FWevQKBA9lknz3/r6Nb79SzPeuDFhNnG5awwICya+5I35nPD6HlpMODu9z+nxOScrSTJwo+0uykywGKnEmFTKX/jaHn/5dw741VsVRzOFdpMRkkqhwiuHBaojFlyjpuXde485bzZsGgE3TclQFTOjsUgdLXlH1oHQ1FhRpoOceCoJCcvWgGTkEtjKuVQotyEw9kpRel5/ZZ/9ScGNQ0EssD47S1jfdsullGgEIJhPtIqueB2MX8UUFdcX4kKe/+Yo0mZgTOr88zRLAkFT6kyppkCzwfLl9cGze5XnXyHpJ3QxT+uLZKCYFpE0jcmJs9vzW0xWddYv63Mi7Ufm26JHxeHUodImRC1f1t2lfS5h6Gd9WR0U3DYAlalt56HW2QHl8+WtMy1K+8taM7c7j2q9ETDRKNmbLXa+gP1eQ3bkgZ6QuvgS1BcvH5/fhf+siloun2mznU3B0HPOxzweiwGi4Ms5zpX4YsKHj2uOz9f46kMO9x/ze9++ymTs+fobc7wKM6/975StNQYSt1tU7TrLDPg2OsFwthOR7qbQwcjtsppRhLaFWDti7TKcnKTGokLQgoDSRKEsHVU1Yn5YsX80Qn1+sSZTI1y+RdUYTZRr1zz7c2UyNh4vG5o2uU90En2Wm6OiEIpSmc88R4clZZE/f5Tt585GtVUpXLnimc+FahRZWIM1guWtK9H1mqYQaGNDiKnbHNY/KUUNkhad5GCqrqMZbQyocxSlZzQqqEaOTb1ALBKlRSxAbPLPpQOdZA9TsaUDe61dybHI7la12/HlLiymmNTJM1o3P84rwWhdKf8UrddPjLb2uaaAPsnGjHkV6Sd1IRht6A6B9AqF0WIPt+t7TOmYNvEz72a/XJOsz/dzxMsj9jicgG77zsvcWuvADJlWrJ24f4z4fGkietn/bVckT54RZIYV1cvHy8fTNkWFpUo6thEVwVdzJE5w1nLv8T1WiyXHi7uMRx4/UQ73K45uTRh7Za8YAoI6Ze8uWg7GxVhSS+l8VHol8EvvKdd8T7tee5BJq1jrsmKNgTZYFMwpwYwWZVw6RtMRs4MRe1eqRD2BlHGlM2xOb3E0Uq4WjvlcmIzTJjWEzLnDsj5v/jgqFCNlNvNc2S8ofPfRcxEbM5CqSMn18MAzm6WEqXULreT9XX5SnwSTrVawrijevYv1iftaM6k+FT/BIs57itJTjTzVyFE352lXLUn0PlqbeaTpw6ske69dAYeUGdyg6u9VdWQXx2M5elm3JhAdhj+2Q0wGrjM/yxbsi+i2+gV/BpelYsDs8vu1nfunA2FpLl6kBwe9jLjPfRZkl9Oxtex65uB958vW5t2iH5V+aaZZiBM0ZqsayaOD4UZSBl9t96Re8vN9+fg5qsSePVp66pvJT3mecVbmAzab/CN5byYljRhLi4S927jpdR7ZEtkE/rf/50NGJXz/Jx+xP/X85ptzruxNeO3mIYezkv1pyQ73iW5FYDmYgLguCIe+1szS6hkg0q0REjQmDWaLnj9Y4CmtoAgNMRqqSVCg0ZpWHa3Cqq2xdcuD0yUfHSuvTiaJK+qr/NpJ5k8R6nXL8Vng7GTF+dkCY4R6NyDH59tHoYlJlWdxsWFxumJ/r4TK9d6Hw2zf1Mbxccv5WcNyURNCmbVlIyoRCzF1adJiGhGnSbhbyn5/2RXA2oNkOmHvTjwh0qIEMZoQqBtjXa8pvWM8SvvkWNcZuZy6qCQJmK2+u8oh4x6cbWcQqfnPoLEsF9in7yw9iLgEGjJBY/LjNNX+vXf+lGkPzCWG5p/3PWe7QqIZEGVENGsgZ9w1IW7bG8GyqHwe4caIhQSk6yTaPk0f/aI+6+flTfnFRrXdKVlXXCf5xs6JJ6fIrtOMqTIvS11777V2QcsuD/ZasiIfL5Lxi4Frfvn4jFeoGGhMHY9zybswiMupykFZoCqsFkYMNX/23kMKDcTmlCvzgrFreOVay3w+YVw59oadkV7uZeUpN/WuFZMMknlnUnaZUuFQHGlvodZJtmU+qqQxamuBum1ZblouVm0m1rOF+famtCTRgFVgvWmo6wYoUU1J6PLxima0IdLULfU6EGe2+2EHwS0EY70yNptI26Tk2IOYZLu56QQNRPNeV56k8cgTOl7sJPPUgcc0tg6BNpISsG0bYHnqtka2osTs2gSaPKMb65+vO7ZrQxDNYCva8zBtKC33Zb81RBL96JLw6K4IuPUdObZVYHv5eDHJ0y7lMZPh9OJJEUTntPXTWXEWa8UuGlBBpUwamYPbqKMTJUj1UDQvPyvKDmfz5eMrMcjIBa89tcrswRsfV3XmiUM3rhSJRIM2rmlVCc5RS/INkdkYsRHjqUNj4INHj7j3sOH9n7zH/mzE7Sv3ePX6mJtXxrz26oz5rODW7Rll6djbm6BOGY+Si0VBORiAbd93FjDLn2yV00Hmr1BSZLuw6diYjY0qKNYm7qNk709T0EKo25bVZsk/+//e4Z23hbf+09/k5pUJV6bau2rWEc7Wxvd+9Ig/+Bcf8sO3Fxyf1zCa44siO6VsTZMLr9DCYlnz3T+5R7h4yN/4997k9dt7zCuXAqwJbTSOF4Ef3jnjH/yjd/nhewvOzypkvMeonGJt8q5sWSdAka5RJ4xHnlGlFKWgTi4VwXGn46ibyLqJLOuWQIEvCzb1mjYE7ny4YT52zL5xi8IpRTVGzDJKNunrtrlLVc3j2XxUvIVk8txsMAlEQoorstXf1VyyFIXDe9frqMYQkj+rSe6+Ohm6NE0QA4f/0k1sJMN0oiUbcJFIURRUpUMy+MzyTr5XZ8qds0UjtEbTRILFRKSXuFNIfPax8fPsReUrkCK3fb8N0NRGksZMCO8hMjkd4RATTWsyKS+8cxpVJa3Vs9XS5T3BLs7nkvSzPd947uXjBa1Cfh7f/3BnKN3WSZISSv4/l7mfTioktjTB0baBsIq0dYO0K9QgNJFqrGzakvHcU1UeLYuUlFXTcDYXfNpZLJHI39I3al3vtAuiSGo1WbrN5d1FHtNs7wXpqRZmxvlFTYVxsWxYTALzSvsiYhOMxSZwdlHz+PGS1aYl5PsldRe7AmydtViMcLFseHS84XzRsNy0VD6pKxnQBONiHThbNDw+XrNYBmJ0OJLV2JaBGLduppIMi9NhkieFRwbuF5anUDEmhKoBopL20DGy3kS8RpqQjq1zrk91lkNNEk5Ic2YbxIeYl5X2VEsHBqV+5m/qsGMeHK1LFlf2pZ16XdaWtB7E88R5sK3E6fAzd9Q/+9xylz3/jfyCgtWfl36tcdld5mnPGYhM5JwnZqnDnE39RY352NagBeorLjml9uLCiZUi2xssuw+IvdjY/guTfu0FHhB7wQfXnu/pn3ThCxA7EjcxUQ0kpIFlFApJQdxyZE7uHyXV9FXUYDwTYh14cFZz9/EZ0Ra4f/k+zm2YTxXvhVs3jyjLkhvXrlJ6ZTYpKAqoKsPR4Ij8xq/cYG9a8datfZy6pKoz2CKaNDjvcU7ZnwuHB8l6iQijOMMw2swhDNQUpWc82uP+gwc8/nDFf/8/f5fZ2PO7v32YtFU9PD7Z8IMfn/LRvRV3PliixVWK6T6NGyVaCgG1jBQwoUBRLXGV46cfPOCn7zzm3fsLDvZLfvvbB4xGjk2I/z97bxZrWZbmd/2+b+3hnHOnuDFl5FCZWfNAV5ue3G7cQjJisGwJJISFjPyEQAKMLMAI8IMf4RH5CR544AmBhIRktcEItS1Bt7vd7u7qcg3dVVlZVTlGRkTGcKcz7b3X+nhYaw/n3BsRNzJvZEZGni1lRcWJe8/ZZ++11zf9B6azmu/88D4PDj0/e7fBsssUkxfwNqJZ5tHdQo0gSzQYhS6Z5DlX9ybsTZSRG9Jp2ogYut3EBzicBo4XgZkPBCfkmUN8hnjh5+88wLnA9CRQFjk39i+jKuQakUs92hMaS3V0qMGMPNSUheP6/g5ZDuUopwk1Zk2iUAqZi0G3yBxF5igLsDpAVaUZdJqHd/SL0GkZxyqu/fdnI1xqWwuG1NGQirIYxY5ImvlK0JWAilOiK2ZOVcNi4fHeR66uO0fn2Z7GpmsX9CO2Pl34mO3tR1f3nU59EmJZAa9KH+NMoNE0JZZWa0AIjSeYZzIuZpkqC6DqxDvXhN0Hk5AVRousPGybQvDpxdRzXONnuAqNLhZrOZ1Zt2gdvTtTN25LG56khWsqBAk0kuMtow5ZbJAuIWuEgxOjyAMuq8kzZbYw8swoCkPDEqXhtZeqyPmz9Q6KDN0oo3BA4RiVLpL3GSSP2ot6d7QLcoyG46mnaYwP7sb2Jw4OjisOjipmCyNYFj000/zQBlVSp+nSajdLdE0J5BzNIWjDB/eWlKVSB89s7jk4bjhZgCeD1kzZWoDNwLja4rw2U2NUKHmmqwrQZ2gbmkFVG3UT1Y/MALXuPIM5xMN8EUUQTsoaJ0LupBMs6ANm0wdMArmvaXxOtRuQbJ0jKyvnH4ExMaGKmuahWzt9pfmEpaV9Ok/xENCDWKr2h2LxgwTUBpZwqdr3wTqmw2d+P3smGrOPaUXbYH0lapSozLJJKT+Uk3AjmEeCW+P9xpsZXQujO70MF/TK83aBF+Jz0OJ94oVjF/fsXuS9eFSF2f5LLdnKq857HEbRQeSt3zis1wYNCDN1SJmh5QRkGxHPkhcINCzrGjHjzs06zgHfmHadVrEGoaGafUhopsymjldf2uWbr14mdw6kBPOtQi2RihHP8+WX95DRmP0/nqPeUy8ioV5GOUKNqCGJUD4av0hRKm/c/IDgK37vzbchFgioKJnLyfMdit1LeEo8eZyFtoxHM7IYjyjMYqLgcvzkOshl3jw4wN+v+KdvvI9ZQKVBRMnKLSSbkG1fxRgBkyg0YS0D3rBlfODHVFwa5Xzt1V1u7I8i2cSGCVk6m7aVXMP7d4wPD41FiMgtwci1IFMhkIMF3rk5RVjy3ju3UBGKTOO8J8RZWys0EKu/aBquYc7e7hZuMuESJZPdcQyEPnSKNqGJhsrjkeK9sr3tCNMaO1qgLo8IUoudizBo9a9WDM/S3MwQ8zjvUdfgXGBnkrN9V7uGAAAgAElEQVS3MyJTh0tayXSzNU2JidCYMq8803mND9GQ/OL3l4vDnzzJ534a23xPL+nLQDs1DkjPUIiwazWPBB/yTP4sq2q/aHyostaA/ZEJmw26vPJE3e0nLEs2peVzdIQhytEgit+lVr6t/GvHAW41Hr3EtRbE0xDttSqi3F6ukRjvsugIra1WZBCwOgbNZhbdPxphugxRNabbkhTr7OtJYwdjMsnYrWE8EpYVVAufWBG6UhHEgscRTBE3idq22leqsQrNMB0RLCO0ooFyhpvCWlcniNKII7gxQTOk8IkXGlJQLREtOocVS+MS6eaWUQhdiFJ7k0LZ38kYl3rqWY7Pb9xGvEHdGEcnNbNloEl8yghGaVGxGYihrkzWbuleWfT2DBLPIfJLGzrKD4FgDYGMZQN1kF7Rxug8IbEYOJxEW6uiUPKlJIsIH2X1SN69iSd6gfaQFz4va+FmZp5MjTwTskzJXS/sICtC4GmUkSpL3xhNY4Q0wz41Fr2A7ODzJh9qa7KptiK1Muh3WOp0iFA3YZHdP1ncnS5lsjVyeIQlrZrIgOYpqz0c7WqAs3zjNsFuc6yuid6EN27LLhiaKquWO2ddgIzzzUpjjdI4iw46YixRanFUFARRtlTIgDzLEITMcmI4zrBQgVXULiNUR9ydO9yxp7LoPlKQpVAuCTnru7j1wgtbTPaN65cVh3BwXGNOEEYgGpGfIXk1hhy1Ahm/gMPQcpYktqIPkIaoku2Jz1foPqk/dPBfezSSsdSCphxjImTF9eiNMFBFMzGCgrdAsAqXCO4aErDGCyrK3pZybS/n669tsz/OVqJ030iKkoHLIEyXnvc+mHH3oGZJRi5KoYp6JTMlJONrV4yTq1GDmdGEpNqjRM9QAU8NYmRaxYCJo5KCo6Uw9krQHKRC0YiOVcU3MeDnzlPmxqVLBU1oUK0wqyA08efF0aCpg9lccK10cYdKq8NdM8qNyUTZHjsm4ww1n9RkXDRgp+7Kr5D0fxdLY74wvCmhRcdeaHlmn799qRXpl0ArNhhzXU31frSTV2BcOBQ4ni7vZ3XTqJmiKpFL1oIHQ48l7CSsOvPd0M+b5OIzu3Nhtsye4J0ubkHIBhH8EZZnrzXcjXMkBpwOCZgWcWAo1N0LohnRLkyALBGNXSdHELr/tZaCn6gKIVPMHMezOUVRcdJ41CuFa7PAWGGGENe3iWerdKjClcvRn/LH75xgOFzIQaObRiskFDAaPL71gw6uLRE7Q2OxXrcyrKABwkB3WZKVkHS8Ow0Bl6pSR7aStwai60istixWX121Eq9TXS+QLHB1f8zVSyX7k4xxHtPcYAGz0KnytI2dk3nD0bTm7sGMo5knaBa3jkR90W4kYx0HwkICUHWCElE8P3aHB2bY5vGW0XjHYhmoq2huLa3xs0W7r1aNKYQlIoHd3RGLumE8yVjWsKwr1GUR1ZxgtN3O1HFRn5Hn1OK1JjQQasoi2qGVhZJnYN73FXJy/Gl1kH0wqqqhqo2qBo8jiHbrD/NnTuae9ZhpT7SHn29PlsfuQTKYf1vnXrLG+UjTxSFK1qLpuQg+eM0a32gwp06zuO20NLVhy3Ug5zNQfOylmzYqBpvjURn2GXOLiG3o0q/u/w80YNLfBtSI1B5sA6TDJ61XH9FskJCFkuy/IGQOI+dgNgUxTpqA88YlNwwUrYhB/HO7VMa5cP1agWZG09zDrEDZjg+QaESHC2lWF6LbTwznnWxPFwi6ai70gpYpgzCjy3BbcTfpBB/adEPIkuINK/ZVvgu1SkCsST6kseKumzm5Ci9e2+HG5QlXt4vB1Y36q/G7pMahGcezhoOTmjv3pxxVimms5iPrRPpn3QZIVNWBApTG151EKorXFDAjBzZYgQ9ZtOyqgBCvk4oMEEZpjYQlqsL+/oRF45ls5TQnRjOvyGWEKmSioIYPylBZ51lJa+PUodVcrBmVY/Z2S0YjR1EIzKJspJhLDL3IOZEUMJdLT7U0qopY2SfR/82W++S9LhnIvIYuWA5XyxAI2PdPVRWn0bIuUwkqiAbzycy17fcMm+Wtoaatdtqt15E12KBln1qS+vgn4zwZ9ZNmdB8/S08LLplbtp/uU1RoTcvPmse0taMLGo2GMVxCj7b5ZJHmn5lFx4EYQloLqKT8kjlECk5mR+A9H7x/zHK35KVX9/rHRBS1rGuVFum8vvj6Nrv7Bfn4XTxG7RfRPzPLY5iXQHA1Zr6r1LJUIWXJby/v8lmPo4E0h422XpJoHDEQ+dQWckBuQh4kOb4bJnWnNtQlHqnCjMLcmirL5FtpAZcHRhPH1792hS+8UA4q1LDSkrVuZmbc/vCAO3fnHBwumFJiLosyd5ZMwS21PwVCcqPRVtlENAolJMBKSDNeQwnWxIpbCkJQprOa2bxmPq8YO6NwLlJQvEWxJMA3C4IoZZmxvZ1z9eoeTag5Oo4t4OANdbH1fXowvFLkrSRrp4uqJ3GRODtSrb/a+Y2a4euGQmA8Krm0O+Hq5S1GhUMlJFpJolUJaNaPtBfLmqPjikVV0zSGZS65ysgaWvgip3qPG7BwIT/1TCQyw4KwBR+u4QkM8OaR0CASNGvd621goySDQHgGxfnUxZFBobs5Nsf6o9M6YXTbtPQbSmAoSTXI9RIvTQcCxdbKpaUsMbeWmhJWgCtNcrkOic8mkrGsA848h4dLslNocknt3lhlZmlNX70yQgslKzwWhDo0iICzoqsEgwRMApqClYYIPHJpNtu/qyESK0Gfzs9Ek5a8DEKYdL/vgnQ2Vo3WKXC2VWWPhlUUJ1EuTkRZhCYial0gLzNu3Njm8qVsIP3dc3iGlyGYcXQy53g6Z7aoqbIccgetSLhFArdISH4allT3UrXeVqrSmj306M9o/kkEQRlUVaCqPHXtGQlopojFNnO7m/hQgzryXCjLjJ2dCQ8OZghN231Outc8gpj4BKWYnJVcyrnDgK2JdiOKWSAEj2RQ5BmTUcnO1og8a5KpdkpMbZCkJlWqxnsWy4qmCa1FRnpPeaiBwOZ43A1eTWts7SVZk8Zr1c5aD5lskhXNUrQZB0dlSk3A1GjUOv6ZpRlBHlpsoUsw9NRoknCh/QF7wsV9Yf35zXzyKU0requiVhMjtBvrWsAkGbxm7cwuJNWeVv3FBE3EjLbWHCr7RCnr1D4UBSsQEapFiS2FP/r+La7vj/j1X7iGk8iiJEQJsjZNNBd3o6+/ss102fAbv/4SDw49f/D9KeImiO5GWokGTOaYNDTSipgXqT0cormxOMyaVPs2cZ7VPppmSUpO0jy05zxr8uOLRail6tSQEOvgTFq/xCwGrMal6s/DfA40/Pqv3uDa5ZJf/uaESd46ckdiX2er4Ab0Hx/43psPeO/DmgeLDF8W5JMJhdYU5kEqGgvR2ahzfe67AZKGj2IhBVHFaa+QhCjOcsQC0+mSw2Ph7gOh2C/ZGRdkWRbXhsWAb1kT50z1CaPc8cqL29RLmM8CJyeeZTXD6zj5nmapXZ7meuYHcStK0AWfCoKk++s0fnltqRqdelBvr2Xiu1Z9TPZsQKNL89PUOneSdYkUZtS+htAgsmB3b8KXXr7E9eslO9s5FpYsFzWFtcjj2Bp3WuJD/I6Hhwvu3j1iXjm8ahSyl7hubKXCtLNndo/dJ1v0rp2r4DnPNqpy/g366QK07My/t5/pQux8ZJ5+/o1RSZNmIdEq0JlRBiEXZaR5lTnRxqHBRbiCtntXkNRrMek/ynRQdcqTB65nOvmQTzCMXLyElK1RfZ6FVrGxShZZGRMM2oGrVHRLlST07iIplHV/Jj8BWX13WZtXSAdTcVhQPMrB0ZIii/QJWVu/MhxHCGyPM5wTrl4eRVcTO0lt0KRtliTcLVWZpNmIpCRSRGLbNQGXVjmndvrarLWLQlthy/C72Yqfn7RC5dZ7KkZXC8/l/ZKr+yW7O47yjPW9IvSd7KYOpxXHc08dosNI1HX1qLThPHS2X23PqkM2rASTwZ2VvvelEs2TvTeaxlPVNT7kdFJ4IngLA4vBCBZSVcZlxrjMGJWO2SxxTW3V7kpkINwwuKJyxtxPhh2yIdBjRdUhdCzd0yBC6yvrVO2KSLsqukRRNVDkwtZWTlk6sgxsaUnkwVakMyRdn8YbdeNZVg3BhgIPcgYB4tFP3zOdS1/Uez3BV10xa7C+ooeIyB8K+gudbT1OCNkX9q//wBZh5l24c9wwmtbVJZ9D5ZKkmSlZcKgphY0jtTgU0YVdmyhnoD6BHPRC+tjyCV/vp3KfHxfo7PyB81zzyfYhtU8uIJ7nThrQiFt9NcQqUFn3Xh3+pu+qR+s8g9sqc7gHC160n3sm8n5mijOHWI6iBDcBMv74zSMuX1ry3ds1+6XyrcsKwWN1jViGWgZZNEHezmGUK3/9L3+Jd29Oee+tYx4ced67fcBoa0I+GeMTOKPObVAtg9MaNchjuCZLepSKICmrzQagnnYEEjC8GCGLlBEN8fdG3qEm5DKKvxPZCOkqxd+t5sf4esprN4ztrYK/8W+8zKWdnD0RsEDjPRIMF0IKILECNBF+erDk/lHF7/zpguOFo5lcw7mSvMmjvKA0WFbhrcGsSJ2AvMvM430NXUfBtcjVrv2d2o8qaaZZcDyrefvmPUpnjEY5I7dFVuSEaoGZx6zCfKAJCzQztkcFL79YMB7v82c/vsuduzOWtRB8RqGTtMktgIA6IaQxUwhNdFdJ5tbRZSXahUWFJddX+i3uOvFHg/qEpvT00LAWoOWShVuGoGQJ6WpU0ci8mjIaOV56aZuXro94/VWH0xprFgTfQIhdhDg6EEQdTreZzRd88OExd+83HB43NJS4zMW5vPnE8T2Pc8mT7S+PSrjNzrdbBTv/Z19Ugh91nR99DUx8FK23HExxoQDi82kYlRq1BGZ5HUcbZmRecA3sF2PGTsKN3eJWNi7KylEtMmWmYoqFhNxLfmwSoPMSHPZ3pR+YPssu4Ofd9M02LdmnPs1cb488LtTKSv24LpwcVrJC6QJ8kgdABt4DLc9hUQXmVeBk3jCSgVpHW8zI6sOuwM4oY2ecsbedU1XgrEGCj8zytoVnvQO7nMEut076rtc5l1Pc5dOmspYy3tBZWLkUkqSvfxIgx2gQadjaytjdVnYnju3SJXL80INm7d6YMF80TBcNiyqwrDW1MXW1bSdPMhK0tTtmrNrPxyq/qjx1Iuab66+/rVdxaYaaOWFUOorCkedK1UQEatei7O5H/1iv67lYukmtCUBnBiCahDS64cGKLOhq3dxXpH2wjamPDwEzj6qRORiPMsrCkbt2kYUOPGltG7vzRBeaICyrkGaXqZsh8mzvsx8x0H2yXTFbu4KrvZ7YWe3n9JZ8XRWpnEjlxFXut3/r701/8Tf+Cyvz/CuzJiwPZssvBmeErHdfK8yl2VDLl8pSPz9GbdNe1uoT69M+42pAF2mW87xxP4fNUu3tWk8R+E+1LK3nU8X2Z4iCyYnfGFJVo4PRQQcSdw3ilPvHD1hUNbmDarbkV75yGVFFs5zgFHNQq6fRgE8P0NUi48rE8eXXdrhUNrzzk59DmLNczAkyAt3C+TFZM2bSCKV3TKRgZDklOVlwZF7JycnI0RD9Np3FhmecvVqihkQV2cyUHBfNoNWoOKHRJT6DSgKVjFmiLE2ZVlOOFw/Y2T5mb2/Jv//vfpN/5Tdf4c+9NGG/TLQGSwhAiebEZDmS5V076n//hz/l+3/2If/ke4csKmWyfx3nIhJWbYlYHYXyxWGWDZJoBvVxn0j3yYoNauj+rqoqvq6ZnywoshLVnMlOSTFxNP4Q06gBHFtiBQSHb6AsRlza26Uclexf3uLu3QdUiykWBPMNWT7CUJpAkpFztPRyNIoqBA14DTRaUbsa75bUboF3cxqd492cyi1pXE2tCdUMaX3lROzzCAklGkpcyHCWRaUpjKPjmzTNlBdeLHjh+oRf+6UvcfXSiEkW0FAjvkao4wzcouhokU1AHIuq5MN7M974yW0OjzyLWjE3QlyeXEwiL1A0buyb45y7bDs2sUjLUUuJp/pk7xWR9Y2ETi5Sq4A0gRd2xr+/Nxn94HjK/5TFobghWAMhhBAwWzWYlVNZ/pB8HaNwbxD7Geiff2LR0j5yQL3Y1uhnf4xxii1lcfOwwVyw04bs7LeiGEFIMyxDUJeBCA8OZjzYchweVxSFMi5dIn9EfmI7mpKUnDkRdscZ1/ZHfPm1XW4eCrePGqahJlSKyyK4yKVqQUN7nqkKScLvIVE0hvPd0/SGVDtab9CsreV1SPrOFv0R66YBXZIVNVeulFzbK7m8U7A7ziBROVYQmF34isd0GaibwP2DBQ8OKzLNCOoiWIUoN9gS6oNJJwBuH+Out9oMkYqTUdUwndUs64a8cbHqSjrD8Y8UcEPkalrjKTJlMirY2SoQg+kyCjd433SzJ1ub9XZcXwuD3Szdi26dtDhsF8cB5lbTtwH4rEsUEo/X+wrwjEqHOmV3d8zWVonTmAxZk6h7ISSLuNAji1UJXpgvahbLKFbgQ+L1Dt2Jpa+4Pwm3j+c1hJ6aA7eGEAnGH+9rEgcRa0RCpZLUpsuyCSAL0abyIZq0qro0VB92rIZABWMoXbAJlecPlpvjyeegwwXfrrYw8Nq0IVVCwIIRtEfntmT+0WQPoeFPvvse03uX+P5XrvLitTFf/sIONYEKj2odM3naxDFnXCjf/MI213YyXr0x5h/9wQf8f9+5zTt3HYt5zWT7Ms45xrkli6v4tASJtBZRh/dR8SYkMfoVIE2r1pOarWJRzkCjGSVIVB1qzGGmNNZQNwumiwdsby/Z2674zb/4Or/41cv8+a/usz/OsOoEC6Baxk1es/bdo8AAwjt3lxxMG/7wn3/I/cOaSXGVoI7Kz5OPaPJuNCXFomh6LI/rzcojX4280RLB8eDQqJYnTPZLahfYHScd2TrZPfh4H5w5gg+EZsGV7TGX9wqW84rptOIHP75FXRvLhSHqyPNRSioMdQ6c0EiTrmFC0rrQcWQjr9YjGuXQxEog6ygzGpLeLS5Z0MXuQKaKhSUWPMvqAKh58cUR5Sjj2996mTJTtsoAy4awqMBqFI9lDaJGSAkcxYh67rl555C79+fcPzRMC0TLjkjlNAnZ+/a6ZxezZX0uplGy0hVZR5C0uAiXulOa7PcseETrA1fIXSBk8YL5BuEgmD8ZVpPykICw3tfvP/6pSrJvjs1xdi7SLbUWluETtlG7f2odIVQLCMqicTw49nz/zfvUdokXX9oBlEKIoA18fHhaUmEsPRjljuuXR3z9y/ssUcofNdy6FzieTvG10phLwJJsgJOMRxRq6Lmn2kWQQcCUHlLSVahBEMvjQ13FNh5+yjj37F+Bl1/c5tVXcr71hV2+eHlM7uhcL9IgNP4Reum1kM7np+8ecvPunIMTmC4UHefRbNpCV5xaqixJQu/ugpLBmFA4FnWk29w7WOAJbL2Y4TIwqVOy085ofbwGXkAbBOHy3oitccZLB9ssKs/tO8klxS96MZWgSYEotYPJ4ndLc8e4TtL1Sl0JLNqmYQ6hl96LHjoRhWwhihMRKsQ8uztK5kpevrFHWTomhZIpWL1EfPRlHcDzUuvAgSizpWe2qLl3OOV41uBxCFnirYZIXZHQ77UdkGqzxz7xZnFKYcK6/WM4WOikJyU0zoWmS1ECVcD4wPvmunbKlorvgBXtTeqBPsYZKi2dLfjDhdgveh73aangbI6Lvm7ymCVvK8ma2FoNai1AJs3WiSjJ9v6301LnxgRpmJ5k3LzX8I//2fvUKnzj2zfYdY6JOmpmGJ4sZIiFGFlSK2x7nLO9lTPenfDVb7xAmb/PT352wh9/75DpzKNhB3GOYuwIiVbiEbwJXl2alyShhcQZ1FYYT5u4NXekTIfzGRqUIozAoJkeoaGC+i47VxxfeaXkV37xEr/2yzf4xpUxL2wVYE3igeYp/mp6XgNobEvXQA388Z9+yJ/99IDbD6BuMi5vj2JLOzRY0oOtQwSiWKqWteWEfpzAKcQ2pDqmVcPJwjO+M+V4tuDFF14gVwc6S0CfECkYrWBvEJAaLPDK9a34PjTMZjXHR3epG2M6X4A4xKXAh8OJg1ZaDvChr/ADPnEuY8AVi/jmWFP0FmdtwFQaQqhpmgqlRglcv3KFyaTkm195iaJQRuMaa2rCYkoWjMJCJ0RRt+5RrsREOTxuODmpeO/OAVWVRWSsFjhXgFWY962kUnrmZIVe9PGfPPnM7h0P399X0HO0YDCzAffUehqJWOR7a2rLNyFgwZO5JhS5a6wNmNP5PACLEGhGheJVaHxvU9Tzq/r5yvCExKQTY98cm+NiMsGHtWdXzcxXMsaUJQbzKUBKZynW+pJgGWZKMdmnkYafP5hx6e0Drn/nPX7p9Ut85cY2SnQ9kdDPj7BojhwSEGirFF4Ux7/8y1f4F764w952weFxwxvvVzTBc7x4QBChlowgGV5zcDlodC0xYQXJO0x+o1RaiL6SVUC8oNbggOs7nlGpvP7qNa5fK/n2t3Z55cYWr14asZtrEiYYTHsHugEkCokHfvTOIW9/OOVH7x7zzodzdLRNQQwmnZ6SGaFpN5HeRTBYdJv5WLlvcrj3jij3ZjkHxw3zecPtW0t2tnJeujyJyYTNU4XsE+Q/phligl9OMTEu7yjbo4JvfPUa80XDnXsnLKuG+aLCB0cIgm8pBS7yPlWzgRJoqizbnkCnBZzO1aqo2WSLeA5aMSqgGMOlnTGTUc4rL+4yHhVMsgYngiwXSPA4s5QU+S7EqY4Q51jUBU2An711m/mi4XhZY0GR3GEqqdqNpuJiySigRfVujifaXew0CH2wiww2kc54PTkCmd1F7ANpW7KzxSIAlVFUZV6wVIm8JW1bs33Jerp6lFUC8ObYHE912Z8tVsCgjdLTBPquSLAe4Q1GPtqlqed8cHzI7u0pV964w8uXSr50YxtHFueXLa84iY+3ElkeY5wLO4Vj6+t71AFO5oH7hxW3ju8xrxruT4/xCDUZQXOCK+MmKQVeNKF545PpTjEGIjUheMNXHvFCGRpUhctXAns7jr/w7V1evD7hV//cVSaFsF1EPqi1wgpIL7uSBjTipEt33759wh/95B5v355x60HFaDxBJeuqL9e2YUMETKlq3172q9f/o+bJJhAyi2hWyzmZVcyC58H9Gl8Jr1yb4GiQME3uKAGCxPO0iCiu6yVGYG9S4k0R3eFktsBoOD6eE5oFVR2i+XITkbPO0ve0NANUTVZPPVmJ0Hbaog5y8E364nMQj+qSMndsj3NeuFayv7vNS9e2GZU5hUZUsq/riHpO/EwZNOhjwMypl466Md6/dZ+qNuZVQDWQ564DsokmY/AUMDvBjk2B8sS1dEdWk4crAbWYM01RMxAO1IV+hnn5yjgA95f35WThjdoMGoMsao31ztTaPX/DG2ZPECwvqgx/kvfZtFufl9buQJum0yDrm1MxI2znbaEDt7QVZvzZaH4cgtAIhHyf9z5cMP29dyka48H9Ob/xratcu1SCSy2cJqFmXZReM2swUTyOIlNyE/7Sr1yiqgMvfWWX6bzmez9+n+NZzbu3ZxzNKg6nCxbLE+qlEJoCM0WaLNFrsuROkigmDvJSyQtj/6pSFsLXv7DNpHT8+V/YY6sUvvZyxqhw7I4UZzHd1aTf2qGirEqa6HmXWbx9a8r3f37I//m77/KHP/yQ42abUOwTshxE8T7BgkLCgEp0zojVaYsgDqsWuR85YCYOrcQKyqoI1Hn77WPGpbK/5RiXwvUrO0ioIczTfV0mu14PvgYCoYoC+Je2lO2Rcmlylem85vh4yeFRxWzecHTsU7u2IQRo6qhJ27EihTQrJUnsGXkWUIFyFFAH21s7lIVyeS9ne5Kxu12wu5UzLhy5LJCwgCZmFFno27hmnibUiCtxrqAKW/gq56dv3ma+rLn3IK5XyUcgGY3WSOqUOHPJVi1Lko9Jrq+VAbyQ6uuT35c/8b2j1em11lqvxQukNLJtmYQod1iWjrzIELUHhr9vbcAcT/KgSJUd+VrVOosveSziU1Yo6CKPyTY3cev5y9k+0fnwIFgOTHTX+xv9OrQOAmip9xapDG0KmIErmc4XLA6nvHd7yvVLE/7FL1/GEniHoaSdti3UFnwh0Y0d4aWrBWbCdGvEybzieD7mwZEyrxaoeuq6IdQNwQznAyEoUpdJmTnqwKoXnEYFoHEJZWbs7yhbE+G1Vwq2Jznf+Oou40L4wu7gsjQGfmBhlMYoLX2iw/4YHE0b3r095Z2bJ7zz3gmjK3tkZQkuWuaabzqZt3VpQiysmsnbx7+fJtapDlky9T4+WVAvhenMx9arK+Ia0t4NFPFp7YUkV9iAKOXIU+SOyWgUZfTyHCdzclcRmoplFaiXPur2WLQdI/maikQBekmatCJRoUklKj45J+xMcsajnCuXxuxs5eztlIwLo8igWdRRRCE0nUatpN/3A/9R1RzzGcEyjo4qZvOKZRW/n44ix7VvD5MQzW1LVga0vvCI6aM9F1vuxe0vst6KWrk6IqzuIgZOlVwdolQmYdHNMF9+8VKF8IOf3Lx33ay5G0I2CQ2TaBXe89va9w/JCCmsaPJtvEqe/Srus525JLmCOI+UYVswOZvYgF3VWlK19UM3g0vzdg85jjLbiRZUoeB7P6x58413WVYFr7084y/92hUmpTIqUntXKtR8Mmt2qXUaFWvaqu4r24ptZXz9X3qdRTAeNIEHR0vuPlhw/2DByazm+AiaBpo6nmtGhqIUmpFljlHh2L+Us7Ob88INx3giXB1FxOWkjNJoNSHJu2mMH5bmXS3fJiF1JSUXHz6Y8/s/vM13fniXf/z7N3mwmLCz9wo62kfzgoYmarbik/puTocvthBl7zRWl2Z6Ssfnox3a2SkFC5SjDDVhOV1SLT1/8v0P2N4qEPcS4/qe+Y0AACAASURBVNGIK/tbeD/D/Iy6nhGaQK5bEfVq0ZOzOTlMiGZHqQWjvTH7Ozv44JjOPY03jk5qvDdm04oQAouq6h0pknye0ygQUJYOp8rezg6ZKnuTMapQ5IJYFSvfxYKaOvqRJoF8klxbBDkLljk0GxMY4xnz45/f5+Co4q33jlnWgWJ0hSBRni0amVfpPmi8nWZoiDSXThfXPR9B8ZPbQFZnH0OmR5d0mxB8iF2lzC9Emwo3+tlLr1x6A2gygEv7kyBCZXavij2PTv34nI+EfKY34s3xWQqZwhkyBmuzzEdt5qvCWC5VNkEKFlVDs/TcP6rZ2q5Y1IEsE0ZOVianckrauz/KNPcvJwXjlJHmqjiBTIytUhk5SwEzJqGODBWhcDl5FkUULu0V7O7kXN1XJhNlR+Oss52pnSc9laTD6xtjUXnuHy44OFpydFJRyxbqClQdIo6QkK+2MmJZb7zaxTaNLJ3jwLBSJX5DM5gvGpxTFsuAcw4jUjBQOgeRvirQbutqgRtCIFNDVchxBBN8En73wRDzeC+o07WAKTgXA+aozFBVJqOcTJXxKI9uOmqElKwQrOOoryJXB3dJBFQJXvEBFsuG2bymqgNNY8jIDYQJrJ+xmfWgS+umbM/kVvvZG30ZD41ykW4SjZWQantntEg9KfhP/uqN8D/+X7fuHx7ND0Q4UCk1d9l2SFFZrEf0tYG611TuZaMf9wid94LKRtN1czxkeQ83ox4FG9VYWj1P7cgBfQ4ZhpqkQCYRdFM2BjpBRnssm5qF9/zP/+AmPsx588MvcG2/5G//m19D1aFsRfWcUMXNm7iZqkq0jEqz03Z/LNN/V3ZLvrxTwit7jxlwnLHupUFomDOnwajT93A2SjNLA/XJkig++JkrU+sZprOKv////pg333nA//JbP0CyS7jyOi6/TJbvUmtU6gqhdaKPZ+i1obWLRxKPNSGFpYPkf6xmG2JCFrQDJZnVNBJwWyWYcTCtOKqMB7/zcy5fGfPVr17m2rWcF65dIXdTCDW2zGN720dd4Mz1bdvQzKmaRdLEVgqXI7myvZUnm6xk7y1Ff1YdFSmsbmdVE1V+GktuK630vQeNSk4kY/AmdTycKuIc2XjC0iszX/D2e/e4dfuIt9+dcjJtyEfXcKOMyrdWicR2c0LUdqhdsc4Rx8TOAK08n4HuImlrMtgZtJvD66mfcqKIKmLMzDcntz44ugM3bmHWS0X8x3/lBn/xP/jdCK7rtDjP6oT3knhn5f6bY3M87bC5itA8G262jt7s1T1W1ao6wjoWpdPUIZqB5Tw4rBCMdz88psgdl3dGOIxCemWrnnt8KjtdcX9a0VmVx3/HfnaaOJotxb6zoWIgebdafSybOJ87OFxwNKv44N6C+0cNQcoo3KAuacjaQNIyGjjTQSCsa4GvVPF2cU+5rCf6Yquwf40GzI3Bsg4czZaMp8bWRCgAJw5NggQmaxWdrZtxpXttFusGkXXp7e5+xrcKMOzgmfYWYCszxNAFtS5lad15NCOgLCuY1Z7DxTwigRcN3uJaM3lIo26d7L5C5wubbeApHp1+nQqqGjD42//2a2l8Mji2JltBoLFFHhovNGZYCAMD1UQIT8ssmOsbY/a8jJmfp5bD87WIg/TasCbRBDbatrp2y4+iyWm9Rum5sLKRhnZTtsgnrJM8nUg0Ic4kY6RXCVbz27/3Dpnz3H/wITeubPHX/rVfYH+c8dr+uEeK102kIDiXvBhbSckwbJkkVGd6WvQR2aUlvp418b/09GYWOaFmWcS4+AgmyVxE92lH0FfevrPgZOH53/7+n/LgaMnvfPcOXnJs9yvgijhLCzkWfFIbUpQibvqyBA14qRMXLYJNxByZRVRvoBnQzD564hPHcKELUj5JUteSTMEnY0LwnCyN6eGS298/4oUrE168tsUXX9rj8u4We6MI5q+XywjiCVnS3O0BSiLRiDtqvULTxPPONG5/jlg5tyVz9L/0K8mNWhmDZkiyhq4NkXG2a2I0aQ90xW68ptkO80XNzVtH3HpwxE9v3uXopGI6qynyPdx4nOTlDXE5ENC2pRxiB0S73CmAVglyZo9Ftm66dKwMUXpbh9UopZ04Ykht/GjB50QZFaNqq8yq9FCeDpijMq8E7k6XMvHeR+Ls47LgszvAm2NzfCKPwqOMwuSMylQI3T+EblYUUHw3fshECDjMbaHiee9WxWwm/NEPP+DG/hh79RJ7k5KdcRRcF6edwEdLgLdBIGj/5+y54LDGkfUct6/uTLvXIqjUOkuo9rfuHyyYLTzfe+MBB9Oan92ecTLz1G4bkxzcGBMXQUqtopAN4nTsVXe1dxRJD107q2P5n7Ka+mjPvwzMtHuFsP4L+Zb/nbnuJBdL48FBxVY2pZo16NWcMldcuh4qWVJyGSZKvXrZisGT2Wq1Hga245K4ehZWKjxrQ1wradi2RwXE5dHeSzLMhMP7M2bzilt3jrl/smC2hMYyJNOkTiSDxCOsXIdY8duggzG0I7NzGORtjnP2cVZjnJFa7h7ndDYa5fchAQfWA+b1q9snIG8ezpaTuq5fx2Uxu0xPZmCVNi5mZ24AmwbtpkK+6Gy395DsPSK7utFWFCBpZdvklK9knNFZqjQDRp3Eth01rvE4r5Qu6niG7DohNPzR995kVE556+YBX3vtEge//gW+9eoVvvGFK5TOoRq397iFJqNh85Gsbj0DtBU8pxV177Ac2vdWJWXClgKmxb9rixVoRy756Wv0s3fv8u4HJ/yv/+hNbt+f86MPhUDGaPcVVDOKYgvzNbWvyMVQjbJ/UVlIExUlUhq8hk7NR3yaDVvEbbYo+Y8bMJUEnvFRcEEsgnqiybTRaB03qbyEELAm5+B4ycG9E47vzdguBfnmJXa2c65cGSUawCi+lw9JfN2D+UjpYMAoGLTOzTRWdEFRFBWH18TvlKYL7mnFJG7r4HYRFZRcMQLNqJdj6ibwk5/d4mS65KfvfMgSmIniipJsXECQKKbRBluLFY6GhPiWhE7uRPkHM8zuervNpvYR21UtYHZ1otKiZD1WecqivHPt6uhnwOLMgGkyXQBvB6tfVQkQcvA55mroHvR+c5AVlNrFmZtuWp+ffvvzolO5x4/tzvGpiUuiSROyD4h+UL21gTSsrEcb8Ks6D8c0rwftHpwgw1NSTHO2dq7i1HMym/PWezW/3dzk7bcXvPHyjC/c2GFvu+TFF3KKXJhk2nsiSG8hJQM3FU4ZHNjpro3QB1YZBMr0zWZVYL5ouPtgzv2DOfcezPjnb9zj5odT3ntgHFcFMh6hkkV6CQq+QUJPBou2WT6pydBX4Bgu6Jq7ZdSi7YFXdgHLwvCJjmYD+y2SW4sLfSUaGwOKaATuLH0gLI2f3pwzKpdcnzbkmeParuBUGY0KRMFlRI4mnhCaWDEOBLfFOoetrkMQAMR37f+oI+tABZeX8W5KqhCRpCRknBxWNL7i3sERdR14//YRVR0IlIgKRZZQvkFXNbfNoi+mrfIAuzHCYId9XFfledtDL+x7dICpmHz4rtOUrATMoeYQXyBhjlERvN01/DtAdXbAdPdnAm/5oN9WUbAdCAVeq/RBOtig+oDZ94Y3Ldr1/f2RDUX7pM/nfPdFnmxFP/79LgooYrEKUhuGQOsRjS1459SGLqdc11TaeWd0rWjlCCTJscZfi6pAW7vXCb7iZH6Xo6MFP/vZTX764oxXXzzhV779Mi9e36XcdWyLYztLc/0W+NG5kbRaooNALrJ2dmtIHtEzb0oIxrQ27h5VvPHOET/5+T3e+Nld/vTtQ+48WLAs9jEt0O1dRFxUEgogvont58H80dJ8T2TQ7LPV6kXQOFYbqqJcwHNu1rZdZcAcF1oDCGsfktBKlUURA1VYNEsWjWd+c4aqcTjzjApH9lJJUeRkRU7mlDzPsFCBeWgWvcdh25KW3mIS7f1Vo1C99fhqjXNuV44iPYUMC4oFZRkaqjrwwd0jFouad98/pK4DB/crEIdmE1SVIs/xFtZMAdI9tXZmmq2sU+t7+iv48M3xhBm7xaBpXRs9FXvmEtNDEctxoURtgVETfHUf4ef2sIDp7RCAsthle+JY1FHlKZritTfKBm2v9Qz5sz8T2xzPbl0r2EOa/WEt4Jz2cbB1TwajFaVL1aX079RZ/bSjhzgbG5V7WD7Byi0ezI3pWwvuHL7PZHybH7xZMhkL3359myJ3XL+yTVnk7O3uMC5haxQ/y/Eod4i+pvPEYDKbR87m/cNjmsbz9gdTpouGH799yMFxxTsfnHD/uOHeUcOs3sHKS2TlNqijoQRrwSNG1pNrBtl7DOK2llqInWXiFS70KVlxO7JW6i10j6IbXqc14wnLIkipsgLMuHW3JtNAfXKTssi4dGlCWeaMJyXjUUZRKEUhqW1bpnmndaL00qobhSQ4oE1sTUtcRz4IFoTjo4a6CcwWc5bLwGIROD5ZMl967h9E3drpNL6HG2/HJE5ygkT+56negq1jucOpPcnOWVVujkd3M/o13HN42xWtpsmgXCicUhRKmVeND/PGHgb6CSzji1kIRS7UTVQyabkq/XY0cDKxjyfAvDk+261Zu6B3Oo8WsT1GkuBsuL088jPFdIUkYMMqPFU4mqoBl40xK7CsYDGbczifc+/4CBFYVo7JSMikYjzKaESZjEdQbGMKZakdTu/M01u7kB6jAea1UVVw93DBsmr48TsHHE1rvvPDDzmaNty8O2fhMxY+oxiPyPIRmo0RdYSkpKMWUAwVO0N6wTqu5fB0VvlpbdW7IoT58SvMNi3psDd9Ih77Bafbkx2VNg0Rg49B53heo+bRRaQAVXXNaFSwtTNmZ3vEZFJgGoUhWjlD0fR9nKTrpAQJSbM/Kie1/QpvsbKfLwPLyie0a8Ns1nB4tGC+aDg6qWm8EUKBiDKalJG7uSKqMOj0rDQU1hbC+jLcWFtcUNhchfrYShaWuMEqlIXiXMBsGYap90rAfP2Vlw+A784Pi28WInfni2a7aaYjikRq7vr5q+qdsm6D+ZnslX823vO5bpt87J+RJ/yXVU9H7T5CVqrSrkUbPCpC7grcRJiMcppQE4LnvVtLhMBbP38nSandYVRkXN4t2R4bu9uwm6qdsoiCB1mW0LUKIQSWvqZpPHVdM597FsvA4ZGnqo1bd6fUTeD+ccCbsPQjkBEuv8SkyJlIHjmW4gjegYe8i4LRZzNIeKKt5WM26z9CgibnvtuSEBuqMYK60Ri1eG1m3nPy4RKROaIHlKWjyB1lIagTysIhKowKh4pQFnnU9JUeldwETzCL5tbBmM+XhGAsloHGB2bLBp98QiHDcAQdIRrVgUFYJkFvSTJ5D20qXOSIZHM8/Cp2o4awnrUhBEKoqKrAZORnOzvlbGen/PGXXt/9LjA7M2Bev3q5AU7edIt5k1kjYiGiy06ln6dW9KbK3BzPVzW9JtsxtN0UxTkHzrAmzgCrecSTHJxEDdDpVChzZXZSMRkZu9vG3s6IybhgPMpja7DQ5NQBPngWTUVdNyyrivnMs5h7DtqAeW9O0wSmSwV1ZOUI55S8LFBNwTIZJXdG7+13kIuyGn5G75sQBQwQ8BkhQFVHhxCjoW6UPFcWleAUijIi/5dljlNhVMciIPIyI/io8Z5gMF/WhBCYT1PArKIe7aL2BIuC9ZpFpLQkc2oRt1bDyGaDfKae8od1RyL4SoSQZa7Jcze78cLWyTDCZmsZ3UzgLfPN744KdkIz/csE+wW1bSK9d6AyAomjJJzfSdY+9jb20d7r+c/Rnml5q/PYENmTrJ8L+q42AK7JgJpittb+69VwDGiakHw3QSTHZTm6txPJ6nuvRC/EpmYaoiejHHjEe5x6VOaYnHTgmq5BZD1bMFp0OZA8WoyJkJXXkJGytTdK7cgi4mFanruBk8gfzNsAbxERGNLcxl8QJi+cB+jFJ0WeHzItlVq2kAyKfK8TWwmhYhEapotIFbETn+7xIt36GR3vdeCbKijWOYSMYzB0KSjmcR6aIiUg1L5FHKcRVgKWESJI0oluYtanFCgltcbVXER79/JYqAnOjBAa6mZOU7k/LbL8d5dz/hlsvfXQgPm3/tWvAYS//nf/uEJYiFhQHUDio038hmW5OZ7n1GMFyrYinpY2wDNBGKKr1AiVWIFolpxTksOKtNwv6+JyoDe5biucKFCQ/PtUCOpQFNO0gYv2Ho6DNqolEoK03o4t8VDsud8U4zVInr0ig9dcmtOGRAmRfj+DAZSsIxyl5Mh1MC3rmmwJipSqSRNZWx9D8YWNKcUzFTQ7BIR0tn/9WDHZuimIWCNiC6D5T//1L67MMbKz3jqT+gjk55MynGQKC/HRcLfNnAYoxCcJnOctgs6TmD5JQXW+97tYYfjHvt+6/9rnPkydc4b5BHycx92rFo5h3YJqmYgxUGmyserrAk2Gx50QHxYaLBhVotbNXJytOedwZJRbW7EMNEvUCDrvyob2/R1mEbMbUbqGqcfUdzKAVSoPW3Zk5lqwTEhbezwXDYHcRccNNBoZBx+iIIDLn8PGrA0CpRJkFG2+QkpFxPA4goZodNI1yYyQ1JjWptixlxAyFIda3CJDBwBK98EJweKc0yxEVGyWfjb4xHFtwWLRDaUfhn82O04X3TH4JLtikri90upLSRhY3RoheJwLbO0ak1E4yTW8y2B2+ciAqSIL4K7gZ4I1WFAIKmsuJcN8/Fl+DM1so624OR6x3Z7xivWr21ZambLSTu2eA0vi6C2nMI0rgq2y5kJbiCCdM4iZpcozdJrbvcCBnVEcRiUhrO/+tGINQXq2ZCswwudm7feIXxted1kVq7eBGL6tuN6n1xhKTZzBehQ7pbkvKela15yS9INimzrz0wqWbT68IvS6QszucPJBaALoiWp+l4HCzyMD5v6OuyXI4h07upmLnSzCZBtEW+NS82mTkKh3OPSz+6QylCd5Lxue4zO2U38ebLcv7tLLE3UNzrW9nkbxd3VGV3Mm5KyJ66qMkNJTSQIFltqumbr24UMsKtmkBmusaADRyJZvxFgV+Wt6CkGSRXMt4yMF4pACrA8R+dqfkWGaGP6pyavi0++VF6jDdc5rb4/fFO2J15E9/F06pkbon6u2pA+CiusqwehWQjIVH1KJZGCc0tuECWA6UJEaaNV2og8C+JigOF0L4OHpbB4XuaVd1N58cfvsxX7HbjIhPds1ClLEfzDvEalD5hYz0Hf29ra+Y2b3zxUwicoGR5n6hYo1WoWufbGWaK0tfHuiTe+j5P8f7X02x7NWx320n5FP8MysF09fF7u2YaOnnSNGlKbzOnxEU4N3KJswVMqxFTvsfpIWG74upHe1dvZpp5KQbgqTzmHYYgxrQxOzCwZNXWAw/PgbdazoNSUd0qoZJWCXDTastqiU0yVij6MUeURCO9DcsTN0eOwhv7HZsj61voOsE1tTGyBYew8DKiHkLlRObAYcifSi648MmH/vv/zVBbD4q3/zH8yASusQJITugVtpOzwnBdKmZftZ2D4vHm5m8nBohtp69dIHqfb1IK1PZQSHZD5PQTTJ4YmkKmVVKiD+uu8roVYwHkFRsuDIzEWVHgSfzqWWYag9lUOvJBb9z+iFdzOenadlxUQSkWaYInQ/0ptjc0psxdaWVkxA2qTGr4q1sLpgWniQnHlRZKWy37RkP92dRwYIeFEZJKFR1MOphbLwFXD8P/zXv3b3rPfLHvVhezujnwPfuXMcftM3TREyH9sXnVKFrGbg5+rT21O4FJvjU1uQZp/CvbKPn6gNBk1nGU0P23tD8+Te2mmt25K8YnVgV5y8goYhuN+ZhwIJwmBeFqvLzAvZigB6/LnMhj+/GgQ45SHy9Bxq7ULWxVMIneYffrbD7GilwpT1bZWe5OPXKkgZ1vWssS37z1m7b8/Hc/zZDJZDs7xe7J9u1g2RBqaZzfb3Ru8ABw97z0cGzMt7kzvAm/Y+v2pJ+SJWY7qy0CSVmpsQtjk+O9XqGW0yW68+bRXAwaNbuJIy1dVKcv2xHWS57bTUeknz9sHODLLBxhsGIuFm8e8BTreahpVz9/c0sZHw3K6K3sje1qKhrFbW65XkmfdRBgEznPFz1gnSn2pXwJnuppu98dMNlsLAxrUT/LeOdhWCR0SqvZ3RXc5Ax54rYBZ59ibQKM1fyYUbVVoqnW9Jy0sLYYXgvcmePvmaa9NQfvLr30qPd/WfdC5PK1UGAynI4SzThgBL6ujhKMMNtp1eDh3fBQnpT0ucQXMdMKgXP+9dNc4Ytj10FaxUOQOjaPsc3E9W7qc85JoJGk6/ah3HIM2eZdgVOCswrnnMDIrXdTniTbD8dPdlofUbDWgaocRK06ILTdoJfNC7o1H5O8BbHylg5rk7Ae4KTRM3E1m9+SJPZ/ffHJvjKT489pDN7DwT0tPVwuoMDfEdOboX3h5+mqw1iRIZ3ga+smKrleFDN/+zAum60nMvWv95ekztzIRSVjfRh/7m6rV70s+yp5gYb46PvyJW8CqryU2V5/rRK8zt7Z23DN7b2cl/YAb3jpbfMFF141F8nC1E+HtCqG2yqSe5fRdMzJKLk0DoKUrP791seXRe+wlVdPWIlrKyUluElQ33rImXdXWmrlQh/VQ0dAG19bnUVmxS1lJRE1xqqbbzrzCgoMS/n7kEkq2jrmwMPgFXOlrLc9yP8DJMF+TsIHaqE2YDTmu63ubSdU7KSraWZsnA96Klq3SI6VXnSqG1D3t2n4UL3Iae3UyZxMdP3q7ejEW1JBe4vr9DmevJlSv7PwLufKSAubt3qQnBgnPVDJiJ+WCYKmtgn02g/Bzk6M/rt5KBvZU8dPewh1SZsoahXAX0CJxV24mtvN7/v0SDECFY1IVt230mDH/qsd9SPif388wd21Yr7ofsno+s3Vfr0LNN5WxtRZwF7umavPI5UCd8hveXU8Vc+8gHAyU4p5VzusiybIFZ85ECppk1b793xKVJ8yfA/ckd/wsBy5yPWECf2k8m3XRmjW/2ESuvz8Ghn9pClAtd1J8Ge/JcuNyHBD5h1ZBXbTWO6WCbtJYysraepU9YO76fJc3RYKsbcvzbwODaUrUpRBHobtVHA2VJ4t9iLrlh9GGZdXSunR0qT/Oi5SndiWcwXtrjvuvZnTAZJjcCoSOL9NqwdgpKElZ+Xz6H+9izmmgPewtRXcsw6ccihbm4RywqcsfJC6+M/m+BP8D47qPe95EB8z/7ay/w7/2d7+Ic94FRbvFDzUdz1ca11OzVYPlxUGGfjWnLM3h+ZkNc+yOWkX2ur5U9LLysteSGP2vDKuLcX88eWpH0fLDVWUoLAlotVeSJt4nPdyHzKDzzw163U1XIaYTzcK589s2XT/1Z+wzdJftk95LQCR7Gt8kSKC43IzeawnELOPhv/saXwkcOmAA39g3gOwI/+sDC3w0GswoaFZbq8BheYhauuIQwPDvonZezZ/LxL9DT3W4vUK/pIhfgY4XJn0xT9zyJy6dRs1yEmVwHu7FwxnuvBh5/jk/uvTLkVJ3Xn48+fLcwO2OPldXa8JzLbhW9+2Rdjc86H+98KYM9/ppZOHX3H7mW5CwYkXwmumdy0fvQhZ6bfey1KRIx7I0E1DvUYKtxODOyEHDCyZeu5/+QR8wuzx0w020/ABZ5Hu57aCw0l6J25sDSyOTZrsA2x+Y4x95pF/SGdp4PW3/KbPPcfBI3+2kkBba5d0+5Ir2I6zuUiYyOMnlOpWoLFW7ZIwQLzp10/vf/1S8xKvJboyJ/a7zl3xmN/c1gDcF83+NXF+2DNmzAzbE5PuYDvYqu3RybY3NcxCPV4t7jC8EazOowGdnJuLT7u1vjH+1tjW9eSIWZlI3Z2tbvLGu5Go5n3zByhTLOMC3aGHmzgTTYR02iPx/kFMM+lWL8Wc2En7Rd9VlOzjbVyOZ4+NrYXIPHPSvrrz1yzNSx9xIsVeKf3uaI+bCzW3zHKW9hNJzDV+ZcAfO//c+/DcDf+u/+8PuHU7vBnWWn7NM6jgcCYYAre2hDZJM4r12QzbE5Nsfm2BxPbYs1ifgBiXKGkba1IJhvrl6/9L0yl3f/zn/4teY875c9yYdvbee/d7ysb2zvNO8tgk5O6sVVU0WdDsDarTvfWR4QFxctnyxLPwd4ZeNW8kwkD4+c8l3wLdpUep+ta/L5eEZts9Ye8cx/9PUZcTbBVwQL7E/sbiF2oE5/azTK7p73XZ4oYL722u7ND0/uhXJkR01thCoiyMRlUaT4sX5fF2/PtDk+T5v5M6wksjk2x+Z4BpO5Yc9TsBDAPEXOrHCcFOPszddfv3r0VAImcFSz1GvX+H/soHldjg5eVbZxthXlxMSS0XToYNa9s8mnmTk9H3O7Ry8LufDP+zTmhJt4uDmejcpGzvUEw3nmjnJmtbQ5LvKe9R3Nzrd5IBfaOsIGP8XCgp2d7J/ujPObx4vZAY/Qjl0/nkhw5j/6t74U0KYpR3LPOTtSfHSqphUukDMXnshmK9wcm2NzbI7N8TSC6eOTGukM2gNCCFnGUVnqg3ldNX/z3/nCuX3vnrTC5PXXdmcG/8f9o6O/8P+39+1Bkl5Xfb9z7v2+7unpmZ1d7Uur1VpYQsgPYfzABmNjMCkqRSo4bxKcVEwMJnZSdgrxCg9DEC/bmIcTo0BwqCJOuVIOrphAgGAexoqRhbBlI8R6kdfr1Xo9Xq9Gs7M9Pd3fd+85+ePefs5je7Q9M90z92xNzc5Md3/3u9+953d+557Hsbn26wqXoV20AKMAx8RtNn2o3+t63n9juwmf4zr7GPf5zkFJwxEdsQACbb02OsUZdAS2POqzutHaSOecO7un9oI97sGoRmSi083Kd/+6g0UNhtdkpyE7ATBSgsVjptKGpQK1mdnfvf30kScUKLYznm0DZqViAEKTGSu5pUXvUYO4eTCgSn1uBxq8YUrFoqZuk+y8+TdwLRrndccIMKRfTAAAIABJREFUDAk09wPTSLL/n79usB5imxgVkDjYjJq55RYzreS5bWx3yWwbMEHioHTx2JzlY3PZf/zMBXlZ89rT36pagWZ5iJil0GkBUJRlCSKCMWaYc96IbyTZc8WiEzquJAmckiTp629KPcBkDoXVRTqeVgHKJlCu4sSJmYduO16/CMLjCr28XS/ftgHzh/7+CwEA3/X2B5sAzkL1tkqmzYIldypWNBaRVunmvAygv94YE8e9GffMnTAmwEkVlHbueSb2uKf+h4kF8rQspkcP9DAmwqN0fs+hV6l4WJLCGHEico4IfwWg9dOve+5NQPQzlG/67j/+dgD3P9WqHmm4fIHYgpihGlJOcpvFJqvaXyG8L3p2o4kYN0DIHqiT3Y2A3c6Ypl0ZJJBLc3tzQDeupnQpZ3LnRW44JmYCEcF76a4BIoKxOZwrUJYtzJnG8rxtrijw+off+w8+9ExHY2/2dmoztATgsaW2Pl+8XzAmB7EBfOgwP8wse813NuvrR/tgcY13O+1EN4Hd3ACjBIhMv6Ke/PGnxP+9ZdDjWyOjpKnsD+N4FIWmAigNBf1Q6E0rqhDvYXKzOFfLzwNo3Mzlbhowjx42Vwn06Oev4aT3/tkZMYzJ4MUN0ua+hkdbly+Y7uIGujclYrelAxJDS5IkyX5hJsF7CRhrAlCK9JJIBPDOIzP28qmj+aNQXb6ZS940YNZr1csE+nClgucfAl66VjqUTlDJQtECGW6po+NJsKdtuEx0jC5ZOkDd65Mk2Y/egCT7RJjWE4H4pSJolyUyIzg8n6NS5Qv1evZhqC7tKWB+2e0nVkA498knn15WUqwVHq70qGaVSJEl5s5pt7n07vOv8bpCkiRJkiTJzstwqtkAUdqizqyqwpUFKoYxO5Mhr5irdzzr5DlA99YlC0JTocWZE/b9IvqZ9vWn/6VVfzfcLRA2KCxBSeHZg5WRiYFRghEGICAoPDmAFDLQ7358IDgKG5VRu9mPcH2i8UGr6oiJ/33+e9rGa3eDaSRGsueccOTnMP2PSg/A2MZ3Phmz/8anr2g8d9n5DImDYwCkBCum2/ZKWCCscOxDww8JF88cwYjHPDVRz7JHv/z07G8bQ38IYBHbLFQwdsD8nm87IwCKH/rVT18GUPubc67hyYuDMjQ4Q5UAicQy+JYZBAb6eprsjp0yfRuNaHKVWErqT5Jk+oF8XO3Kd+IOh0/wqEuquNtOUhHxpfMaDShj2UvOvHzb8ezTAK58/2tPt252PHZ8y0EfB3Du5GH3QgCXn7hy7dVeuAazACVCqQxDBGIFSacBmA6QbaF4eLsNZjg+wBzjQ96DvTHgjkjaacfmdrrvIwFTGtvOAeY477ADgB2vo40FewgSWaxCSOABeA2piIYsSAVwK8itLJ85To8QuT8A8IGbZZZjB8yfecM9DoD7R/f9wVMAFpmcY2KBKvfAr5NQojEQR7v+AO1/eknjJyBJkiTJwSbktB7au7nk3X8RNHrtmMHkhUmKPMMigKV3vvF5zXENy477Pu+55/AHAPze5ZXFV3shW67N15gMTF6DwEOphOMCCg8jDAYD3X4nPi2UBHBJkiQ54NI9W6WOzjIhFoZcxBEPDwshAyN5qC7XboHhMF+/XlhDF+95zq1vA7D8wTGOa+yAaS03AUie0XnnqaW+uEfJMmmIAvYxYlag8RRzfQED3YnJT5LkGZu60z/+5I5Nsh+erEKh1M8uQzAQKUF8CSXv8ozOG0MXrOUGgNY4x2F34N6uAsBz7qy/Z6UhJy8tLr8NXMnzymF4CCTCpWMPEIGVYZRAYCj5HUHOvahwMk4FNcrwU3TjMzGVUnWhtEbGda1klo915w61+lMwFB7CETBJAVGwAkYCYJbFCpR988ufVX9PltNFABfGTgjH/YE//h0vAgC88Z0ffkIVywtztOQV9bZbqxMBbBhKJpaV5YEpiTE/aYM/o814EGqAjtfIGPW6vdfoCNdLinMv18i4bOPtrEdKj3xADY2z8jV1jyel85sYFkMgNSAhqGsDCszVsWyYlhR4nIArP/WGrx777fFOzdsD973qkWvX5aHbTpjLxw7jKooGyLWRiYXVHEYrIFj0YmJDiHDnNHP6O3Qk99CkK9d0pJtkEo29qWWFUX+P44v6vhMAJYmuWAZgQZqDxcKoAdwatGzg5C105dRxvthsmz+993nPenQn7tHu5ATOz2UFgP8O4Fmz1dabnCgXxQwbY2BsDo8SSn4wYrYPa8aXYD/tIJjY4/TMrY5ZBSXAmYa1lkBzvCu+421Ukl4ArBKgBgwDRgaUJbx3qNg2DJcyP1f5P7Uqf75atQ471KJqRwHzq190ogDwe5/41NJzn15uvKFdGFs6ZQKDuQIliZUcfKg2r8Oujs1zTKZ/gW5HGabduG72kh8sSZKp1mqbvZ/Q38RCI2BGdqmBYRpU4L2Dlop8tkRmCzlz6+E/O3Nb/RIA9+a/e9eO3N+OAiYUDoSLmeXWiVsqP7b0lHmha6z+U/EEpQpsFs4zHdagKuA4HGLTy7LRcQxjPICzEyB9I73fbSM63Rxi37ObvVgb+4Bb7qO1loza8c5kIEuhag+gHH+rBHIKLR2ML2DRwrGFmf+1sFC5REQPA1jGDjZA3lHA/J7XfAUANP7du/6CD9Xsx5vX3CEDJ4BnUQ03Txy1jcTKP6EZaKdge2JSyd2TJEmSgwOWvX5QfZEs8T8MCnDoBawChpf5en7hzKns0wCuft8/eX5jJ8dnd2MSSNEA4aNHD1Wah2dp4XNfbL1k+XrzpUw5iC0sKZQC0VYFvCSESHIjRqcT8RlJkiTZOdC0sFAovG+DoTAoIeqgrsTRo/bRk0fr5/NM36fQswCaOz22XQHMX3jLiwVA8zt/9LFlVPB5w+27icoCYAslBmmfNUFx0pIyS5IkSZKDLKSh9VOo/KOAehCcEHvJrFmerZkrAJZ/8c0vXNmN8djdvX09C+Dttxy7duGW42g88YWnX7LSkNP1ueNgzqFC8cwuuKB1w6SX7bQAm2QmcZAqsCRJDDjJgQC4sS3+TuWCcCbFMHCuhcbqIo4s2OUzd1QXCe1fUVQ/AMDt1v3tKmD+2v33CgD5hz/wB0sgumiMPjfLVFSVVTqNprdD2JMkSZIkyf61GmmAWFgLMQbLeU4XoFj+bz/5omI3h2P3Yg5e8jUnHiKic1f+6MnTs45OP7VUVtteOa/kIApBPwrdxMKO0VO0nmnq0PckO89wdje9I7Hym2GgWz2rUaoZ7d1z3+4KSSxulPmgnR6kDv6C1o1NuySytwD7mCUIIgaqAucU1pIcOpq5+qz96EtfdvLdAM7/1i7P/Z4ApjFUENFKJbefMCx5zvIKo24ers0gBrLOsDj0QOsrt6QUihxoTNoUomiFhC/STiOx3tOSiV7+OuYtMp0qau9AcH8UV9/NzyOMM3Rb0+PcQVSlPVqOpP0aOGZSkgwBJQNKsUwqDQy6E8kC1wZUkKGEJVmaqWSPVHLzl8x0FWMurD5uY2Xs8hPv/+xdAI78/u985tddqXddX7O5kgFmD4X20pSBPGA8wJDQ7YQLKAkKdhACPIdJJ81AyjBqYFVhQh9uAEBJkxpCpBP9mEZjmOMBw9H07yRX5Tk4DJMwnubuvd6GY1Royf2wLcDsttEa02VZA1iycqjfRohNNRRCJUAaY1QIxlRC3IqPOhwM4jAYowJSRdG4DoKgUmlJpWIe/tt/584fAHDp/tfedX4vptXu8WNdAtCcq2Uf8E5OwxV/z8NUr5dFFWShJgcDMEQhgVUltAQjQCgU1HMQgAgEgVHAgEAKGO35BZwZKLw3EXxtvxR3TmUHp4dhjssooXEW2B7z2j5I0Q1bGUy0nbkaU9OLAL59zZy7NXpC4XRPPpa7i8UIInBqzL1nxPJ3AFCWIAhmbatgxsrsXP5/bcZ/jdCBpLFXc76ngPnWf/xlSwDwEw88/pvNteLoJx598hsKz/MrhauCCWACg2CZAe/DjicCiONzUfhuQquCSQAlsFJsGRYeY6Ea2GmyO5PsL5W568ZB7/BD9/RONlP+nJ5616jZi4GF3pQdo6oPMKkDm/1GkoaWG4TYG7kHtuIcWB3qlXaRWVp60b23vs9aXrz/tXdd3Mu5txOyBi4QsHjk8Mw7Gm2+fWbJfa9X2FbRQmkVmgnUhJn0sGFb+BoIQEUVBAHBhd5oKAEykMA10Xts+9OSTJIkSZJJ8ZsIACKFoISQh5LAU9TBmkcGGswaIQWRgk27C7JaGqgQLAow+WLhcO0XKxl9EcDHsQdnlsMyEQbZW9/43OX5ufzKC+499eDRo/Mfy0jEwIuKg2gBzwWccXBWUBJQguPk58g0g1WLTBU2lEoCwQNdeyZJkiRJkuwWSGsM8Ol9dVhlFr40BzTrAiexgMiBUALqAPFgeBgSue32w392z3NOPFSt0uLPvuXepb2+x0lhmCCCAHouq9grd94x98NPXW89B9ee/ldrAFYLwGc1qK1AOAPUoKYGRhW5D1WCLAwQCx4IAZ48hAJkSjcFJeVvJmabJMlur33q6LixXHdidyUBvktWPByFLAYhgoJDUA8ITAYEIOMMQAlTesCXIN9GRgLOFLffeug35mqVS2z4YYU2CTQRyQ4TA5g/+J3PBYDWW975142ZGs6vufYh2/AFC1iErEBjeXbqW3mEGFQFE/+mfeFhnXPOVOhgmpw6SZIkmVqdQdpryUWAUjgwW2c8IDTeICGQECAhqNOwc4ZV5ufs5eO3zHxOVRs/9W/ubU3KHdoJnPUGgN++9Tg9fvL4/NrZi6tfp0vFt1xfU5SqyGYYbA08WtHpWkb/N8du3ICwwJHCRfdAJ9SctmS44wXV8VqoCbyS7G+hPX7/zey8UTOpd7MD7l55h5QBAUPIwAPdAzIlRLcrQJwBQqAyBxyBCgaTh6E13Hps5n/efnr2k8T+vaq6J7mWUwWYv3TfcwCgeMsvfawB0OXM0GVr+FKmWPAqNVZh8j5MfEwtAQFetcswtRPDl8jlTWy4NAdJklMkDX9741dFrP8a2GWoQjCc1Bfzb8WD1YNZxBAalnklM3xppmouK7T5rvvubU3aPdrJnXy9RKDfeMGdJ//0BXfSBz/5+NPfsdZae/WXVl29FLZ5fQZgoEWhBi0zEGKYTLgtMoAqSAGOtXmnNQQogVeS/coqaQ8K/dBO3McBAMSt7y0QFRHTdccyK4gVAh88fUQgKIwXkBeUaw3MWHELNVfUZysfeN7dx96v0EcdVhe7HTgSYI4m73rL1wCA/OC7zzYALFYsnRVL8xVyzzfAvHpbVSFWQ1ACXJdXChgcj5c7LJNuuFx334WR6qLuvKExLodakn31zHe9WMJ+3uvDbrxeaKWqQNUjhPxoLzfelYAIrCkRCqnz2Syjv8kys6hA6+e/5xUTW810ahyW7/jVv7wDoOO//+HP/1hRyj1X3ewZT2zX6nV4UqwZ6TLKilaQawVWYlAQtdFfy3BSAHMvNhDRNrb5FO/w0cEyAeZ2FQbr5CoOGVM5x86y0BHmY5TP1AkGzJvb553yhgyAoVpBdOuh1Ba8FiAOlXxyb0EK+NXrMCyYn1nDTNX80atedtvPKHD+Z9/0gvOTvv7tFO3VFUAlM/S7qvzYjCm+3YHmVwszL8yh7mynZK8qVF3foo8F2xOdS5IksdAxqoFRS/Duf80TKvoIld1JZgBMFiQx6LJog6Coz5Qta7Rx5FD+8SzjRwC9CNDKNNzl1IXEvPM/f3JhpVnUPvL44vsLT6fOr8yc8cZyUVsI1i8Tcq/IFMgkVmYgncBFmxhmYpiJYe4Fw0yyM/tcAbi+RhcZGJYMtAxlTWXtOgheTh5rrVQqfPHrv+62dzLT+R/551/14LTMlZ3C59sEkZutZb+Sezp6wujrW87Xn2peP0NskdkqLAsMh/PMsBgsth/YfdM258RbhEmS7CfLfT+s6Gk1UrVbM7YEgcHEYIdQbqBYA8ThcN2dM0Yb9dn8/VlGS4A+BGDloK3TXZefe99jAOjUk1dWj5y9uPILK00cuXAZLzK2giyvw1gPYxUiLvhftILANScLMPeWYU7m+BLDPJgMc1yf5/VgtWybLMD0cKYFBsNSBi4YxhlIewXwpZw+pQ9WK7j6guef/NGZmWxFVS+99fVfOVX3aad32+IqES1D9b75ijn1gjP8bSuN4u5rq196eelzFO0MJstB3Ek12e2FP6kbcvc3L1FKhk0yXaC0nTU76j4Z/z4YtWEhDbyeht691afQJveoG1o6DJYZqPcoXAHr24CWOHUif2S+nl/xrnwHRK4ocEFVZRpLlU4lYH7vP3seABTx61Pf/R8+sgTgJZ9z5fxqo3BOmVUtqyUQTI9WpfONJEmSHHAPwc6xfgoV11QgXqFaCtCW2dns6rGj5hJgHn/PW7/hyu9M8fzZ/bAIFFgk4F23HLbPPnzI/P7iUvZNa216+XLTHy3WtCqVDCCCNTEfk3QdeIak2l6N2o2KHOimi0k3eMV4lmCSJEmSbKxLaGMdRJtrLhn6NXWbIPYXdqF1r1UKJdU7f6bIDykUjIV6AkSAooA1rpjJytbxYzMPnTk9/xgr3gfV8wCWp33W9wVg/uqPvdIBWHnTz3zkKoBLSyt0uSxx2ZLmwopSNVeAOxhJnZbxOrhAtG8ljers2AowdcD9QRMAm3t0vqq7H1ZJSKeTe8lO9mR1j3HRquoEHyXQDXbzaH+hbiH0mEjQ7d+s6G8R3jnpD70u+ykF9RJMFSBVMawFszYMY7mS8eVD8/nnAVx995u/dmk/7AG7r3a04jKAxduPmT9RpWq7WP3Xqnjhn3+2+s1FyfOFsSACKtWoTjkCgxIEDBAg3YpMYWUwuGu0kRJMfy3Ejg1GEiEx2GCeQvUhoU7n8fj5cZFqtwqR7mp7670KKGDdxPDde88EhG5u9rXvHgkT0mB2F0yqvVhJI7W+usnzyf73j3u/3OzndfPMYaO26TfvQ6lzJd/tGBJeLoERxocmkU8qCFYIVhkVYVjlkBJCQJNCW4si/ixMUFIIh0YWBKDiKDCQJgBRmMKhVpXle+9ce8RaeujEyepvKtHiGrCkE1rm7sAD5i//0CsFgNz/wJ8DgHzmSb0owExucTdIF4T8SRBYHdmYtBmZH3UVp8QlyH3WF9ABvujN7XPdDn7n9b/VIZuwU6ZP+223JPuNhU3fU9278m2jegPSTukHSB3wiPW+aEjN8JDXiHpfSlDtNavofmkn6lV7agoAa+hKSaqA94ACmQGIVSzhSpZh0bA+bg0+e2SelwE0//0bvtYlL8sUyWvf+jCI8Drn5dTil5pvbJeoX3mKFmAskNcghqGZQUmhRLAXD0BRVQMGUEUGUgVLBM3OAqP+c07pc1P0+nBqHyB2Lb4+jbrrxfj2iGEanczFthMM00w5YMq0d/wYI8OcPGUdzxbJR+O+7+BowIPTO5nsaagInErdWFkT4TRH6CfsY9GBppYQKEr4gLzMMGBYNkDpAS+g9nUQPI4fBjJLjTtOz/1XIvo0FL/83p/42n2LJxYHQBR4AsBVa+m3VXFkfkZf7lRqbS2PiJhQC5gJyqGpadeGU0BEYu4ZBcuL1tt31D0y5+4FB12tnUCjYVWqyWpOkmSPDb5pyX3sN9D7mhiik2NO2mOPpKarmxTU9ZgB1GOa0XVbkkaHbnDFKoW/WxhACeQJLACrhxEHVo881yVmFLUqP2YNLUPxMQCL+12fHZiwzZ9/72MM4Pi5z6ycWbzSun+lRSevNPgrm5JhVXJobgFrQJmCCLDiwApkZWCVuRpI9OnrgFXXvxh5AKX7j+aVZKAvnMRzAtlFyEwMMzHMaWaYO5UXPHXFAjrNJODRWXWkHEBSDQAGaae6WQDTLsOMri0CRX2mcOQgJPBUAFAYDhrNqgV5BZcACg8qPaq2jcx43HLEPVqt6vLdzz30zrn57CqAh3/8dS/ZN2eVB5phds0yoAHgEoD35BmfvOWQffFMgdOzrryj5d1xX1Ldi4ESgUzYVJ7DAhMNgKfxYJKgoNiuxnetj3iGqRQNOBpwkED7qw1J+CI3pGLpphReSjVNchDY1k7do3bNYRp1y+2an6g3pizoILV9OiOeSXactVQMAObAWRDF15JCCHAk8DFII3jTQtcn40qwCKwTZEZXqpks5TmdzXO7aI18TOGXAZxFDP05CPvjwCYG/sC7/vIkgJd+9mLjZdeuly9/agX3tEqcbHMOJYZUAnD6WCQ9uFsVRCE+LQDmBp3gNAJn/E5KoTuncvzZBIuPHRQCH63Fm38kkwuY+5lhoo9hYh8wTC8H2+KaBsCkrtu1//q9WImQGil9RjwNNeoOJrwjQIiwRgpPAMODAcwIwKLICw8WQe5KzFZwaWEWFw8fzv/3bbfXPgXoR9/2fS9ePmjrwx7gvbGswMMAzgH4nVsX8DVEuPPaavubneDoFxuY9wC7agbPhMIG16tRhkVML4kuViUPdAO9e8wTyl2wZLURMDuuEu0zyjo/p8IGu20t8oh9D0e1PBPB3yesc6K24qBBrZoB3VNMQUgnEYA8hDwEHohHPh1wZe3AZ2CdrNz1mHH8btqBBMhaG8wq83UtKpYWj87ZR9TrX5RNeRDAIoAVgBoHcZ0cWMB825vvbcWHvwgA33//RyyAlbMXy5e0HWpfKqXuQSwVhiih5ACWBI4sjsMZAoVAoBCzFoCTKebqE0OUwWSg0u+KpV4MUCL7E+FiSbOfwH4ank8nOzwAZictLkZCUIyNoKiLSLspcBSDLxQmpIV09BYBIAFRSCcnAVCWIKOoWriZKq/cflt+DsDH3/XD3/jgQX8GNi3DrjwC4FNzdftQTVGvH/OvL7wcv7yy+g1rjvIvrdoqkIOQw3AGY2y3YIGgDEyTI2DGaDOwwkPgtIxtbwBmDpHa3oSAIbFDLDPJ5LGPESCF6IbAq+s/cFcBbhSjYFzVbfbqLHQU9+hG7lZaV+xykvYiDYzLcxsKQhk5Jne8VaQBTJVAYgZOLnsnmaZbTIWdB0RQ0RKkgrlagczA3f7s/EOGabHC2fsMY1mBCwjnlAdeEmBGefuPvrIJoPmTv/xxt1aW1S82mk+uFXBXm37ZC1czBcfaQEyIa3Rgs3XOCeIZCGlQGhq+d/5RtPpCYjGlR7CfUJUoOdb3H52bOBGE6FZVGRgm9RUmoG40bEdH6cC9dVQVqcJIOM7MWVxm0Do0x4tZRpdvOz7/BDM1fvz1X3UlLYgEmJvtlIZCmwp9e7Wa58+7Y/bd5Zo57QrzmqXV8tlPN1tftbzaqDdbUoMwoIzM1MHMsHYu5m+aeD6gECrhqYRDG0IOXkqApBNCBHPT0bFJdlpvyqhPSPUZMb9dY3EHoc2aTuhnjYFjdtZhSa2gX2xIamPNAUdAGWIlDEyInQCB1UeEbEHEo3CrAHkQedSrRmZrBofrlQ/NzeQXjhxb+MNKlZbX2s2HvDgHaJE0QALMLeVH3vRixLXZ+v4HPuEALDcU1Zbgc5bBhrWeZ3pSIEekRA5RNuxygmESHysBmcAimaAUzjCZTM8+1M45Jk3m7kyyT0lwWmNhp01rDHMPPDvMkrRzMhSKFXA3Gj86mSVG9JOASCQzWhDDsSWXWWpaQ01r6GJm+XOzM9mV2TqvzM9VWvd/170urZSNDZckI8p/+q1zVQD181986lu8yNdd+tz1u1tNv7D8lLnHe642V+tQsYDOA2QAk4fDAwOIcQAr2rIGgQCmE1m7/5XYpKaVjA40k6loEwAezDkpqOzmeZMyrK/AaIZMKyAJYOmLFlQE6ldAJJitrSHL0Thy3JyrzWZLJ26tX5ipmI8867bZhwFc+revuauRVk9imOMWQWhafRFADYorBNTyjJeEqaYVOarqc/Wt416ZnRa5hHL/QdlKJ7YtnoQCnYOHLVVxsmqmjwmkZ7YNp0marJGmrBvAo9yttkkCwLsQKwGJmW6EzBYgCDIjy0TqKjmfZ4sVAJ8CcA3A1ajHGgASm0xLdXfkvp/7fwzgFc7JwlNPFa9qFzh6/Tr9rbW21q41seDUwquFIgtU09gQHJLFiDfje10BNnkgtG0NlBjmWDfACAxT9gAwJ5pN7UQI7wFgmLrFRAwE9yhgvEJFIEUBIoUhhSEPQ4q5GUFmgJMn8kezjJaOH6s9wExXAP3Td9z30qS4E8PcqxWuAqKLAK6qwhGhbi1dqFk6mtdxlwdOKeRUY7VZL5zmihwKgqMMooqiECgRQAQmAlEspEd9OmTdfzRZO5O3DkbGCToAwTc6MoLSrq/jm+1osjO2BPUvo97rFJC+aHtAYSQEDeasIPagaolKDsxUgUpOy5WMGuT5UVJdZsafI6SEnI1sMklimJMjP/c/HmYA843C3eFFX3F1yb9sbU1f+uQXGqdWV13duQoUjLabgRNgaQ0BLK0FE4fCxxQ2bGfPcte0pL4dNWSLdl6s2zf5aXOtMbLF3s0i3SCd1OpuLebBfLVxM8yt5tDHeRolovaZKGPaYEh7waZoRHNt/di2BsyNpmR7T1BHBsMdA8zh9wy7G1R7e6TzBx0GTO3ubtVQltN7garC++CNqvgShoD5qoJZkFcK1OuEwwuMhQVz/tC8XZydoQfma3wewCPf921fn6JdE8OcaGkCehHQDxHhU8bQB+dmK8creVbzLp8TJXu96U+rUj5Xz08qkIvKgrhiwXt/1Hm1KmCJlTxUQ1F3F+vQEhkQcWhFFnP/hH3IzaJYCr5T+J1oyN0zWP0W2n1pr6O7xr7sKt3fD7YzQ/e6nQ3er7ZoCL46IMJ6Qy28gfLpG2A8uFEarGenm6jwkRXuyPVkb1y0WzZCOB2+HPU/oqE6n5u+bd3llYberFtjCm3Wg5X6HoNuDU204bU24JPDH0YbsclOz0YaMv+GnudmgyIA2jNROilAm1Zmpt7YVDcyhGiD0k+DhihtsNZkvsqXAAAFaklEQVR68xILmWivHXPwGMVa0mIiCCpUfezU3KkOFvdaLIZCnbrVBOQVC2MYeW5BzKhncpWJWodqfA6sLZPlV9jKUpb5L2SWLhNhmXqMMp1PJoY5PfJrf/JXDMAWRf2oKtUuf2H1yFrL52fPLX4lwLVadf4rnPO1VtudXFtrn2y1izuKUnLn1YazT4KXkKZS+gwgAnEGIobhLCpNguMylsRyUZF0AJP7FMqQYor983qAyREABdBQsYgQ3MTrQIlif9CNanBqp7wzxTZBuglg0oiA2XlRp2OMDLxHsUlBWBoF/mjI6n9GqNudh20Dpm586WGGvBGo6lbX2SZg0g2waQAYVNfVxRn+7zqGP1QJibprkeNE8MaAGa+1ocdgAJTDc/RDQXQbAmbnKqIbU8EByksDTLADmLwhYAZjVTq5j6Sx/Z8BxIAlC5GrqhApARWQltGLFKqFGQ77j+BhGDAGqFUryDOL2XoVxjAOz7oL1lDj1qP5gzbjlfrhyt8Q66Vsxj1BpFfn5/0KAHndK786KeDEMKdMQnVkB+jViBmLgLIqzgFgFVRVwQLJa1Wer1ezhVrFnLaGjorixao4srTSOuIFeeH8s0WZW95VnScUJcM5gReBUwchDe0yKG5SIhiTDbBSJY4YRLF3Xi+xxcdyChw3LHFfBwQdooubua6U+roqBHHUqXjZaYTGQ+7THiIwqI95dGphas8F3ae4hpXotvBSo4E/ErZyD9mGAG6YnZsbgVf/NXUjp2IfuOnW97JZMUUaHpv0QIs2eq2uL9s3/BkD46WIJ7oexnqdM3rroP+i1AecqoBXDDRkpz746QaS95Wm0UEzp/szd7pywAL9VW76Grd304M6npM4H8Rm4LMDmHbGYQaYMffhf+haFDwxBEC8hA63rgi9brXsdKEHK8OoRWYNrDGoVATGKDLjQQTM5B7GEOZnc1gLVCuKigUqGaFSsVdyaxo2M48xc+Pphv91VbQAvRQpdgsher8VGaUkxZsAcyrlO7/xeR2YGT5HWBl+7c/+l0dqAOqFw4oqjl+9VtzqvBRFW8V5rTLRKS9iPQLyOVIm9cF1qiG0HMzcaWsd9EWvVF/PD0WbKl5ar3bXo8OA83VQbdOAT0sH1Wi0uCkq2oF3Uv+nbkyFdKsYwu0c5z2jo79N4EkHWeMzGcCG79TRagtvGVWtG/xMW7xft+F60q1Be8v3DTO9dU+2xxI7wDx4Ie2uE8UgSyTdaEXrhjdJsZtHJzSANjBqhuej3y0digPEgw7VvnJ0GtmjACJQ8RJ64WooRUdAZlSsgeSZMjNQq8BaS5ifZWQWqM0AlQxSyUhqVW7kGS/PVOmyNbTyrFvtY8xaALL0L741RbwmwDy40oxW4lL0Vf1RNGq5Usn4zB2HjyqQk+GjRO4Mk7t3teVsuy3WFQt1FWvF5a9WpXqraLN44bW1Fpz3KNoFJBi7oagCGOicgSpF129UOsxdleTFx0DgTvQuR++oDoDowIllR79R+JSWcdFdFjrEM1GXgehAOHBfz79ud4UISASQxDGoiTmtm7DcLYBR+5mCEoxSt6/pph5N3dilN2BWbNUeSjdm5brZdTDIujZkj7jx5YZfSxu8SGljkN0Mw7tuT+r2yOhj/to5qhxYEeh33UdwCuxeIRSrLEca3DWY4t+6xl7fwKmv/2NnDKwEVkLVy3qzj4aBOL6HONRjLR1EBaICQxQaJET2GDYMwGS77ZhDjejwesCDmcAEVKoZjGHM1hbAzFKdyQUkV5lbHyVTFDZba9VqmZup5uKd+WNx9vLhBXsqM6gfnnMPKMRC2yBI07JfIujDBvox8fJg0eKLfUZ3KoS+R/L/AQAZmeVqVXABAAAAAElFTkSuQmCC;" parent="1" vertex="1">
          <mxGeometry x="330" y="120" width="80" height="80" as="geometry" />
        </mxCell>
        <mxCell id="pq6OM98FaBrcGSdIZZ3g-22" value="Project Repo" style="text;html=1;strokeColor=none;fillColor=none;align=center;verticalAlign=middle;whiteSpace=wrap;rounded=0;fontSize=16;" parent="1" vertex="1">
          <mxGeometry x="120" y="200" width="100" height="30" as="geometry" />
        </mxCell>
        <mxCell id="pq6OM98FaBrcGSdIZZ3g-23" value="CI/CD with Actions" style="text;html=1;strokeColor=none;fillColor=none;align=center;verticalAlign=middle;whiteSpace=wrap;rounded=0;fontSize=16;" parent="1" vertex="1">
          <mxGeometry x="300" y="199" width="140" height="30" as="geometry" />
        </mxCell>
        <mxCell id="pq6OM98FaBrcGSdIZZ3g-46" value="" style="sketch=0;points=[[0,0,0],[0.25,0,0],[0.5,0,0],[0.75,0,0],[1,0,0],[0,1,0],[0.25,1,0],[0.5,1,0],[0.75,1,0],[1,1,0],[0,0.25,0],[0,0.5,0],[0,0.75,0],[1,0.25,0],[1,0.5,0],[1,0.75,0]];points=[[0,0,0],[0.25,0,0],[0.5,0,0],[0.75,0,0],[1,0,0],[0,1,0],[0.25,1,0],[0.5,1,0],[0.75,1,0],[1,1,0],[0,0.25,0],[0,0.5,0],[0,0.75,0],[1,0.25,0],[1,0.5,0],[1,0.75,0]];outlineConnect=0;fontColor=#232F3E;gradientColor=#F34482;gradientDirection=north;fillColor=#BC1356;strokeColor=#ffffff;dashed=0;verticalLabelPosition=bottom;verticalAlign=top;align=center;html=1;fontSize=12;fontStyle=0;aspect=fixed;shape=mxgraph.aws4.resourceIcon;resIcon=mxgraph.aws4.cloudformation;" parent="1" vertex="1">
          <mxGeometry x="550" y="121" width="78" height="78" as="geometry" />
        </mxCell>
        <mxCell id="EmJS1ey08h_2ylmZTkNM-22" style="edgeStyle=orthogonalEdgeStyle;rounded=0;orthogonalLoop=1;jettySize=auto;html=1;exitX=0.5;exitY=1;exitDx=0;exitDy=0;entryX=0.772;entryY=-0.005;entryDx=0;entryDy=0;entryPerimeter=0;" parent="1" source="pq6OM98FaBrcGSdIZZ3g-73" edge="1">
          <mxGeometry relative="1" as="geometry">
            <mxPoint x="589.3839999999996" y="296.3899999999999" as="targetPoint" />
          </mxGeometry>
        </mxCell>
        <mxCell id="pq6OM98FaBrcGSdIZZ3g-73" value="Infrastructure update" style="text;html=1;strokeColor=none;fillColor=none;align=center;verticalAlign=middle;whiteSpace=wrap;rounded=0;fontSize=16;" parent="1" vertex="1">
          <mxGeometry x="508" y="200" width="162" height="30" as="geometry" />
        </mxCell>
        <mxCell id="pq6OM98FaBrcGSdIZZ3g-57" value="" style="sketch=0;points=[[0,0,0],[0.25,0,0],[0.5,0,0],[0.75,0,0],[1,0,0],[0,1,0],[0.25,1,0],[0.5,1,0],[0.75,1,0],[1,1,0],[0,0.25,0],[0,0.5,0],[0,0.75,0],[1,0.25,0],[1,0.5,0],[1,0.75,0]];outlineConnect=0;fontColor=#232F3E;gradientColor=#945DF2;gradientDirection=north;fillColor=#5A30B5;strokeColor=#ffffff;dashed=0;verticalLabelPosition=bottom;verticalAlign=top;align=center;html=1;fontSize=12;fontStyle=0;aspect=fixed;shape=mxgraph.aws4.resourceIcon;resIcon=mxgraph.aws4.glue;" parent="1" vertex="1">
          <mxGeometry x="319.8" y="350" width="78" height="78" as="geometry" />
        </mxCell>
        <mxCell id="pq6OM98FaBrcGSdIZZ3g-51" value="" style="sketch=0;outlineConnect=0;fontColor=#232F3E;gradientColor=none;fillColor=#3F8624;strokeColor=none;dashed=0;verticalLabelPosition=bottom;verticalAlign=top;align=center;html=1;fontSize=12;fontStyle=0;aspect=fixed;pointerEvents=1;shape=mxgraph.aws4.bucket_with_objects;" parent="1" vertex="1">
          <mxGeometry x="104.8" y="350" width="75" height="78" as="geometry" />
        </mxCell>
        <mxCell id="pq6OM98FaBrcGSdIZZ3g-52" value="&lt;font style=&quot;font-size: 16px;&quot;&gt;Raw Data&lt;/font&gt;" style="text;html=1;strokeColor=none;fillColor=none;align=center;verticalAlign=middle;whiteSpace=wrap;rounded=0;" parent="1" vertex="1">
          <mxGeometry x="97.3" y="310" width="90" height="30" as="geometry" />
        </mxCell>
        <mxCell id="pq6OM98FaBrcGSdIZZ3g-50" style="edgeStyle=orthogonalEdgeStyle;rounded=0;orthogonalLoop=1;jettySize=auto;html=1;entryX=0;entryY=0.5;entryDx=0;entryDy=0;entryPerimeter=0;" parent="1" source="pq6OM98FaBrcGSdIZZ3g-51" target="pq6OM98FaBrcGSdIZZ3g-57" edge="1">
          <mxGeometry relative="1" as="geometry">
            <mxPoint x="258.8" y="519" as="targetPoint" />
          </mxGeometry>
        </mxCell>
        <mxCell id="pq6OM98FaBrcGSdIZZ3g-56" style="edgeStyle=orthogonalEdgeStyle;rounded=0;orthogonalLoop=1;jettySize=auto;html=1;exitX=1;exitY=0.5;exitDx=0;exitDy=0;exitPerimeter=0;entryX=0;entryY=0.5;entryDx=0;entryDy=0;entryPerimeter=0;" parent="1" source="pq6OM98FaBrcGSdIZZ3g-57" target="7x6oJ4_WCqgESaoICPk5-14" edge="1">
          <mxGeometry relative="1" as="geometry">
            <mxPoint x="679.6" y="389" as="targetPoint" />
          </mxGeometry>
        </mxCell>
        <mxCell id="EmJS1ey08h_2ylmZTkNM-17" style="edgeStyle=orthogonalEdgeStyle;rounded=0;orthogonalLoop=1;jettySize=auto;html=1;exitX=0.5;exitY=1;exitDx=0;exitDy=0;exitPerimeter=0;entryX=0.5;entryY=0;entryDx=0;entryDy=0;" parent="1" source="7x6oJ4_WCqgESaoICPk5-14" target="EmJS1ey08h_2ylmZTkNM-12" edge="1">
          <mxGeometry relative="1" as="geometry" />
        </mxCell>
        <mxCell id="spUJgHrvj2QEMT6NR-Pl-6" style="edgeStyle=orthogonalEdgeStyle;rounded=0;orthogonalLoop=1;jettySize=auto;html=1;exitX=0;exitY=0.75;exitDx=0;exitDy=0;exitPerimeter=0;entryX=0.5;entryY=0;entryDx=0;entryDy=0;entryPerimeter=0;" edge="1" parent="1" source="7x6oJ4_WCqgESaoICPk5-14" target="spUJgHrvj2QEMT6NR-Pl-4">
          <mxGeometry relative="1" as="geometry" />
        </mxCell>
        <mxCell id="7x6oJ4_WCqgESaoICPk5-14" value="" style="sketch=0;points=[[0,0,0],[0.25,0,0],[0.5,0,0],[0.75,0,0],[1,0,0],[0,1,0],[0.25,1,0],[0.5,1,0],[0.75,1,0],[1,1,0],[0,0.25,0],[0,0.5,0],[0,0.75,0],[1,0.25,0],[1,0.5,0],[1,0.75,0]];outlineConnect=0;fontColor=#232F3E;gradientColor=#4D72F3;gradientDirection=north;fillColor=#3334B9;strokeColor=#ffffff;dashed=0;verticalLabelPosition=bottom;verticalAlign=top;align=center;html=1;fontSize=12;fontStyle=0;aspect=fixed;shape=mxgraph.aws4.resourceIcon;resIcon=mxgraph.aws4.rds;" parent="1" vertex="1">
          <mxGeometry x="681.6" y="350" width="78" height="78" as="geometry" />
        </mxCell>
        <mxCell id="pq6OM98FaBrcGSdIZZ3g-59" value="&lt;span style=&quot;font-size: 16px;&quot;&gt;Analytical data&lt;/span&gt;" style="text;html=1;strokeColor=none;fillColor=none;align=center;verticalAlign=middle;whiteSpace=wrap;rounded=0;" parent="1" vertex="1">
          <mxGeometry x="657.91" y="310" width="125.4" height="30" as="geometry" />
        </mxCell>
        <mxCell id="pq6OM98FaBrcGSdIZZ3g-62" value="&lt;span style=&quot;font-size: 16px;&quot;&gt;Dashboard&lt;/span&gt;" style="text;html=1;strokeColor=none;fillColor=none;align=center;verticalAlign=middle;whiteSpace=wrap;rounded=0;" parent="1" vertex="1">
          <mxGeometry x="653.7300000000001" y="749.9999999999999" width="133.75" height="20" as="geometry" />
        </mxCell>
        <mxCell id="EmJS1ey08h_2ylmZTkNM-13" style="edgeStyle=orthogonalEdgeStyle;rounded=0;orthogonalLoop=1;jettySize=auto;html=1;exitX=0;exitY=0.5;exitDx=0;exitDy=0;exitPerimeter=0;entryX=0.5;entryY=1;entryDx=0;entryDy=0;" parent="1" source="EmJS1ey08h_2ylmZTkNM-1" target="pq6OM98FaBrcGSdIZZ3g-72" edge="1">
          <mxGeometry relative="1" as="geometry" />
        </mxCell>
        <mxCell id="EmJS1ey08h_2ylmZTkNM-15" style="edgeStyle=orthogonalEdgeStyle;rounded=0;orthogonalLoop=1;jettySize=auto;html=1;exitX=1;exitY=0.5;exitDx=0;exitDy=0;exitPerimeter=0;entryX=0.5;entryY=1;entryDx=0;entryDy=0;" parent="1" source="EmJS1ey08h_2ylmZTkNM-1" target="pq6OM98FaBrcGSdIZZ3g-65" edge="1">
          <mxGeometry relative="1" as="geometry">
            <Array as="points">
              <mxPoint x="359.8" y="747" />
              <mxPoint x="359.8" y="610" />
            </Array>
          </mxGeometry>
        </mxCell>
        <mxCell id="spUJgHrvj2QEMT6NR-Pl-8" style="edgeStyle=orthogonalEdgeStyle;rounded=0;orthogonalLoop=1;jettySize=auto;html=1;exitX=1;exitY=0.5;exitDx=0;exitDy=0;exitPerimeter=0;entryX=0.5;entryY=1;entryDx=0;entryDy=0;" edge="1" parent="1" source="EmJS1ey08h_2ylmZTkNM-1" target="spUJgHrvj2QEMT6NR-Pl-5">
          <mxGeometry relative="1" as="geometry" />
        </mxCell>
        <mxCell id="EmJS1ey08h_2ylmZTkNM-1" value="" style="sketch=0;points=[[0,0,0],[0.25,0,0],[0.5,0,0],[0.75,0,0],[1,0,0],[0,1,0],[0.25,1,0],[0.5,1,0],[0.75,1,0],[1,1,0],[0,0.25,0],[0,0.5,0],[0,0.75,0],[1,0.25,0],[1,0.5,0],[1,0.75,0]];outlineConnect=0;fontColor=#232F3E;gradientColor=#FF4F8B;gradientDirection=north;fillColor=#BC1356;strokeColor=#ffffff;dashed=0;verticalLabelPosition=bottom;verticalAlign=top;align=center;html=1;fontSize=12;fontStyle=0;aspect=fixed;shape=mxgraph.aws4.resourceIcon;resIcon=mxgraph.aws4.step_functions;" parent="1" vertex="1">
          <mxGeometry x="219.8" y="708" width="78" height="78" as="geometry" />
        </mxCell>
        <mxCell id="pq6OM98FaBrcGSdIZZ3g-65" value="&lt;span style=&quot;font-size: 16px;&quot;&gt;Flatten and transform&lt;/span&gt;" style="text;html=1;strokeColor=none;fillColor=none;align=center;verticalAlign=middle;whiteSpace=wrap;rounded=0;" parent="1" vertex="1">
          <mxGeometry x="277.6" y="428" width="162.4" height="28" as="geometry" />
        </mxCell>
        <mxCell id="7x6oJ4_WCqgESaoICPk5-10" value="" style="sketch=0;outlineConnect=0;fontColor=#232F3E;gradientColor=none;fillColor=#B0084D;strokeColor=none;dashed=0;verticalLabelPosition=bottom;verticalAlign=top;align=center;html=1;fontSize=12;fontStyle=0;aspect=fixed;pointerEvents=1;shape=mxgraph.aws4.event_time_based;" parent="1" vertex="1">
          <mxGeometry x="37.20000000000003" y="708" width="28" height="28" as="geometry" />
        </mxCell>
        <mxCell id="EmJS1ey08h_2ylmZTkNM-9" style="edgeStyle=orthogonalEdgeStyle;rounded=0;orthogonalLoop=1;jettySize=auto;html=1;exitX=1;exitY=0.5;exitDx=0;exitDy=0;exitPerimeter=0;" parent="1" source="7x6oJ4_WCqgESaoICPk5-5" target="pq6OM98FaBrcGSdIZZ3g-51" edge="1">
          <mxGeometry relative="1" as="geometry" />
        </mxCell>
        <mxCell id="7x6oJ4_WCqgESaoICPk5-5" value="" style="sketch=0;points=[[0,0,0],[0.25,0,0],[0.5,0,0],[0.75,0,0],[1,0,0],[0,1,0],[0.25,1,0],[0.5,1,0],[0.75,1,0],[1,1,0],[0,0.25,0],[0,0.5,0],[0,0.75,0],[1,0.25,0],[1,0.5,0],[1,0.75,0]];outlineConnect=0;fontColor=#232F3E;gradientColor=#F78E04;gradientDirection=north;fillColor=#D05C17;strokeColor=#ffffff;dashed=0;verticalLabelPosition=bottom;verticalAlign=top;align=center;html=1;fontSize=12;fontStyle=0;aspect=fixed;shape=mxgraph.aws4.resourceIcon;resIcon=mxgraph.aws4.lambda;" parent="1" vertex="1">
          <mxGeometry x="-12.799999999999997" y="519" width="78" height="78" as="geometry" />
        </mxCell>
        <mxCell id="pq6OM98FaBrcGSdIZZ3g-72" value="&lt;font style=&quot;font-size: 16px;&quot;&gt;Download Raw Daily Trends Data&lt;/font&gt;" style="text;html=1;strokeColor=none;fillColor=none;align=center;verticalAlign=middle;whiteSpace=wrap;rounded=0;" parent="1" vertex="1">
          <mxGeometry x="-39.78" y="597" width="131.95" height="50" as="geometry" />
        </mxCell>
        <mxCell id="7x6oJ4_WCqgESaoICPk5-9" value="&lt;span style=&quot;font-size: 16px;&quot;&gt;Step functions&lt;/span&gt;" style="text;html=1;strokeColor=none;fillColor=none;align=center;verticalAlign=middle;whiteSpace=wrap;rounded=0;" parent="1" vertex="1">
          <mxGeometry x="187.3" y="786" width="145" height="28" as="geometry" />
        </mxCell>
        <mxCell id="7x6oJ4_WCqgESaoICPk5-12" value="" style="dashed=0;outlineConnect=0;html=1;align=center;labelPosition=center;verticalLabelPosition=bottom;verticalAlign=top;shape=mxgraph.weblogos.youtube;fillColor=#FF2626;gradientColor=#B5171F" parent="1" vertex="1">
          <mxGeometry x="-250.2" y="517" width="150" height="65.8" as="geometry" />
        </mxCell>
        <mxCell id="EmJS1ey08h_2ylmZTkNM-10" value="" style="endArrow=classic;html=1;rounded=0;entryX=0;entryY=0.5;entryDx=0;entryDy=0;entryPerimeter=0;" parent="1" target="7x6oJ4_WCqgESaoICPk5-5" edge="1">
          <mxGeometry width="50" height="50" relative="1" as="geometry">
            <mxPoint x="-100.2" y="558" as="sourcePoint" />
            <mxPoint x="139.8" y="530" as="targetPoint" />
          </mxGeometry>
        </mxCell>
        <mxCell id="EmJS1ey08h_2ylmZTkNM-12" value="" style="shape=image;verticalLabelPosition=bottom;labelBackgroundColor=default;verticalAlign=top;aspect=fixed;imageAspect=0;image=https://www.vectorlogo.zone/logos/metabase/metabase-ar21.png;imageBorder=#0068D1;" parent="1" vertex="1">
          <mxGeometry x="646.7000000000002" y="669.9999999999999" width="147.8" height="73.9" as="geometry" />
        </mxCell>
        <mxCell id="EmJS1ey08h_2ylmZTkNM-16" value="" style="sketch=0;outlineConnect=0;fontColor=#232F3E;gradientColor=none;fillColor=#B0084D;strokeColor=none;dashed=0;verticalLabelPosition=bottom;verticalAlign=top;align=center;html=1;fontSize=12;fontStyle=0;aspect=fixed;pointerEvents=1;shape=mxgraph.aws4.event_time_based;" parent="1" vertex="1">
          <mxGeometry x="369.8" y="667.95" width="28" height="28" as="geometry" />
        </mxCell>
        <mxCell id="EmJS1ey08h_2ylmZTkNM-19" value="&lt;font style=&quot;font-size: 16px;&quot;&gt;YouTube&lt;br&gt;Data API&lt;/font&gt;" style="text;html=1;strokeColor=none;fillColor=none;align=center;verticalAlign=middle;whiteSpace=wrap;rounded=0;" parent="1" vertex="1">
          <mxGeometry x="-227.7" y="600" width="105" height="50" as="geometry" />
        </mxCell>
        <mxCell id="spUJgHrvj2QEMT6NR-Pl-1" style="edgeStyle=orthogonalEdgeStyle;rounded=0;orthogonalLoop=1;jettySize=auto;html=1;exitX=0;exitY=0.5;exitDx=0;exitDy=0;exitPerimeter=0;entryX=0.75;entryY=0;entryDx=0;entryDy=0;" edge="1" parent="1" source="EmJS1ey08h_2ylmZTkNM-23" target="EmJS1ey08h_2ylmZTkNM-12">
          <mxGeometry relative="1" as="geometry" />
        </mxCell>
        <mxCell id="EmJS1ey08h_2ylmZTkNM-23" value="" style="sketch=0;points=[[0,0,0],[0.25,0,0],[0.5,0,0],[0.75,0,0],[1,0,0],[0,1,0],[0.25,1,0],[0.5,1,0],[0.75,1,0],[1,1,0],[0,0.25,0],[0,0.5,0],[0,0.75,0],[1,0.25,0],[1,0.5,0],[1,0.75,0]];outlineConnect=0;fontColor=#232F3E;gradientColor=#F78E04;gradientDirection=north;fillColor=#D05C17;strokeColor=#ffffff;dashed=0;verticalLabelPosition=bottom;verticalAlign=top;align=center;html=1;fontSize=12;fontStyle=0;aspect=fixed;shape=mxgraph.aws4.resourceIcon;resIcon=mxgraph.aws4.ec2;" parent="1" vertex="1">
          <mxGeometry x="820" y="522" width="78" height="78" as="geometry" />
        </mxCell>
        <mxCell id="EmJS1ey08h_2ylmZTkNM-25" value="&lt;span style=&quot;font-size: 16px;&quot;&gt;EC2 Instance&lt;/span&gt;" style="text;html=1;strokeColor=none;fillColor=none;align=center;verticalAlign=middle;whiteSpace=wrap;rounded=0;" parent="1" vertex="1">
          <mxGeometry x="792.13" y="482" width="133.75" height="40" as="geometry" />
        </mxCell>
        <mxCell id="TMAUJEl3o8q02QhfMhkS-3" value="" style="rounded=0;whiteSpace=wrap;html=1;fillColor=none;dashed=1;strokeWidth=2;perimeterSpacing=1;" parent="1" vertex="1">
          <mxGeometry x="-46.2" y="300" width="976.2" height="650" as="geometry" />
        </mxCell>
        <mxCell id="spUJgHrvj2QEMT6NR-Pl-2" value="" style="sketch=0;outlineConnect=0;fontColor=#232F3E;gradientColor=none;fillColor=#B0084D;strokeColor=none;dashed=0;verticalLabelPosition=bottom;verticalAlign=top;align=center;html=1;fontSize=12;fontStyle=0;aspect=fixed;pointerEvents=1;shape=mxgraph.aws4.parameter_store;" vertex="1" parent="1">
          <mxGeometry x="421.25" y="830" width="75" height="78" as="geometry" />
        </mxCell>
        <mxCell id="spUJgHrvj2QEMT6NR-Pl-3" value="&lt;span style=&quot;font-size: 16px;&quot;&gt;Parameter Store&lt;/span&gt;" style="text;html=1;strokeColor=none;fillColor=none;align=center;verticalAlign=middle;whiteSpace=wrap;rounded=0;" vertex="1" parent="1">
          <mxGeometry x="386.25" y="908" width="133.75" height="40" as="geometry" />
        </mxCell>
        <mxCell id="spUJgHrvj2QEMT6NR-Pl-7" style="edgeStyle=orthogonalEdgeStyle;rounded=0;orthogonalLoop=1;jettySize=auto;html=1;exitX=1;exitY=0.5;exitDx=0;exitDy=0;exitPerimeter=0;entryX=0.25;entryY=1;entryDx=0;entryDy=0;entryPerimeter=0;" edge="1" parent="1" source="spUJgHrvj2QEMT6NR-Pl-4" target="7x6oJ4_WCqgESaoICPk5-14">
          <mxGeometry relative="1" as="geometry" />
        </mxCell>
        <mxCell id="spUJgHrvj2QEMT6NR-Pl-4" value="" style="sketch=0;points=[[0,0,0],[0.25,0,0],[0.5,0,0],[0.75,0,0],[1,0,0],[0,1,0],[0.25,1,0],[0.5,1,0],[0.75,1,0],[1,1,0],[0,0.25,0],[0,0.5,0],[0,0.75,0],[1,0.25,0],[1,0.5,0],[1,0.75,0]];outlineConnect=0;fontColor=#232F3E;gradientColor=#945DF2;gradientDirection=north;fillColor=#5A30B5;strokeColor=#ffffff;dashed=0;verticalLabelPosition=bottom;verticalAlign=top;align=center;html=1;fontSize=12;fontStyle=0;aspect=fixed;shape=mxgraph.aws4.resourceIcon;resIcon=mxgraph.aws4.glue;" vertex="1" parent="1">
          <mxGeometry x="520" y="490" width="78" height="78" as="geometry" />
        </mxCell>
        <mxCell id="spUJgHrvj2QEMT6NR-Pl-5" value="&lt;span style=&quot;font-size: 16px;&quot;&gt;Analytical Aggregations&lt;/span&gt;" style="text;html=1;strokeColor=none;fillColor=none;align=center;verticalAlign=middle;whiteSpace=wrap;rounded=0;" vertex="1" parent="1">
          <mxGeometry x="498.9" y="582.8" width="120.2" height="37.2" as="geometry" />
        </mxCell>
        <mxCell id="spUJgHrvj2QEMT6NR-Pl-9" value="" style="sketch=0;outlineConnect=0;fontColor=#232F3E;gradientColor=none;fillColor=#B0084D;strokeColor=none;dashed=0;verticalLabelPosition=bottom;verticalAlign=top;align=center;html=1;fontSize=12;fontStyle=0;aspect=fixed;pointerEvents=1;shape=mxgraph.aws4.event_time_based;" vertex="1" parent="1">
          <mxGeometry x="369.8" y="752" width="28" height="28" as="geometry" />
        </mxCell>
        <mxCell id="spUJgHrvj2QEMT6NR-Pl-10" value="" style="endArrow=none;dashed=1;html=1;dashPattern=1 3;strokeWidth=2;rounded=0;" edge="1" parent="1" source="spUJgHrvj2QEMT6NR-Pl-2">
          <mxGeometry width="50" height="50" relative="1" as="geometry">
            <mxPoint x="450" y="600" as="sourcePoint" />
            <mxPoint x="460" y="550" as="targetPoint" />
          </mxGeometry>
        </mxCell>
        <mxCell id="spUJgHrvj2QEMT6NR-Pl-11" value="" style="endArrow=none;dashed=1;html=1;dashPattern=1 3;strokeWidth=2;rounded=0;entryX=0;entryY=0.5;entryDx=0;entryDy=0;entryPerimeter=0;edgeStyle=orthogonalEdgeStyle;" edge="1" parent="1" target="spUJgHrvj2QEMT6NR-Pl-4">
          <mxGeometry width="50" height="50" relative="1" as="geometry">
            <mxPoint x="460" y="550" as="sourcePoint" />
            <mxPoint x="560" y="580" as="targetPoint" />
            <Array as="points">
              <mxPoint x="460" y="529" />
            </Array>
          </mxGeometry>
        </mxCell>
        <mxCell id="spUJgHrvj2QEMT6NR-Pl-12" value="" style="endArrow=none;dashed=1;html=1;dashPattern=1 3;strokeWidth=2;rounded=0;exitX=0.75;exitY=1;exitDx=0;exitDy=0;" edge="1" parent="1" source="pq6OM98FaBrcGSdIZZ3g-65">
          <mxGeometry width="50" height="50" relative="1" as="geometry">
            <mxPoint x="450" y="580" as="sourcePoint" />
            <mxPoint x="460" y="530" as="targetPoint" />
            <Array as="points">
              <mxPoint x="400" y="530" />
            </Array>
          </mxGeometry>
        </mxCell>
        <mxCell id="spUJgHrvj2QEMT6NR-Pl-13" value="" style="endArrow=none;dashed=1;html=1;dashPattern=1 3;strokeWidth=2;rounded=0;exitX=-0.017;exitY=0.513;exitDx=0;exitDy=0;exitPerimeter=0;entryX=0.25;entryY=1;entryDx=0;entryDy=0;" edge="1" parent="1" source="spUJgHrvj2QEMT6NR-Pl-2" target="pq6OM98FaBrcGSdIZZ3g-72">
          <mxGeometry width="50" height="50" relative="1" as="geometry">
            <mxPoint x="200" y="760" as="sourcePoint" />
            <mxPoint x="250" y="710" as="targetPoint" />
            <Array as="points">
              <mxPoint x="-7" y="870" />
            </Array>
          </mxGeometry>
        </mxCell>
      </root>
    </mxGraphModel>
  </diagram>
</mxfile>
